<svg xmlns="http://www.w3.org/2000/svg" xmlns:xlink="http://www.w3.org/1999/xlink" width="126" height="133" viewBox="0 0 126 133"><defs><style>.a{clip-path:url(#b);}.b{fill:#007b61;}</style><clipPath id="b"><rect width="126" height="133"/></clipPath></defs><g id="a" class="a"><path class="b" d="M5.872,17.616H31.318V9.787A9.8,9.8,0,0,1,41.1,0H76.337a9.8,9.8,0,0,1,9.787,9.787v7.829H111.57a5.872,5.872,0,0,1,5.872,5.872v43.57a5.9,5.9,0,0,1-3.915,5.526V99.826a5.872,5.872,0,0,1-5.872,5.872H9.787a5.872,5.872,0,0,1-5.872-5.872V72.587A5.9,5.9,0,0,1,0,67.059V23.488a5.872,5.872,0,0,1,5.872-5.872ZM82.209,9.787a5.872,5.872,0,0,0-5.872-5.872H41.1a5.872,5.872,0,0,0-5.872,5.872v7.829h3.915V9.787A1.957,1.957,0,0,1,41.1,7.829H76.337a1.957,1.957,0,0,1,1.957,1.957v7.829h3.915ZM43.062,17.616H74.38V11.744H43.062ZM7.829,99.826a1.957,1.957,0,0,0,1.957,1.957h97.868a1.957,1.957,0,0,0,1.957-1.957V73.258L66.55,79.2v4.97a5.872,5.872,0,0,1-5.872,5.872H56.764a5.872,5.872,0,0,1-5.872-5.872V79.2L7.829,73.258ZM54.806,84.167a1.957,1.957,0,0,0,1.957,1.957h3.915a1.957,1.957,0,0,0,1.957-1.957V72.423a1.957,1.957,0,0,0-1.957-1.957H56.764a1.957,1.957,0,0,0-1.957,1.957ZM3.915,67.059A1.957,1.957,0,0,0,5.6,69l.543.075,44.751,6.171V72.423a5.872,5.872,0,0,1,5.872-5.872h3.915a5.872,5.872,0,0,1,5.872,5.872v2.822L111.842,69a1.958,1.958,0,0,0,1.685-1.94V23.488a1.957,1.957,0,0,0-1.957-1.957H5.872a1.957,1.957,0,0,0-1.957,1.957Zm0,0" transform="translate(5.299 12.233)"/></g></svg>