<svg xmlns="http://www.w3.org/2000/svg" xmlns:xlink="http://www.w3.org/1999/xlink" width="126" height="133" viewBox="0 0 126 133"><defs><style>.a{clip-path:url(#b);}.b{fill:#007b61;}</style><clipPath id="b"><rect width="126" height="133"/></clipPath></defs><g id="a" class="a"><g transform="translate(2.342 13.093)"><path class="b" d="M106.136,27.315c-.054-2.864-.106-5.57-.106-8.187a3.713,3.713,0,0,0-3.713-3.713c-15.88,0-27.971-4.564-38.049-14.363a3.712,3.712,0,0,0-5.177,0c-10.077,9.8-22.166,14.363-38.045,14.363a3.713,3.713,0,0,0-3.713,3.713c0,2.618-.051,5.325-.106,8.189-.509,26.654-1.206,63.157,43.237,78.562a3.709,3.709,0,0,0,2.432,0C107.341,90.473,106.645,53.969,106.136,27.315ZM61.679,98.43C23.564,84.584,24.14,54.252,24.652,27.458c.031-1.608.06-3.167.081-4.694,14.872-.628,26.765-5.135,36.946-14,10.182,8.869,22.077,13.376,36.95,14,.021,1.527.051,3.085.081,4.692C99.222,54.25,99.8,84.583,61.679,98.43Z" transform="translate(0 0)"/><path class="b" d="M100.417,79.973,82.5,97.894l-7.648-7.648A3.713,3.713,0,0,0,69.6,95.5L79.87,105.771a3.714,3.714,0,0,0,5.251,0l20.547-20.546a3.713,3.713,0,1,0-5.25-5.251Z" transform="translate(-25.951 -39.83)"/></g></g></svg>