<svg xmlns="http://www.w3.org/2000/svg" xmlns:xlink="http://www.w3.org/1999/xlink" width="136" height="133" viewBox="0 0 136 133"><defs><clipPath id="b"><rect width="136" height="133"/></clipPath></defs><g id="a" clip-path="url(#b)"><g transform="translate(-11.965 12.094)"><g transform="translate(35.966)"><path d="M132.436,93.2a27.148,27.148,0,0,0-17.941,47.486c4.29,4.29,3.9,13.456,3.8,13.554a1.615,1.615,0,0,0,.488,1.268,1.8,1.8,0,0,0,1.17.488H144.82a1.615,1.615,0,0,0,1.17-.488,1.854,1.854,0,0,0,.488-1.268c0-.1-.488-9.263,3.8-13.554l.293-.293A27.066,27.066,0,0,0,132.436,93.2Zm15.6,44.951c-.1.1-.293.293-.293.39-3.8,4.1-4.485,10.823-4.583,14.041H121.613c-.1-3.218-.78-10.238-4.875-14.431a23.743,23.743,0,1,1,31.3,0Z" transform="translate(-88.42 -70.481)" fill="#007b61"/><path d="M210.987,121.6a1.658,1.658,0,0,0,0,3.315,17.748,17.748,0,0,1,17.746,17.746,1.658,1.658,0,1,0,3.315,0A20.974,20.974,0,0,0,210.987,121.6Z" transform="translate(-167.068 -91.958)" fill="#007b61"/><path d="M180.671,358.4H159.024a4.1,4.1,0,1,0,0,8.191h21.549a4.205,4.205,0,0,0,4.193-4.1A4.12,4.12,0,0,0,180.671,358.4Zm0,4.778H159.024a.769.769,0,0,1-.78-.78.718.718,0,0,1,.78-.78h21.549a.769.769,0,0,1,.78.78A.7.7,0,0,1,180.671,363.178Z" transform="translate(-125.929 -271.033)" fill="#007b61"/><path d="M187.436,398.8H172.224a4.1,4.1,0,1,0,0,8.191h15.211a4.12,4.12,0,0,0,4.1-4.1A4.058,4.058,0,0,0,187.436,398.8Zm0,4.778H172.224a.769.769,0,0,1-.78-.78.718.718,0,0,1,.78-.78h15.211a.78.78,0,0,1,0,1.56Z" transform="translate(-135.911 -301.584)" fill="#007b61"/><path d="M210.987,14.626a1.643,1.643,0,0,0,1.658-1.658V1.658a1.658,1.658,0,0,0-3.315,0V12.969A1.709,1.709,0,0,0,210.987,14.626Z" transform="translate(-167.068)" fill="#007b61"/><path d="M301.957,33.427a1.573,1.573,0,0,0-2.243.39l-6.241,9.361a1.606,1.606,0,0,0,.39,2.34,1.573,1.573,0,0,0,.878.293,1.556,1.556,0,0,0,1.365-.78l6.241-9.361A1.511,1.511,0,0,0,301.957,33.427Z" transform="translate(-230.444 -25.041)" fill="#007b61"/><path d="M110.813,43.754a1.573,1.573,0,0,0,.878-.293,1.708,1.708,0,0,0,.488-2.34l-6.046-9.458a1.69,1.69,0,1,0-2.828,1.853l6.046,9.458A1.618,1.618,0,0,0,110.813,43.754Z" transform="translate(-86.688 -23.375)" fill="#007b61"/><path d="M48.291,108.829l-9.848-5.363a1.717,1.717,0,0,0-2.243.683,1.557,1.557,0,0,0,.683,2.243l9.848,5.363a2.3,2.3,0,0,0,.78.2,1.609,1.609,0,0,0,1.463-.878A1.717,1.717,0,0,0,48.291,108.829Z" transform="translate(-35.966 -78.114)" fill="#007b61"/><path d="M355.266,104.149a1.717,1.717,0,0,0-2.243-.683l-9.946,5.363a1.717,1.717,0,0,0-.683,2.243,1.609,1.609,0,0,0,1.463.878,1.837,1.837,0,0,0,.78-.2l9.946-5.363A1.717,1.717,0,0,0,355.266,104.149Z" transform="translate(-267.567 -78.114)" fill="#007b61"/></g></g></g></svg>