<svg xmlns="http://www.w3.org/2000/svg" xmlns:xlink="http://www.w3.org/1999/xlink" width="126" height="133" viewBox="0 0 126 133"><defs><style>.a{clip-path:url(#b);}.b{fill:#007b61;}</style><clipPath id="b"><rect width="126" height="133"/></clipPath></defs><g id="a" class="a"><g transform="translate(7 11)"><path class="b" d="M107.332,48.135h-4.021a47.7,47.7,0,0,0-2.979-10.452l3.408-2.12a4.673,4.673,0,0,0,1.5-6.428L101.86,23.7a4.673,4.673,0,0,0-6.428-1.5l-3.418,2.127a48.382,48.382,0,0,0-5.825-5.593l1.987-3.5a4.667,4.667,0,0,0-1.756-6.363L80.858,5.718A4.667,4.667,0,0,0,74.5,7.473l-1.982,3.492a47.748,47.748,0,0,0-8.649-2.277V4.667A4.673,4.673,0,0,0,59.2,0H52.8a4.673,4.673,0,0,0-4.667,4.667V8.688a47.761,47.761,0,0,0-8.649,2.277L37.5,7.473a4.667,4.667,0,0,0-6.363-1.756L25.58,8.875a4.667,4.667,0,0,0-1.756,6.363l1.987,3.5a48.349,48.349,0,0,0-5.825,5.593l-3.418-2.127a4.672,4.672,0,0,0-6.428,1.5l-3.378,5.43a4.673,4.673,0,0,0,1.5,6.428l3.408,2.12A47.693,47.693,0,0,0,8.689,48.135H4.667A4.672,4.672,0,0,0,0,52.8v6.4a4.673,4.673,0,0,0,4.667,4.667H8.688a47.7,47.7,0,0,0,2.979,10.452l-3.408,2.12a4.673,4.673,0,0,0-1.5,6.428L10.14,88.3a4.673,4.673,0,0,0,6.428,1.5l3.418-2.127a48.367,48.367,0,0,0,5.825,5.593l-1.987,3.5a4.667,4.667,0,0,0,1.756,6.363l5.562,3.157a4.667,4.667,0,0,0,6.363-1.756l1.982-3.492a47.76,47.76,0,0,0,8.649,2.277v4.021A4.673,4.673,0,0,0,52.8,112h6.4a4.673,4.673,0,0,0,4.667-4.667v-4.021a47.756,47.756,0,0,0,8.649-2.277l1.982,3.492a4.667,4.667,0,0,0,6.363,1.756l5.562-3.157a4.667,4.667,0,0,0,1.756-6.363l-1.987-3.5a48.383,48.383,0,0,0,5.825-5.593l3.418,2.127a4.673,4.673,0,0,0,6.428-1.5l3.378-5.43a4.673,4.673,0,0,0-1.5-6.428l-3.409-2.12c.2-.482.4-1,.631-1.621a1.641,1.641,0,0,0-3.077-1.143c-.234.63-.436,1.146-.634,1.623a3.113,3.113,0,0,0,1.232,3.856l3.523,2.192a1.387,1.387,0,0,1,.444,1.908l-3.378,5.43a1.387,1.387,0,0,1-1.908.444l-3.533-2.2a3.112,3.112,0,0,0-4,.6,45.085,45.085,0,0,1-5.609,5.386,3.111,3.111,0,0,0-.756,3.973l2.054,3.62a1.385,1.385,0,0,1-.521,1.888l-5.562,3.157a1.385,1.385,0,0,1-1.888-.521L75.3,99.3a3.113,3.113,0,0,0-3.8-1.387,44.481,44.481,0,0,1-8.289,2.182,3.113,3.113,0,0,0-2.626,3.083v4.156a1.387,1.387,0,0,1-1.385,1.385H52.8a1.387,1.387,0,0,1-1.385-1.385v-4.156a3.113,3.113,0,0,0-2.626-3.083A44.481,44.481,0,0,1,40.5,97.911,3.114,3.114,0,0,0,36.7,99.3l-2.048,3.609a1.385,1.385,0,0,1-1.888.521L27.2,100.271a1.385,1.385,0,0,1-.521-1.888l2.054-3.62a3.111,3.111,0,0,0-.756-3.973A45.057,45.057,0,0,1,22.367,85.4a3.112,3.112,0,0,0-4-.6l-3.533,2.2a1.387,1.387,0,0,1-1.908-.444l-3.378-5.43a1.387,1.387,0,0,1,.444-1.908l3.523-2.192a3.113,3.113,0,0,0,1.232-3.856,44.411,44.411,0,0,1-2.841-9.968,3.113,3.113,0,0,0-3.083-2.626H4.667A1.387,1.387,0,0,1,3.282,59.2V52.8a1.387,1.387,0,0,1,1.385-1.385H8.824a3.112,3.112,0,0,0,3.083-2.626,44.413,44.413,0,0,1,2.841-9.968,3.113,3.113,0,0,0-1.232-3.856L9.993,32.775a1.387,1.387,0,0,1-.444-1.908l3.378-5.43a1.387,1.387,0,0,1,1.908-.444l3.533,2.2a3.112,3.112,0,0,0,4-.6,45.055,45.055,0,0,1,5.609-5.386,3.111,3.111,0,0,0,.756-3.973l-2.054-3.62a1.385,1.385,0,0,1,.521-1.888l5.562-3.157a1.385,1.385,0,0,1,1.888.521L36.7,12.7a3.114,3.114,0,0,0,3.8,1.387,44.488,44.488,0,0,1,8.289-2.182,3.113,3.113,0,0,0,2.626-3.083V4.667A1.387,1.387,0,0,1,52.8,3.282h6.4a1.387,1.387,0,0,1,1.385,1.385V8.823a3.113,3.113,0,0,0,2.626,3.083A44.488,44.488,0,0,1,71.5,14.089,3.114,3.114,0,0,0,75.3,12.7L77.35,9.093a1.385,1.385,0,0,1,1.888-.521L84.8,11.729a1.385,1.385,0,0,1,.521,1.888l-2.054,3.62a3.111,3.111,0,0,0,.756,3.973A45.043,45.043,0,0,1,89.633,26.6a3.112,3.112,0,0,0,4,.595l3.533-2.2a1.387,1.387,0,0,1,1.908.444l3.378,5.43a1.387,1.387,0,0,1-.444,1.908l-3.523,2.192a3.113,3.113,0,0,0-1.232,3.856,44.412,44.412,0,0,1,2.841,9.968,3.113,3.113,0,0,0,3.083,2.626h4.156a1.387,1.387,0,0,1,1.385,1.385v6.4a1.387,1.387,0,0,1-1.385,1.385h-4.156a3.112,3.112,0,0,0-3.083,2.626c-.09.557-.2,1.145-.346,1.852a1.641,1.641,0,1,0,3.215.662c.144-.7.256-1.293.349-1.857h4.021A4.673,4.673,0,0,0,112,59.2V52.8a4.673,4.673,0,0,0-4.667-4.668Z"/><path class="b" d="M142.209,88.51a37.994,37.994,0,0,0-23.136-7.77,38.337,38.337,0,1,0,28.513,12.715,1.641,1.641,0,1,0-2.441,2.194,35.033,35.033,0,1,1-4.919-4.524,1.641,1.641,0,0,0,1.983-2.615Z" transform="translate(-63.073 -63.073)"/><path class="b" d="M144.184,112.885a31.3,31.3,0,1,0,31.3,31.3A31.335,31.335,0,0,0,144.184,112.885Zm0,59.316A28.017,28.017,0,1,1,172.2,144.184,28.049,28.049,0,0,1,144.184,172.2Z" transform="translate(-88.185 -88.185)"/><path class="b" d="M197.7,181.391a16.228,16.228,0,0,0-12.789,6.195,1.641,1.641,0,1,0,2.573,2.038,13.023,13.023,0,1,1-2.811,8.077,13.164,13.164,0,0,1,.23-2.429,1.641,1.641,0,0,0-3.225-.608A16.309,16.309,0,1,0,197.7,181.391Z" transform="translate(-141.701 -141.701)"/></g></g></svg>