<svg xmlns="http://www.w3.org/2000/svg" xmlns:xlink="http://www.w3.org/1999/xlink" width="136" height="133" viewBox="0 0 136 133"><defs><style>.a{clip-path:url(#b);}.b{fill:#007b61;}</style><clipPath id="b"><rect width="136" height="133"/></clipPath></defs><g id="a" class="a"><g transform="translate(15.008 7.057)"><path class="b" d="M18.08,19.561a1.758,1.758,0,0,0,.667-.131q.973-.4,1.974-.745a1.765,1.765,0,1,0-1.155-3.336q-1.091.377-2.155.813a1.765,1.765,0,0,0,.669,3.4Z" transform="translate(10.952 10.13)"/><path class="b" d="M107.789,20.627a1.767,1.767,0,0,0-1.52-1.147L91.555,18.348,90.423,3.634a1.765,1.765,0,0,0-3.007-1.112L67.45,22.486a1.765,1.765,0,0,0-.512,1.384l.474,6.162a42.285,42.285,0,0,0-30.819-6.159,1.765,1.765,0,1,0,.643,3.471,39.15,39.15,0,0,1,7.115-.652,38.252,38.252,0,0,1,23.413,7.915l.36,4.674-2.612,2.612a31.879,31.879,0,1,0,2.493,2.5l2.612-2.612,4.674.359a38.283,38.283,0,0,1,7.882,23.378A38.824,38.824,0,1,1,25.738,31.446a1.765,1.765,0,1,0-1.7-3.1A42.353,42.353,0,1,0,86.7,65.516a41.764,41.764,0,0,0-6.829-23.027l6.159.473c.046,0,.091.005.135.005a1.762,1.762,0,0,0,1.248-.517l19.964-19.964a1.765,1.765,0,0,0,.408-1.859ZM70.519,24.408l6.7-6.7L78.107,29.3l-6.7,6.7Zm2.06,41.1a28.34,28.34,0,1,1-9.562-21.122l-4.989,4.989a21.189,21.189,0,1,0,2.493,2.5l4.989-4.989A28.087,28.087,0,0,1,72.58,65.51Zm-21.177,0a7.059,7.059,0,1,1-7.059-7.059,6.982,6.982,0,0,1,3.595,1.017l-4.818,4.818a1.765,1.765,0,1,0,2.5,2.5l4.8-4.8A6.978,6.978,0,0,1,51.4,65.51Zm-.906-8.6a10.608,10.608,0,1,0,2.488,2.5l5.035-5.035a17.639,17.639,0,1,1-2.488-2.5Zm35-17.528-11.589-.891,6.7-6.7,11.588.891ZM95.477,29.4l-13.9-1.07L80.5,14.424l6.7-6.7.954,12.4a1.766,1.766,0,0,0,1.624,1.624l12.4.953Z" transform="translate(0 0)"/></g></g></svg>