<svg xmlns="http://www.w3.org/2000/svg" xmlns:xlink="http://www.w3.org/1999/xlink" width="136" height="133" viewBox="0 0 136 133"><defs><style>.a{clip-path:url(#b);}.b{fill:#007b61;}</style><clipPath id="b"><rect width="136" height="133"/></clipPath></defs><g id="a" class="a"><g transform="translate(15.095 14.094)"><g transform="translate(0 11.627)"><path class="b" d="M18.914,56.263h-.025a7.074,7.074,0,0,0-6.94,7.046V73.377H1.557a1.557,1.557,0,1,0,0,3.115H11.949v8.188H1.557a1.557,1.557,0,1,0,0,3.115H11.949v8.188H1.557a1.558,1.558,0,0,0,0,3.115H11.949v8.188H1.557a1.557,1.557,0,0,0,0,3.115H11.949v8.188H1.557a1.557,1.557,0,1,0,0,3.115H11.949v5.326a1.557,1.557,0,0,0,3.115,0V63.309a3.949,3.949,0,0,1,3.873-3.933,1.557,1.557,0,0,0-.023-3.113Z" transform="translate(0 -56.263)"/></g><g transform="translate(12.356 87.013)"><path class="b" d="M132.2,424.45H66.43a3.921,3.921,0,0,1-3.642-2.444,1.557,1.557,0,0,0-2.882,1.179,7.023,7.023,0,0,0,6.525,4.379h9.745v10.714a1.557,1.557,0,1,0,3.115,0V427.564h8.188v10.714a1.557,1.557,0,0,0,3.115,0V427.564H98.78v10.714a1.557,1.557,0,1,0,3.115,0V427.564h8.188v10.714a1.557,1.557,0,0,0,3.115,0V427.564h8.188v10.714a1.557,1.557,0,0,0,3.115,0V427.564h7.7a1.557,1.557,0,1,0,0-3.115Z" transform="translate(-59.788 -421.037)"/></g><g transform="translate(26.805 26.481)"><path class="b" d="M176.929,128.138H134.683a4.982,4.982,0,0,0-4.977,4.977v42.248a4.982,4.982,0,0,0,4.977,4.977h42.246a4.982,4.982,0,0,0,4.977-4.977V133.115A4.982,4.982,0,0,0,176.929,128.138Zm-44.108,4.977a1.864,1.864,0,0,1,1.863-1.863H166.9v16.266a7.4,7.4,0,0,0-5.648,5.648H149.774V145.18a6.4,6.4,0,1,0-7.515-7.515h-9.438Zm35.636,17.352a4.256,4.256,0,1,1-4.257,4.257A4.261,4.261,0,0,1,168.457,150.467Zm-19.916-8.281a3.286,3.286,0,1,1,3.287-3.287A3.292,3.292,0,0,1,148.54,142.186Zm-6.726,25.455a2.963,2.963,0,1,1,4.415-2.583A2.962,2.962,0,0,1,141.814,167.64Zm12.6,9.585H143.962V171.1a6.078,6.078,0,1,0-3.115-.461v6.591h-6.163a1.865,1.865,0,0,1-1.863-1.863V140.78h9.6a6.521,6.521,0,0,0,4.238,4.238v9.706a1.558,1.558,0,0,0,1.557,1.557h6.194Zm24.381-1.863a1.865,1.865,0,0,1-1.863,1.863h-19.4v-6.735h21.267Zm0-7.987H157.525V156.282h3.726a7.371,7.371,0,1,0,8.763-8.763h0V131.253h6.915a1.864,1.864,0,0,1,1.863,1.863v34.26Z" transform="translate(-129.706 -128.138)"/></g><g transform="translate(23.587)"><path class="b" d="M194.8,43.16a1.557,1.557,0,0,0,0-3.115H184.406V31.857H194.8a1.557,1.557,0,0,0,0-3.115H184.406V18.673a7.056,7.056,0,0,0-7.048-7.048h-9.745V1.557a1.557,1.557,0,1,0-3.115,0V11.625H156.31V1.557a1.557,1.557,0,1,0-3.115,0V11.625h-8.188V1.557a1.557,1.557,0,1,0-3.115,0V11.625H133.7V1.557a1.557,1.557,0,1,0-3.115,0V11.625H122.4V1.557a1.557,1.557,0,1,0-3.115,0V11.625h-3.6a1.557,1.557,0,0,0,0,3.115h61.67a3.937,3.937,0,0,1,3.933,3.933V86.492a3.9,3.9,0,0,1-1.219,2.847,1.558,1.558,0,0,0,2.149,2.255,6.992,6.992,0,0,0,2.185-5.1V77.069H194.8a1.557,1.557,0,1,0,0-3.115H184.406V65.766H194.8a1.557,1.557,0,1,0,0-3.115H184.406V54.463H194.8a1.557,1.557,0,1,0,0-3.115H184.406V43.16H194.8Z" transform="translate(-114.131)"/></g></g></g></svg>