<?xml version="1.0" encoding="utf-8"?><svg viewBox="0 0 182 138" xmlns="http://www.w3.org/2000/svg" xmlns:xlink="http://www.w3.org/1999/xlink"><style>:root>svg{display:none}:root>svg:target{display:block}</style><svg viewBox="0 0 182 8" id="Artboard_–_1" xmlns="http://www.w3.org/2000/svg"><defs><clipPath id="aa"><path d="M0 0h182v8H0z"/></clipPath></defs><g clip-path="url(#aa)"><path fill="#fff" d="M0 0h182v8H0z"/><path fill="#007b61" d="M0 0h75v8H0z"/><path fill="#68bbaf" d="M69 0h75v8H69z"/><path fill="#92d9ce" d="M136 0h46v8h-46z"/></g></svg><svg viewBox="0 0 21 19" id="Delete-btn" xmlns="http://www.w3.org/2000/svg"><defs><clipPath id="ba"><path d="M0 0h21v19H0z"/></clipPath></defs><g clip-path="url(#ba)"><path d="M15.329 19h-9.5a.731.731 0 110-1.462h9.5a.731.731 0 110 1.462z" fill="#ce3f3f"/><path d="M16.06 18.306h-.037a.73.73 0 01-.694-.768l.7-13.921a.731.731 0 011.46.073l-.7 13.921a.73.73 0 01-.729.695z" fill="#ce3f3f"/><path d="M15.329 19a.731.731 0 110-1.462.73.73 0 111.459.073A1.46 1.46 0 0115.329 19zM5.099 18.306a.731.731 0 01-.729-.694l-.7-13.921a.731.731 0 011.46-.073l.7 13.922a.731.731 0 01-.693.767H5.1z" fill="#ce3f3f"/><path d="M5.829 19a1.46 1.46 0 01-1.463-1.389.731.731 0 011.46-.073.731.731 0 110 1.461zM13.502 4.385a.731.731 0 01-.731-.731V1.462a.731.731 0 011.462 0v2.192a.731.731 0 01-.731.731zM7.655 4.385a.731.731 0 01-.731-.731V1.462a.731.731 0 011.462 0v2.192a.731.731 0 01-.731.731z" fill="#ce3f3f"/><path d="M17.887 4.385H3.27a.731.731 0 110-1.462h14.617a.731.731 0 110 1.462zM7.654 2.192a.731.731 0 01-.73-.73A1.463 1.463 0 018.386.003a.731.731 0 110 1.462.73.73 0 01-.732.727z" fill="#ce3f3f"/><path d="M12.77 1.462H8.386a.731.731 0 110-1.462h4.385a.731.731 0 110 1.462z" fill="#ce3f3f"/><path d="M13.502 2.192a.731.731 0 01-.731-.731.73.73 0 110-1.461 1.463 1.463 0 011.462 1.462.731.731 0 01-.731.73z" fill="#ce3f3f"/></g></svg><svg viewBox="0 0 18 19" id="Download" xmlns="http://www.w3.org/2000/svg"><defs><clipPath id="ca"><path d="M0 0h18v19H0z"/></clipPath></defs><g data-name="download (1)" clip-path="url(#ca)"><g data-name="Group 264"><g data-name="Group 263"><path data-name="Path 255" d="M13.769 8.535a.6.6 0 00-.547-.352h-2.4V.369a.6.6 0 00-.6-.6h-2.4a.6.6 0 00-.6.6v7.814h-2.4a.6.6 0 00-.452 1l4.207 4.808a.6.6 0 00.9 0l4.207-4.808a.6.6 0 00.085-.648z" fill="#0a7cbe"/></g></g><g data-name="Group 266"><g data-name="Group 265"><path data-name="Path 256" d="M15.626 12.991v3.606H2.4v-3.606H0v4.808a1.2 1.2 0 001.2 1.2h15.628a1.2 1.2 0 001.2-1.2v-4.808z" fill="#0a7cbe"/></g></g></g></svg><svg viewBox="0 0 21 19" id="Edit-btn" xmlns="http://www.w3.org/2000/svg"><defs><clipPath id="da"><path d="M0 0h21v19H0z"/></clipPath></defs><g clip-path="url(#da)"><path d="M17.923.729A2.46 2.46 0 0016.148 0a2.5 2.5 0 00-1.777.729L.86 14.261a.466.466 0 00-.114.205l-.957 3.873a.434.434 0 00.114.433.45.45 0 00.319.137.205.205 0 00.114-.023l3.873-.957a.441.441 0 00.205-.114L17.923 4.26a2.489 2.489 0 000-3.531zM1.816 14.58l10.32-10.32 2.255 2.255L4.072 16.836zM12.774 3.622l.957-.957 2.255 2.255-.957.957zM1.429 15.469l1.754 1.754-2.347.592zM17.285 3.622l-.638.638L14.392 2l.638-.638a1.6 1.6 0 011.139-.456 1.548 1.548 0 011.116.456 1.609 1.609 0 010 2.26zm2.848 14.922a.457.457 0 01-.456.456H6.92a.456.456 0 110-.911h12.757a.443.443 0 01.456.455z" fill="#d9ab2a"/></g></svg><svg viewBox="0 0 137 138" id="MenuIcon-Services" xmlns="http://www.w3.org/2000/svg"><defs><clipPath id="ea"><path d="M0 0h137v138H0z"/></clipPath></defs><g clip-path="url(#ea)"><path d="M133.767 113.667h-15.634V4.233A2.233 2.233 0 00115.9 2H4.233A2.233 2.233 0 002 4.233v120.6A11.18 11.18 0 0013.167 136h111.666A11.18 11.18 0 00136 124.833V115.9a2.233 2.233 0 00-2.233-2.233zm-113.9 2.233v8.933a6.7 6.7 0 11-13.4 0V6.467h107.2v107.2H22.1a2.233 2.233 0 00-2.233 2.233zm111.667 8.933a6.707 6.707 0 01-6.7 6.7H22.1a11.113 11.113 0 002.238-6.7v-6.7h107.2z" fill="#68bbaf"/><path d="M48.9 60.067A11.167 11.167 0 1060.067 48.9 11.18 11.18 0 0048.9 60.067zm17.867 0a6.7 6.7 0 11-6.7-6.7 6.707 6.707 0 016.7 6.7z" fill="#007b61"/><path d="M42.2 28.8h15.633v6.827c-.29.029-.564.05-.879.089a2.231 2.231 0 00-1.784 1.369l-1.635 3.982a20.4 20.4 0 00-2.286.942l-3.967-1.659a2.231 2.231 0 00-2.229.3 24.752 24.752 0 00-4.4 4.4 2.235 2.235 0 00-.3 2.23l1.66 3.966a20.4 20.4 0 00-.944 2.288l-3.986 1.633a2.237 2.237 0 00-1.367 1.785 22.523 22.523 0 000 6.222 2.237 2.237 0 001.367 1.793l3.985 1.635a20.451 20.451 0 00.942 2.287l-1.658 3.966a2.233 2.233 0 00.3 2.229 24.656 24.656 0 004.4 4.406 2.242 2.242 0 002.229.3l3.967-1.659a20.4 20.4 0 002.286.942l1.636 3.985a2.231 2.231 0 001.784 1.369c.313.04.588.059.879.088v6.828H42.2a2.233 2.233 0 00-2.233 2.224v11.167a2.233 2.233 0 002.233 2.233h35.733a2.233 2.233 0 002.233-2.233V93.567a2.233 2.233 0 00-2.233-2.233H62.3v-6.828c.291-.028.566-.048.879-.088a2.231 2.231 0 001.784-1.369l1.637-3.982a20.068 20.068 0 002.286-.942l3.967 1.659a2.243 2.243 0 002.229-.3 24.657 24.657 0 004.4-4.406 2.234 2.234 0 00.3-2.229l-1.66-3.966a20.292 20.292 0 00.944-2.287l3.984-1.629a2.237 2.237 0 001.367-1.785 22.522 22.522 0 000-6.222 2.237 2.237 0 00-1.367-1.793l-3.985-1.635a20.452 20.452 0 00-.942-2.287l1.658-3.966a2.233 2.233 0 00-.3-2.229 24.656 24.656 0 00-4.4-4.406 2.233 2.233 0 00-2.229-.3l-3.967 1.659a20.4 20.4 0 00-2.285-.936l-1.636-3.985a2.231 2.231 0 00-1.784-1.369c-.314-.04-.589-.06-.879-.089V28.8h15.632a2.233 2.233 0 002.234-2.233V15.4a2.233 2.233 0 00-2.234-2.233H42.2a2.233 2.233 0 00-2.233 2.233v11.167A2.233 2.233 0 0042.2 28.8zm33.5 73.7H44.433v-6.7H75.7zM64.322 45.036a15.707 15.707 0 013.367 1.389 2.245 2.245 0 001.952.112l3.69-1.543a20.514 20.514 0 011.808 1.809L73.6 50.492a2.241 2.241 0 00.111 1.952 15.525 15.525 0 011.389 3.369 2.229 2.229 0 001.3 1.454l3.719 1.526a16.156 16.156 0 010 2.54L76.4 62.867a2.229 2.229 0 00-1.3 1.458 15.6 15.6 0 01-1.389 3.365 2.241 2.241 0 00-.113 1.955l1.544 3.689a20.364 20.364 0 01-1.808 1.809l-3.69-1.543a2.242 2.242 0 00-1.954.113 15.568 15.568 0 01-3.365 1.388 2.227 2.227 0 00-1.457 1.3l-1.527 3.719a16.5 16.5 0 01-2.543 0l-1.527-3.719a2.227 2.227 0 00-1.457-1.3 15.707 15.707 0 01-3.367-1.389 2.241 2.241 0 00-1.952-.112L46.8 75.14a20.513 20.513 0 01-1.808-1.809l1.542-3.689a2.241 2.241 0 00-.111-1.952 15.524 15.524 0 01-1.389-3.369 2.229 2.229 0 00-1.3-1.458l-3.717-1.526a16.156 16.156 0 010-2.54l3.718-1.53a2.229 2.229 0 001.3-1.458 15.6 15.6 0 011.389-3.365 2.241 2.241 0 00.113-1.955l-1.544-3.69a20.5 20.5 0 011.807-1.805l3.69 1.543a2.245 2.245 0 001.952-.112 15.707 15.707 0 013.367-1.389 2.227 2.227 0 001.457-1.3l1.534-3.72a16.5 16.5 0 012.543 0l1.527 3.719a2.227 2.227 0 001.457 1.3zm-19.888-27.4H75.7v6.7H44.433z" fill="#68bbaf"/><path d="M85.988 42.581a31.268 31.268 0 01-3.812 39.594l3.158 3.158a35.653 35.653 0 003.264-46.721h4.633v-4.466h-9.476a2.233 2.233 0 00-2.233 2.233v9.473h4.467zM26.902 81.521v4.467h9.476a2.233 2.233 0 002.233-2.233v-9.476h-4.466v3.273a31.267 31.267 0 013.812-39.594L34.799 34.8a35.653 35.653 0 00-3.266 46.721z" fill="#007b61"/></g></svg><svg viewBox="0 0 164 106" id="SP-Logo" xmlns="http://www.w3.org/2000/svg"><defs><clipPath id="fa"><path d="M0 0h164v106H0z"/></clipPath></defs><g clip-path="url(#fa)"><path d="M7.051 65.323a1.317 1.317 0 001.3-1.3 1.209 1.209 0 00-.386-.9 1.272 1.272 0 00-.916-.372 1.271 1.271 0 00-1.274 1.27 1.268 1.268 0 00.372.916 1.209 1.209 0 00.9.386M4.074 65.323a1.249 1.249 0 00.918-.386 1.251 1.251 0 00.386-.916 1.21 1.21 0 00-.386-.9 1.274 1.274 0 00-.918-.372 1.231 1.231 0 00-.9.372 1.229 1.229 0 00-.371.9 1.272 1.272 0 00.371.916 1.209 1.209 0 00.9.386M14.785 77.549a1.317 1.317 0 00-1.3 1.3 1.209 1.209 0 00.386.9 1.272 1.272 0 00.918.372 1.271 1.271 0 001.276-1.275 1.276 1.276 0 00-.372-.918 1.212 1.212 0 00-.9-.386M6.652 72.925h-1.3a.716.716 0 01-.8-.823v-1.994a.973.973 0 01.214-.652.723.723 0 01.584-.253h1.3zm6.857-.877a.775.775 0 01-.877.877H9.177v-6.274h-3.8a3.3 3.3 0 00-2.311.825A3.3 3.3 0 002 70.055v1.992a3.456 3.456 0 00.8 2.334 3.312 3.312 0 002.63 1.091h7.256a3.357 3.357 0 002.314-.82 3.265 3.265 0 001.064-2.552v-5.448h-2.556zM11.806 77.549a1.314 1.314 0 00-1.3 1.3 1.21 1.21 0 00.384.9 1.272 1.272 0 00.918.372 1.271 1.271 0 001.275-1.275 1.276 1.276 0 00-.372-.918 1.209 1.209 0 00-.9-.386M21.536 66.651h-1.489v2.552h1.279a2.173 2.173 0 011.647.611 2.3 2.3 0 01.611 1.7 1.78 1.78 0 01-.253 1.088 1.041 1.041 0 01-.862.32h-3.937v2.559h4.147a3.38 3.38 0 002.5-.932 3.923 3.923 0 001.008-2.9 5.588 5.588 0 00-.876-3.242 4.246 4.246 0 00-3.775-1.754M42.584 71.596a8.286 8.286 0 00-1.7-1.541 2.114 2.114 0 011.7-1.01 1.954 1.954 0 011.674 1.01 8.014 8.014 0 00-1.674 1.541m-9.726 1.33h-1.276q-.8 0-.8-.877v-2.02a.717.717 0 01.8-.823h1.276zm35-.877a.764.764 0 01-.85.877h-2.1v-6.274l-2.552.521v5.752h-2.1v-6.273l-2.552.521v5.752H55.58v-6.273l-2.526.521v5.752h-8.131a9.217 9.217 0 012.206-2.1v-.214a3.744 3.744 0 00-1.276-2.869 4.7 4.7 0 00-3.268-1.222 4.836 4.836 0 00-2.923.93 3.626 3.626 0 00-1.621 3.083v.293a11.8 11.8 0 012.206 2.1h-4.838v-6.274h-3.748a3.38 3.38 0 00-2.418.877 3.325 3.325 0 00-1.037 2.526v2.046a3.3 3.3 0 003.455 3.375h1.222v.189a1.745 1.745 0 01-.983 1.593 5.394 5.394 0 01-2.79.611h-.239l1.621 2.26a5.628 5.628 0 003.747-1.249 4.3 4.3 0 001.169-3.3v-.105h5.715a2.539 2.539 0 001.462-.451 2.618 2.618 0 001.462.453h22.935a3.275 3.275 0 003.4-3.376v-9.036h-2.524zM90.129 65.323a1.209 1.209 0 00.9-.384 1.275 1.275 0 00.372-.918 1.271 1.271 0 00-1.276-1.275 1.272 1.272 0 00-.916.372 1.209 1.209 0 00-.386.9 1.314 1.314 0 001.3 1.3M87.153 65.323a1.209 1.209 0 00.9-.384 1.271 1.271 0 00.38-.918 1.273 1.273 0 00-1.275-1.275 1.271 1.271 0 00-.918.372 1.205 1.205 0 00-.386.9 1.314 1.314 0 001.3 1.3M93.451 71.967q0 .957-.825.958h-8c-.568 0-.85-.32-.85-.958v-3.694l-2.526 1.648v2.18a3.3 3.3 0 00.85 2.364 3.366 3.366 0 002.6 1.01h7.919a3.393 3.393 0 002.339-.824 3.254 3.254 0 001.037-2.552v-5.446H93.45zM106.473 72.102v-2.047a.863.863 0 01.226-.611.785.785 0 01.6-.239h3.856v-2.553h-3.778a3.5 3.5 0 00-2.364.825 3.255 3.255 0 00-1.091 2.579v2.046a1.825 1.825 0 00.133.823h-2.179a.751.751 0 01-.85-.85v-9.01H98.5v9.116a3.387 3.387 0 00.744 2.179 2.925 2.925 0 002.391 1.116h10.74v-2.552h-5.078a.728.728 0 01-.824-.822M127.814 65.323a1.209 1.209 0 00.9-.384 1.275 1.275 0 00.372-.918 1.271 1.271 0 00-1.276-1.275 1.272 1.272 0 00-.916.372 1.208 1.208 0 00-.386.9 1.314 1.314 0 001.3 1.3M128.877 71.967c0 .638-.282.958-.85.958h-1.25v-2.817q0-.9.8-.9h1.3zm-9.807.958h-1.276q-.8 0-.8-.877v-2.02a.717.717 0 01.8-.825h1.276zm6.086-5.316a3.365 3.365 0 00-.93 2.445v2.871h-2.6v-6.274h-3.752a3.378 3.378 0 00-2.418.879 3.322 3.322 0 00-1.037 2.524v2.047a3.3 3.3 0 003.455 3.373h1.222v.188a1.749 1.749 0 01-.982 1.595 5.4 5.4 0 01-2.792.61h-.239l1.621 2.26a5.632 5.632 0 003.749-1.246 4.293 4.293 0 001.169-3.3v-.107h6.4a3.332 3.332 0 002.339-.822 3.214 3.214 0 001.063-2.552v-5.448h-3.77a3.325 3.325 0 00-2.5.956M149.128 74.281q0 .9-1.063.9t-1.064-.9v-4.332q0-.9 1.064-.9t1.063.9zm5.476-2.233a.764.764 0 01-.85.877h-2.1v-2.976a3.345 3.345 0 00-.877-2.391 3.608 3.608 0 00-2.711-1.037 3.931 3.931 0 00-2.366.691 3.23 3.23 0 00-1.223 2.738v2.977h-2.923v-1.436a5.182 5.182 0 00-.983-3.216 4.241 4.241 0 00-3.614-1.621h-1.541v2.551h1.33q2.257 0 2.257 2.152v1.568h-5.1v2.551h10.736a3.037 3.037 0 001.223 1.62 3.916 3.916 0 002.206.611 3.855 3.855 0 002.179-.6 2.933 2.933 0 001.222-1.634h2.26a3.275 3.275 0 003.4-3.376v-9.032h-2.526zM159.386 63.065V76.64l2.765-1.163V63.065zM72.762 76.639l2.763-1.162V63.065h-2.763zM2.054 103.31l.4-2.458a8.161 8.161 0 003.285.721q1.844 0 1.843-1.362a1.151 1.151 0 00-.427-.922 7.424 7.424 0 00-1.71-.9 8.628 8.628 0 01-2.456-1.358A3.2 3.2 0 012 94.599a3.02 3.02 0 011.443-2.778 5.657 5.657 0 013.072-.72 7.342 7.342 0 013.232.695l-.453 2.4a7.078 7.078 0 00-2.859-.723q-1.711 0-1.71 1.1a.8.8 0 00.36.627 7.785 7.785 0 001.483.762 9.266 9.266 0 012.62 1.47 3.291 3.291 0 011.095 2.512 3.756 3.756 0 01-1.31 3.125 5.007 5.007 0 01-3.178.908 9.3 9.3 0 01-3.741-.668M16.775 99.222l1.256-4.381 1.255 4.381zm2.673-7.907h-2.834l-4.06 12.476h2.912l.695-2.324h3.737l.695 2.324h2.939zM33.552 99.303v-6.817l2.805-1.169v8.228a4.221 4.221 0 01-1.095 2.993 5.116 5.116 0 01-3.98 1.441 4.9 4.9 0 01-4.275-1.793 4.429 4.429 0 01-.8-2.645v-7.055l2.78-1.171v7.988a2.2 2.2 0 00.614 1.63 2.167 2.167 0 001.683.641 2.1 2.1 0 001.816-.8 2.338 2.338 0 00.454-1.47M47.994 99.062q0 2.164-2.27 2.163h-3.006V93.88h3.005q2.271 0 2.27 2.164zm1.577-6.118a4.266 4.266 0 00-3.634-1.63h-5.759v12.477h5.759a4.269 4.269 0 003.634-1.63 5.216 5.216 0 00.989-3.232v-2.752a5.216 5.216 0 00-.989-3.232M57.356 103.79h-2.778V92.485l2.778-1.169zM80.571 99.222l1.257-4.381 1.255 4.381zm2.673-7.907h-2.833l-4.061 12.476h2.912l.695-2.324h3.74l.695 2.324h2.939zM94.331 103.791h-2.754v-4.917l-3.87-7.559h2.966l2.27 4.968 2.3-4.968h2.934l-3.847 7.559zM114.02 103.791h-2.458v-9.645l-2.591 9.646h-2.97l-2.562-9.646v9.646h-2.458V91.315h4.089l2.431 9.858 2.724-9.858h3.794zM125.427 103.791h-7.559V91.315h7.961l-.4 2.324h-4.783v2.618h4.382l-.375 2.329h-4.007v2.886h5.183zM139.319 103.791h-2.351l-5.262-7.882v7.882h-2.512V91.315h2.351l5.263 7.88v-7.879h2.512zM148.43 103.791h-2.775V93.639h-3v-2.324h9l-.4 2.324h-2.832zM154.307 103.31l.4-2.458a8.177 8.177 0 003.286.721q1.844 0 1.843-1.362a1.151 1.151 0 00-.427-.922 7.365 7.365 0 00-1.71-.9 8.6 8.6 0 01-2.457-1.358 3.2 3.2 0 01-.989-2.432 3.02 3.02 0 011.443-2.778 5.657 5.657 0 013.072-.72 7.35 7.35 0 013.232.695l-.454 2.4a7.078 7.078 0 00-2.859-.723q-1.709 0-1.71 1.1a.8.8 0 00.361.627 7.8 7.8 0 001.482.762 9.265 9.265 0 012.62 1.47 3.29 3.29 0 011.095 2.512 3.752 3.752 0 01-1.31 3.125 5.007 5.007 0 01-3.178.908 9.29 9.29 0 01-3.74-.668M72.369 96.792a.72.72 0 01-.8.828h-3.02v-3.74h3.02a.725.725 0 01.587.254.985.985 0 01.214.654zm1.5-4.648a3.314 3.314 0 00-2.324-.829h-5.534v12.476h2.751v-3.605h2.723a3.341 3.341 0 002.649-1.1 3.489 3.489 0 00.8-2.351v-2a3.316 3.316 0 00-1.072-2.592" fill="#231f20"/><g><path d="M77.588 19.899h18.833v23.617H77.587v4.727h23.577v-33.07H77.587z" fill="#68bbaf"/></g><g><path d="M86.943 29.346H68.112V5.725h18.83V1H63.366v33.07h23.577z" fill="#007b61"/></g></g></svg><svg viewBox="0 0 38 47" id="SP-logo-mini" xmlns="http://www.w3.org/2000/svg"><defs><clipPath id="ga"><path d="M0 0h38v47H0z"/></clipPath></defs><g clip-path="url(#ga)"><path d="M14.588 18.899h18.833v23.617H14.587v4.727h23.577v-33.07H14.587z" fill="#68bbaf"/><path d="M23.943 28.346H5.112V4.725h18.83V0H.366v33.07h23.577z" fill="#007b61"/></g></svg><svg viewBox="0 0 50 49" id="Service-img" xmlns="http://www.w3.org/2000/svg"><defs><clipPath id="ha"><path d="M0 0h50v49H0z"/></clipPath></defs><g clip-path="url(#ha)"><path d="M43.998 26.923v-14.9a5.317 5.317 0 10-6.079-5.259H1.443v30.4h22.836a12.151 12.151 0 1019.719-10.241zm-.755-23.96a3.8 3.8 0 11-3.8 3.8 3.8 3.8 0 013.8-3.8zM2.963 8.282h35.18a5.316 5.316 0 00.841 1.66l-4.648 4.648a2.2 2.2 0 00-1.954 0l-1.531-1.531a2.258 2.258 0 00.228-.977 2.28 2.28 0 00-4.559 0 2.242 2.242 0 00.229.976l-3.811 3.811a2.258 2.258 0 00-.977-.228 2.28 2.28 0 102.28 2.28 2.242 2.242 0 00-.229-.976l3.811-3.811a2.2 2.2 0 001.954 0l1.531 1.531a2.258 2.258 0 00-.228.977 2.28 2.28 0 004.559 0 2.242 2.242 0 00-.229-.976l4.648-4.648a5.287 5.287 0 002.42 1v13.868a12.085 12.085 0 00-15.2 2.5V25h-4.557v9.119h1.742a12.19 12.19 0 00-.183 1.52H2.963zm30.4 7.6a.76.76 0 11-.76.76.761.761 0 01.756-.761zm-5.319-3.8a.76.76 0 11.76.76.761.761 0 01-.761-.76zm-5.319 6.839a.76.76 0 11-.76-.76.761.761 0 01.756.76zm13.674 23.557a6.079 6.079 0 116.079-6.079 6.086 6.086 0 01-6.079 6.079zM25.76 30.526a12.067 12.067 0 00-.9 2.074h-.617v-6.08h1.52zm9.883-4.727v3.044a7.583 7.583 0 00-6.162 10.679l-2.638 1.521a10.6 10.6 0 018.8-15.241zm.76 21.239a10.633 10.633 0 01-8.806-4.677l2.646-1.529a7.574 7.574 0 0012.318 0l2.647 1.528a10.633 10.633 0 01-8.809 4.678zm9.558-6l-2.636-1.522a7.583 7.583 0 00-6.166-10.673v-3.04a10.6 10.6 0 018.8 15.241z" fill="#51a79b"/><path d="M36.399 31.84a4.559 4.559 0 104.559 4.559 4.564 4.564 0 00-4.559-4.559zm0 7.6a3.04 3.04 0 113.04-3.04 3.043 3.043 0 01-3.04 3.04z" fill="#68bbaf"/><path d="M4.483 9.802h1.52v1.52h-1.52z" fill="#51a79b"/><path d="M7.522 9.802h10.639v1.52H7.522z" fill="#007b61"/><path d="M4.483 12.842h1.52v1.52h-1.52z" fill="#51a79b"/><path d="M7.522 12.842h10.639v1.52H7.522z" fill="#007b61"/><path d="M4.483 15.881h1.52v1.52h-1.52z" fill="#51a79b"/><path d="M7.522 15.881h10.639v1.52H7.522z" fill="#007b61"/><path d="M4.483 18.921h1.52v1.52h-1.52z" fill="#51a79b"/><path d="M7.522 18.921h10.639v1.52H7.522zM4.483 34.12h4.559v-7.6H4.483zm1.52-6.08h1.52v4.559h-1.52z" fill="#007b61"/><path d="M10.562 34.119h4.559V28.04h-4.559zm1.52-4.559h1.52v3.04h-1.52z" fill="#51a79b"/><path d="M16.641 34.12H21.2V21.961h-4.559zm1.52-10.639h1.52V32.6h-1.52z" fill="#007b61"/></g></svg><svg viewBox="0 0 50 49" id="Service-img-1" xmlns="http://www.w3.org/2000/svg"><defs><clipPath id="ia"><path d="M0 0h50v49H0z"/></clipPath></defs><g clip-path="url(#ia)"><path d="M49.184 47.367h-3.267V24.5a2.453 2.453 0 00-2.45-2.45v-4.9a2.453 2.453 0 00-2.45-2.45V9.8a2.453 2.453 0 00-2.45-2.45v-4.9A2.453 2.453 0 0036.117 0H14.884a2.453 2.453 0 00-2.45 2.45v4.9A2.453 2.453 0 009.983 9.8v4.9a2.453 2.453 0 00-2.45 2.45v4.9a2.453 2.453 0 00-2.45 2.45v22.867H1.817a.817.817 0 000 1.633h47.367a.817.817 0 000-1.633zM14.067 2.45a.817.817 0 01.817-.817h21.233a.817.817 0 01.817.817v4.9H24.6a4.083 4.083 0 00-8 0h-2.533v-4.9zm8.833 4.9h-4.6a2.435 2.435 0 014.6 0zM11.617 9.8a.817.817 0 01.817-.817h26.133a.817.817 0 01.817.817v4.9H22.151a4.083 4.083 0 00-8 0h-2.534V9.8zm8.833 4.9h-4.6a2.435 2.435 0 014.6 0zM9.167 17.15a.817.817 0 01.817-.817h31.033a.817.817 0 01.817.817v4.9H19.7a4.083 4.083 0 00-8 0H9.167zM18 22.05h-4.6a2.435 2.435 0 014.6 0zm26.284 25.317H6.717V24.5a.817.817 0 01.817-.817h35.933a.817.817 0 01.817.817v22.867z" fill="#51a79b"/><path d="M14.883 36.75a4.9 4.9 0 10-4.9-4.9 4.9 4.9 0 004.9 4.9zm0-8.167a3.267 3.267 0 11-3.267 3.267 3.267 3.267 0 013.267-3.267zM40.201 26.95h-17.15a.817.817 0 000 1.633h17.15a.817.817 0 000-1.633z" fill="#007b61"/><path d="M40.201 31.034h-17.15a.817.817 0 000 1.633h17.15a.817.817 0 000-1.633zM40.201 35.117h-17.15a.817.817 0 000 1.633h17.15a.817.817 0 000-1.633zM40.2 39.2H10.8a.817.817 0 100 1.633h29.4a.817.817 0 000-1.633zM40.2 43.284H10.8a.817.817 0 000 1.633h29.4a.817.817 0 000-1.633z" fill="#51a79b"/></g></svg><svg viewBox="0 0 50 49" id="Service-img-2" xmlns="http://www.w3.org/2000/svg"><defs><clipPath id="ja"><path d="M0 0h50v49H0z"/></clipPath></defs><g clip-path="url(#ja)"><path d="M33.151 0H6.917v48.56h38.039V11.805zm.474 2.763l8.568 8.568h-8.568zM8.536 46.942V1.619h23.47v11.33h11.331v33.993z" fill="#51a79b"/><path d="M36.053 16.996h-12.95a.81.81 0 000 1.619h12.95a.81.81 0 000-1.619z" fill="#51a79b"/><path d="M20.17 14.745l-3.481 2.785-1.106-1.106a.81.81 0 10-1.145 1.144l1.619 1.619a.809.809 0 001.077.06l4.047-3.237a.81.81 0 00-1.011-1.264z" fill="#007b61"/><path d="M36.053 25.899h-12.95a.81.81 0 100 1.619h12.95a.81.81 0 000-1.619z" fill="#51a79b"/><path d="M20.17 23.648l-3.481 2.785-1.106-1.106a.81.81 0 10-1.145 1.144l1.619 1.619a.809.809 0 001.077.06l4.047-3.237a.81.81 0 00-1.011-1.264z" fill="#007b61"/><path d="M36.053 34.802h-12.95a.81.81 0 000 1.619h12.95a.81.81 0 000-1.619z" fill="#51a79b"/><path d="M20.17 32.551l-3.481 2.785-1.106-1.106a.81.81 0 10-1.145 1.144l1.619 1.619a.809.809 0 001.077.06l4.047-3.237a.81.81 0 00-1.011-1.264z" fill="#007b61"/></g></svg><svg viewBox="0 0 50 49" id="Service-img-3" xmlns="http://www.w3.org/2000/svg"><defs><clipPath id="ka"><path d="M0 0h50v49H0z"/></clipPath></defs><g clip-path="url(#ka)"><path d="M48.643 22.813a.717.717 0 00-.707-.674h-8.164l1.325-3.021a.719.719 0 00.011-.542l-.681-1.743a7.294 7.294 0 001.094-.507l1.7 1.052a.712.712 0 00.9-.126l1.644-1.806a.71.71 0 00.035-.914l-1.221-1.568a7.194 7.194 0 00.37-1.03l1.95-.45a.709.709 0 00.549-.727l-.123-2.43a.71.71 0 00-.62-.668l-1.978-.251a7.192 7.192 0 00-.472-.988l1.052-1.687a.709.709 0 00-.127-.905l-1.818-1.631a.71.71 0 00-.906-.035L40.87 3.38a7.294 7.294 0 00-1.045-.37l-.451-1.928a.708.708 0 00-.727-.549l-2.448.124a.71.71 0 00-.668.618l-.254 1.968a7.288 7.288 0 00-1 .474l-1.7-1.052a.71.71 0 00-.9.126l-1.645 1.806a.709.709 0 00-.035.914l1.221 1.568a7.212 7.212 0 00-.3.8l-3.323-1.461a.71.71 0 00-.935.365l-2.821 6.434V2.195a.71.71 0 00-1.419 0v3.108a15.145 15.145 0 00-12.041 6.917.71.71 0 001.19.774A13.728 13.728 0 0122.42 6.723v30.042h-4.376a1.087 1.087 0 01-1.082-1.089v-2.433a.71.71 0 00-.373-.625 13.784 13.784 0 01-6.622-16.223.71.71 0 00-1.355-.423 15.2 15.2 0 006.931 17.688v2.016a2.512 2.512 0 001.792 2.4v3.361a3.941 3.941 0 003.937 3.937h1.148v2.51a.71.71 0 001.419 0V30.906l7.23 3.17-.163.927a6 6 0 00-.7.287l-1.274-.888a.709.709 0 00-.908.081l-1.4 1.4a.71.71 0 00-.08.908l.889 1.273a6 6 0 00-.286.7l-1.52.269a.71.71 0 00-.586.7l.008 1.99a.71.71 0 00.582.7l1.526.279a6.069 6.069 0 00.295.707l-.876 1.265a.71.71 0 00.082.906l1.413 1.412a.71.71 0 00.906.081l1.264-.878a6.076 6.076 0 00.708.294l.28 1.526a.71.71 0 00.7.581l1.99.006a.71.71 0 00.7-.587l.266-1.518a5.987 5.987 0 00.7-.287l1.274.888a.709.709 0 00.908-.081l1.4-1.4a.71.71 0 00.08-.908l-.89-1.276a5.994 5.994 0 00.286-.7l1.517-.268a.71.71 0 00.586-.7l-.008-1.99a.71.71 0 00-.582-.7l-1.435-.262c2.031-.009 4.093-.009 6.1-.009a.724.724 0 00.651-.211l2.982-3.171a.71.71 0 00.193-.486V22.849v-.035zm-2.348.745l-1.617 1.719h-10.18l1.617-1.719zm-8.007-12.225a.723.723 0 00-.376-.392L35.219 9.76a2.693 2.693 0 113.544 2.79zm-.7 2.107l.766 1.967.811 2.081-2.816-1.244zM32.61 6.555L31.484 5.11l.845-.928 1.57.971a.71.71 0 00.762-.01 5.873 5.873 0 011.474-.7.71.71 0 00.493-.587l.234-1.815 1.264-.064.416 1.782a.71.71 0 00.55.534 5.871 5.871 0 011.537.544.71.71 0 00.759-.067l1.464-1.124.934.838-.974 1.551a.71.71 0 00.01.77 5.781 5.781 0 01.7 1.46.71.71 0 00.588.491l1.831.232.063 1.243-1.8.415a.709.709 0 00-.535.547 5.773 5.773 0 01-.548 1.523.71.71 0 00.068.767l1.125 1.445-.845.928-1.57-.971a.71.71 0 00-.762.01 5.876 5.876 0 01-1.223.611l-.638-1.637a4.093 4.093 0 10-5.4-4.7l-1.649-.72a5.8 5.8 0 01.451-1.127.709.709 0 00-.068-.767zm-11.338 37.4a2.52 2.52 0 01-2.517-2.517v-3.254h3.666v5.776zm2.567-27.208l3.836-8.744 9.015 3.953-1.928 4.366a.71.71 0 00.362.936l4.389 1.939-1.29 2.943h-2.415a.709.709 0 00-.517.223l-2.982 3.17a1.3 1.3 0 00-.2.794v6.571h-.186l-8.079-3.542zm15.488 24.424l-1.36.24a.71.71 0 00-.564.524 4.573 4.573 0 01-.486 1.186.71.71 0 00.03.765l.8 1.143-.561.562-1.143-.8a.71.71 0 00-.765-.03 4.574 4.574 0 01-1.186.488.709.709 0 00-.523.565l-.242 1.364h-.8l-.252-1.372a.71.71 0 00-.519-.558 4.66 4.66 0 01-1.193-.5.71.71 0 00-.766.028l-1.135.788-.574-.574.787-1.135a.71.71 0 00.027-.766 4.664 4.664 0 01-.5-1.192.71.71 0 00-.559-.518l-1.374-.246v-.8l1.36-.24a.71.71 0 00.564-.524 4.573 4.573 0 01.486-1.186.71.71 0 00-.03-.765l-.8-1.143.561-.562 1.143.8a.709.709 0 00.765.03 4.579 4.579 0 011.186-.488.709.709 0 00.523-.565l.239-1.361h.8l.252 1.372a.71.71 0 00.519.558 4.657 4.657 0 011.193.5.709.709 0 00.766-.028l1.135-.788.574.574-.787 1.135a.71.71 0 00-.027.766 4.664 4.664 0 01.5 1.192.71.71 0 00.559.518l1.372.251zm6.34-4.854v-2.425a.71.71 0 00-1.419 0v3.495c-1.791 0-3.62 0-5.427.009l.395-.569a.71.71 0 00-.082-.906l-1.413-1.412a.71.71 0 00-.906-.081l-1.264.878a6.076 6.076 0 00-.708-.294l-.28-1.526a.844.844 0 00-1.027-.583c-.012-.788.074-4.909 0-6.174h10.712v3.458a.71.71 0 001.419 0v-3.889l1.561-1.66v10.02z" fill="#51a79b"/><path d="M32.893 37.525h-.01a3.2 3.2 0 00-3.2 3.213 3.24 3.24 0 003.226 3.223h.01a3.2 3.2 0 003.2-3.213 3.24 3.24 0 00-3.226-3.223zm1.287 4.5a1.755 1.755 0 01-1.266.521 1.821 1.821 0 01-1.811-1.81 1.777 1.777 0 011.786-1.788 1.821 1.821 0 011.811 1.81 1.769 1.769 0 01-.521 1.263z" fill="#51a79b"/><path d="M10.623 8.701a.727.727 0 00.5-1.211l-2.42-2.42a.71.71 0 00-1 1l2.419 2.42a.707.707 0 00.501.211zM5.532 19.88H2.11a.71.71 0 000 1.419h3.422a.71.71 0 000-1.419zM10.337 32.596l-2.419 2.42a.71.71 0 001 1l2.419-2.42a.71.71 0 00-1-1z" fill="#007b61"/></g></svg><svg viewBox="0 0 50 49" id="Service-img-4" xmlns="http://www.w3.org/2000/svg"><defs><clipPath id="la"><path d="M0 0h50v49H0z"/></clipPath></defs><g clip-path="url(#la)"><path d="M22.892 34.497a.933.933 0 10.274.66.936.936 0 00-.274-.66z" fill="#51a79b"/><path d="M42.685 26.194a.934.934 0 00-.934.934v4.107H25.688V28.93a6.979 6.979 0 00-6.108-6.913 4.855 4.855 0 001.088-3.066v-6.57a.934.934 0 00-.934-.934h-4.888a3.942 3.942 0 00-3.937 3.937v3.567a4.855 4.855 0 001.088 3.066 6.979 6.979 0 00-6.108 6.915v2.305H2.714V8.799a.727.727 0 01.729-.724h19.412a.934.934 0 000-1.868H3.446a2.6 2.6 0 00-2.6 2.592v27.689a2.6 2.6 0 002.6 2.592h14.208v4.314a4.682 4.682 0 00-4.2 4.651.934.934 0 00.934.934h15.69a.934.934 0 00.934-.934 4.682 4.682 0 00-4.2-4.651V39.08h14.21a2.6 2.6 0 002.6-2.592v-9.36a.934.934 0 00-.937-.934zM12.777 15.383a2.072 2.072 0 012.069-2.066h3.952v1.491a1.345 1.345 0 01-1.344 1.343h-4.677zm0 2.633h4.679a3.19 3.19 0 001.344-.3v1.229a3.011 3.011 0 01-6.022 0zm4.1 5.812l-1.09 1.09-1.09-1.09zm-9.121 5.1a5.11 5.11 0 014.355-5.047l3.016 3.016a.934.934 0 001.321 0l3.016-3.016a5.11 5.11 0 014.356 5.047v2.305H7.757zm21.227 18.184h-13.5a2.812 2.812 0 012.648-1.874h8.205a2.812 2.812 0 012.647 1.874zm-9.461-3.741v-4.29h5.424v4.29zm22.224-6.883a.727.727 0 01-.729.724H3.446a.727.727 0 01-.729-.724v-3.385h39.029zM43.345 22.951a.933.933 0 10.274.66.941.941 0 00-.274-.66z" fill="#51a79b"/><path d="M42.685 5.555h-7a.934.934 0 100 1.868h7a.934.934 0 000-1.868zM32.512 5.829a.933.933 0 10.274.66.941.941 0 00-.274-.66zM42.685 9.664H31.852a.934.934 0 100 1.868h10.833a.934.934 0 000-1.868zM42.685 13.774H31.852a.934.934 0 100 1.868h10.833a.934.934 0 000-1.868z" fill="#007b61"/><path d="M43.992 1.166H30.543a4.675 4.675 0 00-4.669 4.669v9.993a4.676 4.676 0 004.14 4.64v2.427a.934.934 0 001.594.66l3.057-3.057h9.326a4.675 4.675 0 004.669-4.669V5.835a4.675 4.675 0 00-4.668-4.669zm2.8 14.662a2.8 2.8 0 01-2.8 2.8h-9.713a.934.934 0 00-.66.274l-1.737 1.737v-1.075a.934.934 0 00-.934-.934h-.4a2.8 2.8 0 01-2.8-2.8V5.835a2.8 2.8 0 012.8-2.8h13.448a2.8 2.8 0 012.8 2.8z" fill="#51a79b"/></g></svg><svg viewBox="0 0 50 49" id="Service-img-5" xmlns="http://www.w3.org/2000/svg"><defs><clipPath id="ma"><path d="M0 0h50v49H0z"/></clipPath></defs><g clip-path="url(#ma)"><path d="M42.633 35.845a.722.722 0 00.722-.722V1.982a2.168 2.168 0 00-2.163-2.166H8.812a2.168 2.168 0 00-2.166 2.166v3.777a3.211 3.211 0 000 6.3v1.447a3.211 3.211 0 000 6.3v1.447a3.211 3.211 0 000 6.3v1.453a3.211 3.211 0 000 6.3v1.447a3.211 3.211 0 000 6.3v3.778a2.168 2.168 0 002.166 2.166h32.38a2.168 2.168 0 002.166-2.166v-8.82a.722.722 0 00-1.444 0v8.824a.723.723 0 01-.722.722H8.812a.723.723 0 01-.722-.722v-8.491a1.769 1.769 0 01.943 1.562.722.722 0 001.444 0 3.217 3.217 0 00-2.386-3.1v-6.211a1.769 1.769 0 01.942 1.562.722.722 0 001.444 0 3.217 3.217 0 00-2.386-3.1v-6.211a1.769 1.769 0 01.942 1.562.722.722 0 101.444 0 3.217 3.217 0 00-2.386-3.1v-6.211a1.769 1.769 0 01.942 1.562.722.722 0 001.444 0 3.217 3.217 0 00-2.386-3.1v-6.21a1.769 1.769 0 01.942 1.561.722.722 0 001.444 0 3.217 3.217 0 00-2.386-3.1V1.982a.723.723 0 01.722-.722h32.379a.723.723 0 01.722.722v33.141a.722.722 0 00.719.722zM5.497 8.91a1.769 1.769 0 011.149-1.654v3.308A1.769 1.769 0 015.497 8.91zm0 7.749a1.769 1.769 0 011.149-1.654v3.311a1.769 1.769 0 01-1.149-1.657zm0 7.749a1.769 1.769 0 011.149-1.654v3.308a1.769 1.769 0 01-1.149-1.654zm0 7.749a1.769 1.769 0 011.149-1.654v3.308a1.769 1.769 0 01-1.149-1.654zm0 7.749a1.769 1.769 0 011.149-1.654v3.308a1.769 1.769 0 01-1.149-1.654z" fill="#51a79b"/><path d="M27.829 5.246a.722.722 0 00-.722.722v3.115a.722.722 0 001.444 0v-2.36a8.411 8.411 0 017.647 7.64h-7.643V11.97a.722.722 0 00-1.444 0v3.115a.722.722 0 00.722.722h9.117a.722.722 0 00.722-.722 9.85 9.85 0 00-9.843-9.839z" fill="#007b61"/><path d="M24.846 8.835a9.131 9.131 0 00-9.12 9.12.722.722 0 101.444 0 7.687 7.687 0 016.955-7.643v7.643a.771.771 0 00.047.255l2.7 7.147a7.674 7.674 0 01-9.254-4.8.722.722 0 10-1.358.489 9.123 9.123 0 0011.773 5.456l.039-.013.037-.016a9.135 9.135 0 005.856-8.516.722.722 0 00-.722-.722h-7.676V9.557a.722.722 0 00-.722-.722zm3.378 16.011l-2.333-6.169h6.6a7.691 7.691 0 01-4.265 6.169z" fill="#51a79b"/><path d="M36.946 31.435H15.439a.722.722 0 100 1.444h21.508a.722.722 0 000-1.444z" fill="#007b61"/><path d="M37.668 36.567a.722.722 0 00-.722-.722H15.439a.722.722 0 100 1.444h21.508a.722.722 0 00.721-.722zM15.439 40.255a.722.722 0 100 1.444h15.314a.722.722 0 100-1.444z" fill="#51a79b"/></g></svg><svg viewBox="0 0 37.798 47.243" id="logo-header" xmlns="http://www.w3.org/2000/svg"><path d="M14.222 18.899h18.833v23.617H14.221v4.727h23.577v-33.07H14.221z" fill="#68bbaf"/><path d="M23.577 28.346H4.746V4.725h18.83V0H0v33.07h23.577z" fill="#007b61"/></svg></svg>