<?xml version="1.0" encoding="utf-8"?><svg xmlns="http://www.w3.org/2000/svg" width="21" height="19" viewBox="0 0 21 19"><defs><clipPath id="ba"><path d="M0 0h21v19H0z"/></clipPath></defs><g clip-path="url(#ba)"><path d="M15.329 19h-9.5a.731.731 0 110-1.462h9.5a.731.731 0 110 1.462z" fill="#ce3f3f"/><path d="M16.06 18.306h-.037a.73.73 0 01-.694-.768l.7-13.921a.731.731 0 011.46.073l-.7 13.921a.73.73 0 01-.729.695z" fill="#ce3f3f"/><path d="M15.329 19a.731.731 0 110-1.462.73.73 0 111.459.073A1.46 1.46 0 0115.329 19zM5.099 18.306a.731.731 0 01-.729-.694l-.7-13.921a.731.731 0 011.46-.073l.7 13.922a.731.731 0 01-.693.767H5.1z" fill="#ce3f3f"/><path d="M5.829 19a1.46 1.46 0 01-1.463-1.389.731.731 0 011.46-.073.731.731 0 110 1.461zM13.502 4.385a.731.731 0 01-.731-.731V1.462a.731.731 0 011.462 0v2.192a.731.731 0 01-.731.731zM7.655 4.385a.731.731 0 01-.731-.731V1.462a.731.731 0 011.462 0v2.192a.731.731 0 01-.731.731z" fill="#ce3f3f"/><path d="M17.887 4.385H3.27a.731.731 0 110-1.462h14.617a.731.731 0 110 1.462zM7.654 2.192a.731.731 0 01-.73-.73A1.463 1.463 0 018.386.003a.731.731 0 110 1.462.73.73 0 01-.732.727z" fill="#ce3f3f"/><path d="M12.77 1.462H8.386a.731.731 0 110-1.462h4.385a.731.731 0 110 1.462z" fill="#ce3f3f"/><path d="M13.502 2.192a.731.731 0 01-.731-.731.73.73 0 110-1.461 1.463 1.463 0 011.462 1.462.731.731 0 01-.731.73z" fill="#ce3f3f"/></g></svg>