<?xml version="1.0" encoding="utf-8"?><svg xmlns="http://www.w3.org/2000/svg" width="18" height="19" viewBox="0 0 18 19"><defs><clipPath id="ca"><path d="M0 0h18v19H0z"/></clipPath></defs><g data-name="download (1)" clip-path="url(#ca)"><g data-name="Group 264"><g data-name="Group 263"><path data-name="Path 255" d="M13.769 8.535a.6.6 0 00-.547-.352h-2.4V.369a.6.6 0 00-.6-.6h-2.4a.6.6 0 00-.6.6v7.814h-2.4a.6.6 0 00-.452 1l4.207 4.808a.6.6 0 00.9 0l4.207-4.808a.6.6 0 00.085-.648z" fill="#0a7cbe"/></g></g><g data-name="Group 266"><g data-name="Group 265"><path data-name="Path 256" d="M15.626 12.991v3.606H2.4v-3.606H0v4.808a1.2 1.2 0 001.2 1.2h15.628a1.2 1.2 0 001.2-1.2v-4.808z" fill="#0a7cbe"/></g></g></g></svg>