<?xml version="1.0" encoding="utf-8"?><svg xmlns="http://www.w3.org/2000/svg" width="21" height="19" viewBox="0 0 21 19"><defs><clipPath id="da"><path d="M0 0h21v19H0z"/></clipPath></defs><g clip-path="url(#da)"><path d="M17.923.729A2.46 2.46 0 0016.148 0a2.5 2.5 0 00-1.777.729L.86 14.261a.466.466 0 00-.114.205l-.957 3.873a.434.434 0 00.114.433.45.45 0 00.319.137.205.205 0 00.114-.023l3.873-.957a.441.441 0 00.205-.114L17.923 4.26a2.489 2.489 0 000-3.531zM1.816 14.58l10.32-10.32 2.255 2.255L4.072 16.836zM12.774 3.622l.957-.957 2.255 2.255-.957.957zM1.429 15.469l1.754 1.754-2.347.592zM17.285 3.622l-.638.638L14.392 2l.638-.638a1.6 1.6 0 011.139-.456 1.548 1.548 0 011.116.456 1.609 1.609 0 010 2.26zm2.848 14.922a.457.457 0 01-.456.456H6.92a.456.456 0 110-.911h12.757a.443.443 0 01.456.455z" fill="#d9ab2a"/></g></svg>