<?xml version="1.0" encoding="utf-8"?><svg xmlns="http://www.w3.org/2000/svg" width="137" height="138" viewBox="0 0 137 138"><defs><clipPath id="ea"><path d="M0 0h137v138H0z"/></clipPath></defs><g clip-path="url(#ea)"><path d="M133.767 113.667h-15.634V4.233A2.233 2.233 0 00115.9 2H4.233A2.233 2.233 0 002 4.233v120.6A11.18 11.18 0 0013.167 136h111.666A11.18 11.18 0 00136 124.833V115.9a2.233 2.233 0 00-2.233-2.233zm-113.9 2.233v8.933a6.7 6.7 0 11-13.4 0V6.467h107.2v107.2H22.1a2.233 2.233 0 00-2.233 2.233zm111.667 8.933a6.707 6.707 0 01-6.7 6.7H22.1a11.113 11.113 0 002.238-6.7v-6.7h107.2z" fill="#68bbaf"/><path d="M48.9 60.067A11.167 11.167 0 1060.067 48.9 11.18 11.18 0 0048.9 60.067zm17.867 0a6.7 6.7 0 11-6.7-6.7 6.707 6.707 0 016.7 6.7z" fill="#007b61"/><path d="M42.2 28.8h15.633v6.827c-.29.029-.564.05-.879.089a2.231 2.231 0 00-1.784 1.369l-1.635 3.982a20.4 20.4 0 00-2.286.942l-3.967-1.659a2.231 2.231 0 00-2.229.3 24.752 24.752 0 00-4.4 4.4 2.235 2.235 0 00-.3 2.23l1.66 3.966a20.4 20.4 0 00-.944 2.288l-3.986 1.633a2.237 2.237 0 00-1.367 1.785 22.523 22.523 0 000 6.222 2.237 2.237 0 001.367 1.793l3.985 1.635a20.451 20.451 0 00.942 2.287l-1.658 3.966a2.233 2.233 0 00.3 2.229 24.656 24.656 0 004.4 4.406 2.242 2.242 0 002.229.3l3.967-1.659a20.4 20.4 0 002.286.942l1.636 3.985a2.231 2.231 0 001.784 1.369c.313.04.588.059.879.088v6.828H42.2a2.233 2.233 0 00-2.233 2.224v11.167a2.233 2.233 0 002.233 2.233h35.733a2.233 2.233 0 002.233-2.233V93.567a2.233 2.233 0 00-2.233-2.233H62.3v-6.828c.291-.028.566-.048.879-.088a2.231 2.231 0 001.784-1.369l1.637-3.982a20.068 20.068 0 002.286-.942l3.967 1.659a2.243 2.243 0 002.229-.3 24.657 24.657 0 004.4-4.406 2.234 2.234 0 00.3-2.229l-1.66-3.966a20.292 20.292 0 00.944-2.287l3.984-1.629a2.237 2.237 0 001.367-1.785 22.522 22.522 0 000-6.222 2.237 2.237 0 00-1.367-1.793l-3.985-1.635a20.452 20.452 0 00-.942-2.287l1.658-3.966a2.233 2.233 0 00-.3-2.229 24.656 24.656 0 00-4.4-4.406 2.233 2.233 0 00-2.229-.3l-3.967 1.659a20.4 20.4 0 00-2.285-.936l-1.636-3.985a2.231 2.231 0 00-1.784-1.369c-.314-.04-.589-.06-.879-.089V28.8h15.632a2.233 2.233 0 002.234-2.233V15.4a2.233 2.233 0 00-2.234-2.233H42.2a2.233 2.233 0 00-2.233 2.233v11.167A2.233 2.233 0 0042.2 28.8zm33.5 73.7H44.433v-6.7H75.7zM64.322 45.036a15.707 15.707 0 013.367 1.389 2.245 2.245 0 001.952.112l3.69-1.543a20.514 20.514 0 011.808 1.809L73.6 50.492a2.241 2.241 0 00.111 1.952 15.525 15.525 0 011.389 3.369 2.229 2.229 0 001.3 1.454l3.719 1.526a16.156 16.156 0 010 2.54L76.4 62.867a2.229 2.229 0 00-1.3 1.458 15.6 15.6 0 01-1.389 3.365 2.241 2.241 0 00-.113 1.955l1.544 3.689a20.364 20.364 0 01-1.808 1.809l-3.69-1.543a2.242 2.242 0 00-1.954.113 15.568 15.568 0 01-3.365 1.388 2.227 2.227 0 00-1.457 1.3l-1.527 3.719a16.5 16.5 0 01-2.543 0l-1.527-3.719a2.227 2.227 0 00-1.457-1.3 15.707 15.707 0 01-3.367-1.389 2.241 2.241 0 00-1.952-.112L46.8 75.14a20.513 20.513 0 01-1.808-1.809l1.542-3.689a2.241 2.241 0 00-.111-1.952 15.524 15.524 0 01-1.389-3.369 2.229 2.229 0 00-1.3-1.458l-3.717-1.526a16.156 16.156 0 010-2.54l3.718-1.53a2.229 2.229 0 001.3-1.458 15.6 15.6 0 011.389-3.365 2.241 2.241 0 00.113-1.955l-1.544-3.69a20.5 20.5 0 011.807-1.805l3.69 1.543a2.245 2.245 0 001.952-.112 15.707 15.707 0 013.367-1.389 2.227 2.227 0 001.457-1.3l1.534-3.72a16.5 16.5 0 012.543 0l1.527 3.719a2.227 2.227 0 001.457 1.3zm-19.888-27.4H75.7v6.7H44.433z" fill="#68bbaf"/><path d="M85.988 42.581a31.268 31.268 0 01-3.812 39.594l3.158 3.158a35.653 35.653 0 003.264-46.721h4.633v-4.466h-9.476a2.233 2.233 0 00-2.233 2.233v9.473h4.467zM26.902 81.521v4.467h9.476a2.233 2.233 0 002.233-2.233v-9.476h-4.466v3.273a31.267 31.267 0 013.812-39.594L34.799 34.8a35.653 35.653 0 00-3.266 46.721z" fill="#007b61"/></g></svg>