<?xml version="1.0" encoding="utf-8"?><svg xmlns="http://www.w3.org/2000/svg" width="50" height="49" viewBox="0 0 50 49"><defs><clipPath id="la"><path d="M0 0h50v49H0z"/></clipPath></defs><g clip-path="url(#la)"><path d="M22.892 34.497a.933.933 0 10.274.66.936.936 0 00-.274-.66z" fill="#51a79b"/><path d="M42.685 26.194a.934.934 0 00-.934.934v4.107H25.688V28.93a6.979 6.979 0 00-6.108-6.913 4.855 4.855 0 001.088-3.066v-6.57a.934.934 0 00-.934-.934h-4.888a3.942 3.942 0 00-3.937 3.937v3.567a4.855 4.855 0 001.088 3.066 6.979 6.979 0 00-6.108 6.915v2.305H2.714V8.799a.727.727 0 01.729-.724h19.412a.934.934 0 000-1.868H3.446a2.6 2.6 0 00-2.6 2.592v27.689a2.6 2.6 0 002.6 2.592h14.208v4.314a4.682 4.682 0 00-4.2 4.651.934.934 0 00.934.934h15.69a.934.934 0 00.934-.934 4.682 4.682 0 00-4.2-4.651V39.08h14.21a2.6 2.6 0 002.6-2.592v-9.36a.934.934 0 00-.937-.934zM12.777 15.383a2.072 2.072 0 012.069-2.066h3.952v1.491a1.345 1.345 0 01-1.344 1.343h-4.677zm0 2.633h4.679a3.19 3.19 0 001.344-.3v1.229a3.011 3.011 0 01-6.022 0zm4.1 5.812l-1.09 1.09-1.09-1.09zm-9.121 5.1a5.11 5.11 0 014.355-5.047l3.016 3.016a.934.934 0 001.321 0l3.016-3.016a5.11 5.11 0 014.356 5.047v2.305H7.757zm21.227 18.184h-13.5a2.812 2.812 0 012.648-1.874h8.205a2.812 2.812 0 012.647 1.874zm-9.461-3.741v-4.29h5.424v4.29zm22.224-6.883a.727.727 0 01-.729.724H3.446a.727.727 0 01-.729-.724v-3.385h39.029zM43.345 22.951a.933.933 0 10.274.66.941.941 0 00-.274-.66z" fill="#51a79b"/><path d="M42.685 5.555h-7a.934.934 0 100 1.868h7a.934.934 0 000-1.868zM32.512 5.829a.933.933 0 10.274.66.941.941 0 00-.274-.66zM42.685 9.664H31.852a.934.934 0 100 1.868h10.833a.934.934 0 000-1.868zM42.685 13.774H31.852a.934.934 0 100 1.868h10.833a.934.934 0 000-1.868z" fill="#007b61"/><path d="M43.992 1.166H30.543a4.675 4.675 0 00-4.669 4.669v9.993a4.676 4.676 0 004.14 4.64v2.427a.934.934 0 001.594.66l3.057-3.057h9.326a4.675 4.675 0 004.669-4.669V5.835a4.675 4.675 0 00-4.668-4.669zm2.8 14.662a2.8 2.8 0 01-2.8 2.8h-9.713a.934.934 0 00-.66.274l-1.737 1.737v-1.075a.934.934 0 00-.934-.934h-.4a2.8 2.8 0 01-2.8-2.8V5.835a2.8 2.8 0 012.8-2.8h13.448a2.8 2.8 0 012.8 2.8z" fill="#51a79b"/></g></svg>