<?xml version="1.0" encoding="utf-8"?><svg xmlns="http://www.w3.org/2000/svg" width="50" height="49" viewBox="0 0 50 49"><defs><clipPath id="ja"><path d="M0 0h50v49H0z"/></clipPath></defs><g clip-path="url(#ja)"><path d="M33.151 0H6.917v48.56h38.039V11.805zm.474 2.763l8.568 8.568h-8.568zM8.536 46.942V1.619h23.47v11.33h11.331v33.993z" fill="#51a79b"/><path d="M36.053 16.996h-12.95a.81.81 0 000 1.619h12.95a.81.81 0 000-1.619z" fill="#51a79b"/><path d="M20.17 14.745l-3.481 2.785-1.106-1.106a.81.81 0 10-1.145 1.144l1.619 1.619a.809.809 0 001.077.06l4.047-3.237a.81.81 0 00-1.011-1.264z" fill="#007b61"/><path d="M36.053 25.899h-12.95a.81.81 0 100 1.619h12.95a.81.81 0 000-1.619z" fill="#51a79b"/><path d="M20.17 23.648l-3.481 2.785-1.106-1.106a.81.81 0 10-1.145 1.144l1.619 1.619a.809.809 0 001.077.06l4.047-3.237a.81.81 0 00-1.011-1.264z" fill="#007b61"/><path d="M36.053 34.802h-12.95a.81.81 0 000 1.619h12.95a.81.81 0 000-1.619z" fill="#51a79b"/><path d="M20.17 32.551l-3.481 2.785-1.106-1.106a.81.81 0 10-1.145 1.144l1.619 1.619a.809.809 0 001.077.06l4.047-3.237a.81.81 0 00-1.011-1.264z" fill="#007b61"/></g></svg>