<?xml version="1.0" encoding="utf-8"?><svg xmlns="http://www.w3.org/2000/svg" width="50" height="49" viewBox="0 0 50 49"><defs><clipPath id="ka"><path d="M0 0h50v49H0z"/></clipPath></defs><g clip-path="url(#ka)"><path d="M48.643 22.813a.717.717 0 00-.707-.674h-8.164l1.325-3.021a.719.719 0 00.011-.542l-.681-1.743a7.294 7.294 0 001.094-.507l1.7 1.052a.712.712 0 00.9-.126l1.644-1.806a.71.71 0 00.035-.914l-1.221-1.568a7.194 7.194 0 00.37-1.03l1.95-.45a.709.709 0 00.549-.727l-.123-2.43a.71.71 0 00-.62-.668l-1.978-.251a7.192 7.192 0 00-.472-.988l1.052-1.687a.709.709 0 00-.127-.905l-1.818-1.631a.71.71 0 00-.906-.035L40.87 3.38a7.294 7.294 0 00-1.045-.37l-.451-1.928a.708.708 0 00-.727-.549l-2.448.124a.71.71 0 00-.668.618l-.254 1.968a7.288 7.288 0 00-1 .474l-1.7-1.052a.71.71 0 00-.9.126l-1.645 1.806a.709.709 0 00-.035.914l1.221 1.568a7.212 7.212 0 00-.3.8l-3.323-1.461a.71.71 0 00-.935.365l-2.821 6.434V2.195a.71.71 0 00-1.419 0v3.108a15.145 15.145 0 00-12.041 6.917.71.71 0 001.19.774A13.728 13.728 0 0122.42 6.723v30.042h-4.376a1.087 1.087 0 01-1.082-1.089v-2.433a.71.71 0 00-.373-.625 13.784 13.784 0 01-6.622-16.223.71.71 0 00-1.355-.423 15.2 15.2 0 006.931 17.688v2.016a2.512 2.512 0 001.792 2.4v3.361a3.941 3.941 0 003.937 3.937h1.148v2.51a.71.71 0 001.419 0V30.906l7.23 3.17-.163.927a6 6 0 00-.7.287l-1.274-.888a.709.709 0 00-.908.081l-1.4 1.4a.71.71 0 00-.08.908l.889 1.273a6 6 0 00-.286.7l-1.52.269a.71.71 0 00-.586.7l.008 1.99a.71.71 0 00.582.7l1.526.279a6.069 6.069 0 00.295.707l-.876 1.265a.71.71 0 00.082.906l1.413 1.412a.71.71 0 00.906.081l1.264-.878a6.076 6.076 0 00.708.294l.28 1.526a.71.71 0 00.7.581l1.99.006a.71.71 0 00.7-.587l.266-1.518a5.987 5.987 0 00.7-.287l1.274.888a.709.709 0 00.908-.081l1.4-1.4a.71.71 0 00.08-.908l-.89-1.276a5.994 5.994 0 00.286-.7l1.517-.268a.71.71 0 00.586-.7l-.008-1.99a.71.71 0 00-.582-.7l-1.435-.262c2.031-.009 4.093-.009 6.1-.009a.724.724 0 00.651-.211l2.982-3.171a.71.71 0 00.193-.486V22.849v-.035zm-2.348.745l-1.617 1.719h-10.18l1.617-1.719zm-8.007-12.225a.723.723 0 00-.376-.392L35.219 9.76a2.693 2.693 0 113.544 2.79zm-.7 2.107l.766 1.967.811 2.081-2.816-1.244zM32.61 6.555L31.484 5.11l.845-.928 1.57.971a.71.71 0 00.762-.01 5.873 5.873 0 011.474-.7.71.71 0 00.493-.587l.234-1.815 1.264-.064.416 1.782a.71.71 0 00.55.534 5.871 5.871 0 011.537.544.71.71 0 00.759-.067l1.464-1.124.934.838-.974 1.551a.71.71 0 00.01.77 5.781 5.781 0 01.7 1.46.71.71 0 00.588.491l1.831.232.063 1.243-1.8.415a.709.709 0 00-.535.547 5.773 5.773 0 01-.548 1.523.71.71 0 00.068.767l1.125 1.445-.845.928-1.57-.971a.71.71 0 00-.762.01 5.876 5.876 0 01-1.223.611l-.638-1.637a4.093 4.093 0 10-5.4-4.7l-1.649-.72a5.8 5.8 0 01.451-1.127.709.709 0 00-.068-.767zm-11.338 37.4a2.52 2.52 0 01-2.517-2.517v-3.254h3.666v5.776zm2.567-27.208l3.836-8.744 9.015 3.953-1.928 4.366a.71.71 0 00.362.936l4.389 1.939-1.29 2.943h-2.415a.709.709 0 00-.517.223l-2.982 3.17a1.3 1.3 0 00-.2.794v6.571h-.186l-8.079-3.542zm15.488 24.424l-1.36.24a.71.71 0 00-.564.524 4.573 4.573 0 01-.486 1.186.71.71 0 00.03.765l.8 1.143-.561.562-1.143-.8a.71.71 0 00-.765-.03 4.574 4.574 0 01-1.186.488.709.709 0 00-.523.565l-.242 1.364h-.8l-.252-1.372a.71.71 0 00-.519-.558 4.66 4.66 0 01-1.193-.5.71.71 0 00-.766.028l-1.135.788-.574-.574.787-1.135a.71.71 0 00.027-.766 4.664 4.664 0 01-.5-1.192.71.71 0 00-.559-.518l-1.374-.246v-.8l1.36-.24a.71.71 0 00.564-.524 4.573 4.573 0 01.486-1.186.71.71 0 00-.03-.765l-.8-1.143.561-.562 1.143.8a.709.709 0 00.765.03 4.579 4.579 0 011.186-.488.709.709 0 00.523-.565l.239-1.361h.8l.252 1.372a.71.71 0 00.519.558 4.657 4.657 0 011.193.5.709.709 0 00.766-.028l1.135-.788.574.574-.787 1.135a.71.71 0 00-.027.766 4.664 4.664 0 01.5 1.192.71.71 0 00.559.518l1.372.251zm6.34-4.854v-2.425a.71.71 0 00-1.419 0v3.495c-1.791 0-3.62 0-5.427.009l.395-.569a.71.71 0 00-.082-.906l-1.413-1.412a.71.71 0 00-.906-.081l-1.264.878a6.076 6.076 0 00-.708-.294l-.28-1.526a.844.844 0 00-1.027-.583c-.012-.788.074-4.909 0-6.174h10.712v3.458a.71.71 0 001.419 0v-3.889l1.561-1.66v10.02z" fill="#51a79b"/><path d="M32.893 37.525h-.01a3.2 3.2 0 00-3.2 3.213 3.24 3.24 0 003.226 3.223h.01a3.2 3.2 0 003.2-3.213 3.24 3.24 0 00-3.226-3.223zm1.287 4.5a1.755 1.755 0 01-1.266.521 1.821 1.821 0 01-1.811-1.81 1.777 1.777 0 011.786-1.788 1.821 1.821 0 011.811 1.81 1.769 1.769 0 01-.521 1.263z" fill="#51a79b"/><path d="M10.623 8.701a.727.727 0 00.5-1.211l-2.42-2.42a.71.71 0 00-1 1l2.419 2.42a.707.707 0 00.501.211zM5.532 19.88H2.11a.71.71 0 000 1.419h3.422a.71.71 0 000-1.419zM10.337 32.596l-2.419 2.42a.71.71 0 001 1l2.419-2.42a.71.71 0 00-1-1z" fill="#007b61"/></g></svg>