<?xml version="1.0" encoding="utf-8"?><svg xmlns="http://www.w3.org/2000/svg" width="50" height="49" viewBox="0 0 50 49"><defs><clipPath id="ha"><path d="M0 0h50v49H0z"/></clipPath></defs><g clip-path="url(#ha)"><path d="M43.998 26.923v-14.9a5.317 5.317 0 10-6.079-5.259H1.443v30.4h22.836a12.151 12.151 0 1019.719-10.241zm-.755-23.96a3.8 3.8 0 11-3.8 3.8 3.8 3.8 0 013.8-3.8zM2.963 8.282h35.18a5.316 5.316 0 00.841 1.66l-4.648 4.648a2.2 2.2 0 00-1.954 0l-1.531-1.531a2.258 2.258 0 00.228-.977 2.28 2.28 0 00-4.559 0 2.242 2.242 0 00.229.976l-3.811 3.811a2.258 2.258 0 00-.977-.228 2.28 2.28 0 102.28 2.28 2.242 2.242 0 00-.229-.976l3.811-3.811a2.2 2.2 0 001.954 0l1.531 1.531a2.258 2.258 0 00-.228.977 2.28 2.28 0 004.559 0 2.242 2.242 0 00-.229-.976l4.648-4.648a5.287 5.287 0 002.42 1v13.868a12.085 12.085 0 00-15.2 2.5V25h-4.557v9.119h1.742a12.19 12.19 0 00-.183 1.52H2.963zm30.4 7.6a.76.76 0 11-.76.76.761.761 0 01.756-.761zm-5.319-3.8a.76.76 0 11.76.76.761.761 0 01-.761-.76zm-5.319 6.839a.76.76 0 11-.76-.76.761.761 0 01.756.76zm13.674 23.557a6.079 6.079 0 116.079-6.079 6.086 6.086 0 01-6.079 6.079zM25.76 30.526a12.067 12.067 0 00-.9 2.074h-.617v-6.08h1.52zm9.883-4.727v3.044a7.583 7.583 0 00-6.162 10.679l-2.638 1.521a10.6 10.6 0 018.8-15.241zm.76 21.239a10.633 10.633 0 01-8.806-4.677l2.646-1.529a7.574 7.574 0 0012.318 0l2.647 1.528a10.633 10.633 0 01-8.809 4.678zm9.558-6l-2.636-1.522a7.583 7.583 0 00-6.166-10.673v-3.04a10.6 10.6 0 018.8 15.241z" fill="#51a79b"/><path d="M36.399 31.84a4.559 4.559 0 104.559 4.559 4.564 4.564 0 00-4.559-4.559zm0 7.6a3.04 3.04 0 113.04-3.04 3.043 3.043 0 01-3.04 3.04z" fill="#68bbaf"/><path d="M4.483 9.802h1.52v1.52h-1.52z" fill="#51a79b"/><path d="M7.522 9.802h10.639v1.52H7.522z" fill="#007b61"/><path d="M4.483 12.842h1.52v1.52h-1.52z" fill="#51a79b"/><path d="M7.522 12.842h10.639v1.52H7.522z" fill="#007b61"/><path d="M4.483 15.881h1.52v1.52h-1.52z" fill="#51a79b"/><path d="M7.522 15.881h10.639v1.52H7.522z" fill="#007b61"/><path d="M4.483 18.921h1.52v1.52h-1.52z" fill="#51a79b"/><path d="M7.522 18.921h10.639v1.52H7.522zM4.483 34.12h4.559v-7.6H4.483zm1.52-6.08h1.52v4.559h-1.52z" fill="#007b61"/><path d="M10.562 34.119h4.559V28.04h-4.559zm1.52-4.559h1.52v3.04h-1.52z" fill="#51a79b"/><path d="M16.641 34.12H21.2V21.961h-4.559zm1.52-10.639h1.52V32.6h-1.52z" fill="#007b61"/></g></svg>