<?xml version="1.0" encoding="utf-8"?><svg xmlns="http://www.w3.org/2000/svg" width="50" height="49" viewBox="0 0 50 49"><defs><clipPath id="ia"><path d="M0 0h50v49H0z"/></clipPath></defs><g clip-path="url(#ia)"><path d="M49.184 47.367h-3.267V24.5a2.453 2.453 0 00-2.45-2.45v-4.9a2.453 2.453 0 00-2.45-2.45V9.8a2.453 2.453 0 00-2.45-2.45v-4.9A2.453 2.453 0 0036.117 0H14.884a2.453 2.453 0 00-2.45 2.45v4.9A2.453 2.453 0 009.983 9.8v4.9a2.453 2.453 0 00-2.45 2.45v4.9a2.453 2.453 0 00-2.45 2.45v22.867H1.817a.817.817 0 000 1.633h47.367a.817.817 0 000-1.633zM14.067 2.45a.817.817 0 01.817-.817h21.233a.817.817 0 01.817.817v4.9H24.6a4.083 4.083 0 00-8 0h-2.533v-4.9zm8.833 4.9h-4.6a2.435 2.435 0 014.6 0zM11.617 9.8a.817.817 0 01.817-.817h26.133a.817.817 0 01.817.817v4.9H22.151a4.083 4.083 0 00-8 0h-2.534V9.8zm8.833 4.9h-4.6a2.435 2.435 0 014.6 0zM9.167 17.15a.817.817 0 01.817-.817h31.033a.817.817 0 01.817.817v4.9H19.7a4.083 4.083 0 00-8 0H9.167zM18 22.05h-4.6a2.435 2.435 0 014.6 0zm26.284 25.317H6.717V24.5a.817.817 0 01.817-.817h35.933a.817.817 0 01.817.817v22.867z" fill="#51a79b"/><path d="M14.883 36.75a4.9 4.9 0 10-4.9-4.9 4.9 4.9 0 004.9 4.9zm0-8.167a3.267 3.267 0 11-3.267 3.267 3.267 3.267 0 013.267-3.267zM40.201 26.95h-17.15a.817.817 0 000 1.633h17.15a.817.817 0 000-1.633z" fill="#007b61"/><path d="M40.201 31.034h-17.15a.817.817 0 000 1.633h17.15a.817.817 0 000-1.633zM40.201 35.117h-17.15a.817.817 0 000 1.633h17.15a.817.817 0 000-1.633zM40.2 39.2H10.8a.817.817 0 100 1.633h29.4a.817.817 0 000-1.633zM40.2 43.284H10.8a.817.817 0 000 1.633h29.4a.817.817 0 000-1.633z" fill="#51a79b"/></g></svg>