<?xml version="1.0" encoding="utf-8"?><svg xmlns="http://www.w3.org/2000/svg" width="50" height="49" viewBox="0 0 50 49"><defs><clipPath id="ma"><path d="M0 0h50v49H0z"/></clipPath></defs><g clip-path="url(#ma)"><path d="M42.633 35.845a.722.722 0 00.722-.722V1.982a2.168 2.168 0 00-2.163-2.166H8.812a2.168 2.168 0 00-2.166 2.166v3.777a3.211 3.211 0 000 6.3v1.447a3.211 3.211 0 000 6.3v1.447a3.211 3.211 0 000 6.3v1.453a3.211 3.211 0 000 6.3v1.447a3.211 3.211 0 000 6.3v3.778a2.168 2.168 0 002.166 2.166h32.38a2.168 2.168 0 002.166-2.166v-8.82a.722.722 0 00-1.444 0v8.824a.723.723 0 01-.722.722H8.812a.723.723 0 01-.722-.722v-8.491a1.769 1.769 0 01.943 1.562.722.722 0 001.444 0 3.217 3.217 0 00-2.386-3.1v-6.211a1.769 1.769 0 01.942 1.562.722.722 0 001.444 0 3.217 3.217 0 00-2.386-3.1v-6.211a1.769 1.769 0 01.942 1.562.722.722 0 101.444 0 3.217 3.217 0 00-2.386-3.1v-6.211a1.769 1.769 0 01.942 1.562.722.722 0 001.444 0 3.217 3.217 0 00-2.386-3.1v-6.21a1.769 1.769 0 01.942 1.561.722.722 0 001.444 0 3.217 3.217 0 00-2.386-3.1V1.982a.723.723 0 01.722-.722h32.379a.723.723 0 01.722.722v33.141a.722.722 0 00.719.722zM5.497 8.91a1.769 1.769 0 011.149-1.654v3.308A1.769 1.769 0 015.497 8.91zm0 7.749a1.769 1.769 0 011.149-1.654v3.311a1.769 1.769 0 01-1.149-1.657zm0 7.749a1.769 1.769 0 011.149-1.654v3.308a1.769 1.769 0 01-1.149-1.654zm0 7.749a1.769 1.769 0 011.149-1.654v3.308a1.769 1.769 0 01-1.149-1.654zm0 7.749a1.769 1.769 0 011.149-1.654v3.308a1.769 1.769 0 01-1.149-1.654z" fill="#51a79b"/><path d="M27.829 5.246a.722.722 0 00-.722.722v3.115a.722.722 0 001.444 0v-2.36a8.411 8.411 0 017.647 7.64h-7.643V11.97a.722.722 0 00-1.444 0v3.115a.722.722 0 00.722.722h9.117a.722.722 0 00.722-.722 9.85 9.85 0 00-9.843-9.839z" fill="#007b61"/><path d="M24.846 8.835a9.131 9.131 0 00-9.12 9.12.722.722 0 101.444 0 7.687 7.687 0 016.955-7.643v7.643a.771.771 0 00.047.255l2.7 7.147a7.674 7.674 0 01-9.254-4.8.722.722 0 10-1.358.489 9.123 9.123 0 0011.773 5.456l.039-.013.037-.016a9.135 9.135 0 005.856-8.516.722.722 0 00-.722-.722h-7.676V9.557a.722.722 0 00-.722-.722zm3.378 16.011l-2.333-6.169h6.6a7.691 7.691 0 01-4.265 6.169z" fill="#51a79b"/><path d="M36.946 31.435H15.439a.722.722 0 100 1.444h21.508a.722.722 0 000-1.444z" fill="#007b61"/><path d="M37.668 36.567a.722.722 0 00-.722-.722H15.439a.722.722 0 100 1.444h21.508a.722.722 0 00.721-.722zM15.439 40.255a.722.722 0 100 1.444h15.314a.722.722 0 100-1.444z" fill="#51a79b"/></g></svg>