<?xml version="1.0" encoding="utf-8"?><svg xmlns="http://www.w3.org/2000/svg" width="164" height="106" viewBox="0 0 164 106"><defs><clipPath id="fa"><path d="M0 0h164v106H0z"/></clipPath></defs><g clip-path="url(#fa)"><path d="M7.051 65.323a1.317 1.317 0 001.3-1.3 1.209 1.209 0 00-.386-.9 1.272 1.272 0 00-.916-.372 1.271 1.271 0 00-1.274 1.27 1.268 1.268 0 00.372.916 1.209 1.209 0 00.9.386M4.074 65.323a1.249 1.249 0 00.918-.386 1.251 1.251 0 00.386-.916 1.21 1.21 0 00-.386-.9 1.274 1.274 0 00-.918-.372 1.231 1.231 0 00-.9.372 1.229 1.229 0 00-.371.9 1.272 1.272 0 00.371.916 1.209 1.209 0 00.9.386M14.785 77.549a1.317 1.317 0 00-1.3 1.3 1.209 1.209 0 00.386.9 1.272 1.272 0 00.918.372 1.271 1.271 0 001.276-1.275 1.276 1.276 0 00-.372-.918 1.212 1.212 0 00-.9-.386M6.652 72.925h-1.3a.716.716 0 01-.8-.823v-1.994a.973.973 0 01.214-.652.723.723 0 01.584-.253h1.3zm6.857-.877a.775.775 0 01-.877.877H9.177v-6.274h-3.8a3.3 3.3 0 00-2.311.825A3.3 3.3 0 002 70.055v1.992a3.456 3.456 0 00.8 2.334 3.312 3.312 0 002.63 1.091h7.256a3.357 3.357 0 002.314-.82 3.265 3.265 0 001.064-2.552v-5.448h-2.556zM11.806 77.549a1.314 1.314 0 00-1.3 1.3 1.21 1.21 0 00.384.9 1.272 1.272 0 00.918.372 1.271 1.271 0 001.275-1.275 1.276 1.276 0 00-.372-.918 1.209 1.209 0 00-.9-.386M21.536 66.651h-1.489v2.552h1.279a2.173 2.173 0 011.647.611 2.3 2.3 0 01.611 1.7 1.78 1.78 0 01-.253 1.088 1.041 1.041 0 01-.862.32h-3.937v2.559h4.147a3.38 3.38 0 002.5-.932 3.923 3.923 0 001.008-2.9 5.588 5.588 0 00-.876-3.242 4.246 4.246 0 00-3.775-1.754M42.584 71.596a8.286 8.286 0 00-1.7-1.541 2.114 2.114 0 011.7-1.01 1.954 1.954 0 011.674 1.01 8.014 8.014 0 00-1.674 1.541m-9.726 1.33h-1.276q-.8 0-.8-.877v-2.02a.717.717 0 01.8-.823h1.276zm35-.877a.764.764 0 01-.85.877h-2.1v-6.274l-2.552.521v5.752h-2.1v-6.273l-2.552.521v5.752H55.58v-6.273l-2.526.521v5.752h-8.131a9.217 9.217 0 012.206-2.1v-.214a3.744 3.744 0 00-1.276-2.869 4.7 4.7 0 00-3.268-1.222 4.836 4.836 0 00-2.923.93 3.626 3.626 0 00-1.621 3.083v.293a11.8 11.8 0 012.206 2.1h-4.838v-6.274h-3.748a3.38 3.38 0 00-2.418.877 3.325 3.325 0 00-1.037 2.526v2.046a3.3 3.3 0 003.455 3.375h1.222v.189a1.745 1.745 0 01-.983 1.593 5.394 5.394 0 01-2.79.611h-.239l1.621 2.26a5.628 5.628 0 003.747-1.249 4.3 4.3 0 001.169-3.3v-.105h5.715a2.539 2.539 0 001.462-.451 2.618 2.618 0 001.462.453h22.935a3.275 3.275 0 003.4-3.376v-9.036h-2.524zM90.129 65.323a1.209 1.209 0 00.9-.384 1.275 1.275 0 00.372-.918 1.271 1.271 0 00-1.276-1.275 1.272 1.272 0 00-.916.372 1.209 1.209 0 00-.386.9 1.314 1.314 0 001.3 1.3M87.153 65.323a1.209 1.209 0 00.9-.384 1.271 1.271 0 00.38-.918 1.273 1.273 0 00-1.275-1.275 1.271 1.271 0 00-.918.372 1.205 1.205 0 00-.386.9 1.314 1.314 0 001.3 1.3M93.451 71.967q0 .957-.825.958h-8c-.568 0-.85-.32-.85-.958v-3.694l-2.526 1.648v2.18a3.3 3.3 0 00.85 2.364 3.366 3.366 0 002.6 1.01h7.919a3.393 3.393 0 002.339-.824 3.254 3.254 0 001.037-2.552v-5.446H93.45zM106.473 72.102v-2.047a.863.863 0 01.226-.611.785.785 0 01.6-.239h3.856v-2.553h-3.778a3.5 3.5 0 00-2.364.825 3.255 3.255 0 00-1.091 2.579v2.046a1.825 1.825 0 00.133.823h-2.179a.751.751 0 01-.85-.85v-9.01H98.5v9.116a3.387 3.387 0 00.744 2.179 2.925 2.925 0 002.391 1.116h10.74v-2.552h-5.078a.728.728 0 01-.824-.822M127.814 65.323a1.209 1.209 0 00.9-.384 1.275 1.275 0 00.372-.918 1.271 1.271 0 00-1.276-1.275 1.272 1.272 0 00-.916.372 1.208 1.208 0 00-.386.9 1.314 1.314 0 001.3 1.3M128.877 71.967c0 .638-.282.958-.85.958h-1.25v-2.817q0-.9.8-.9h1.3zm-9.807.958h-1.276q-.8 0-.8-.877v-2.02a.717.717 0 01.8-.825h1.276zm6.086-5.316a3.365 3.365 0 00-.93 2.445v2.871h-2.6v-6.274h-3.752a3.378 3.378 0 00-2.418.879 3.322 3.322 0 00-1.037 2.524v2.047a3.3 3.3 0 003.455 3.373h1.222v.188a1.749 1.749 0 01-.982 1.595 5.4 5.4 0 01-2.792.61h-.239l1.621 2.26a5.632 5.632 0 003.749-1.246 4.293 4.293 0 001.169-3.3v-.107h6.4a3.332 3.332 0 002.339-.822 3.214 3.214 0 001.063-2.552v-5.448h-3.77a3.325 3.325 0 00-2.5.956M149.128 74.281q0 .9-1.063.9t-1.064-.9v-4.332q0-.9 1.064-.9t1.063.9zm5.476-2.233a.764.764 0 01-.85.877h-2.1v-2.976a3.345 3.345 0 00-.877-2.391 3.608 3.608 0 00-2.711-1.037 3.931 3.931 0 00-2.366.691 3.23 3.23 0 00-1.223 2.738v2.977h-2.923v-1.436a5.182 5.182 0 00-.983-3.216 4.241 4.241 0 00-3.614-1.621h-1.541v2.551h1.33q2.257 0 2.257 2.152v1.568h-5.1v2.551h10.736a3.037 3.037 0 001.223 1.62 3.916 3.916 0 002.206.611 3.855 3.855 0 002.179-.6 2.933 2.933 0 001.222-1.634h2.26a3.275 3.275 0 003.4-3.376v-9.032h-2.526zM159.386 63.065V76.64l2.765-1.163V63.065zM72.762 76.639l2.763-1.162V63.065h-2.763zM2.054 103.31l.4-2.458a8.161 8.161 0 003.285.721q1.844 0 1.843-1.362a1.151 1.151 0 00-.427-.922 7.424 7.424 0 00-1.71-.9 8.628 8.628 0 01-2.456-1.358A3.2 3.2 0 012 94.599a3.02 3.02 0 011.443-2.778 5.657 5.657 0 013.072-.72 7.342 7.342 0 013.232.695l-.453 2.4a7.078 7.078 0 00-2.859-.723q-1.711 0-1.71 1.1a.8.8 0 00.36.627 7.785 7.785 0 001.483.762 9.266 9.266 0 012.62 1.47 3.291 3.291 0 011.095 2.512 3.756 3.756 0 01-1.31 3.125 5.007 5.007 0 01-3.178.908 9.3 9.3 0 01-3.741-.668M16.775 99.222l1.256-4.381 1.255 4.381zm2.673-7.907h-2.834l-4.06 12.476h2.912l.695-2.324h3.737l.695 2.324h2.939zM33.552 99.303v-6.817l2.805-1.169v8.228a4.221 4.221 0 01-1.095 2.993 5.116 5.116 0 01-3.98 1.441 4.9 4.9 0 01-4.275-1.793 4.429 4.429 0 01-.8-2.645v-7.055l2.78-1.171v7.988a2.2 2.2 0 00.614 1.63 2.167 2.167 0 001.683.641 2.1 2.1 0 001.816-.8 2.338 2.338 0 00.454-1.47M47.994 99.062q0 2.164-2.27 2.163h-3.006V93.88h3.005q2.271 0 2.27 2.164zm1.577-6.118a4.266 4.266 0 00-3.634-1.63h-5.759v12.477h5.759a4.269 4.269 0 003.634-1.63 5.216 5.216 0 00.989-3.232v-2.752a5.216 5.216 0 00-.989-3.232M57.356 103.79h-2.778V92.485l2.778-1.169zM80.571 99.222l1.257-4.381 1.255 4.381zm2.673-7.907h-2.833l-4.061 12.476h2.912l.695-2.324h3.74l.695 2.324h2.939zM94.331 103.791h-2.754v-4.917l-3.87-7.559h2.966l2.27 4.968 2.3-4.968h2.934l-3.847 7.559zM114.02 103.791h-2.458v-9.645l-2.591 9.646h-2.97l-2.562-9.646v9.646h-2.458V91.315h4.089l2.431 9.858 2.724-9.858h3.794zM125.427 103.791h-7.559V91.315h7.961l-.4 2.324h-4.783v2.618h4.382l-.375 2.329h-4.007v2.886h5.183zM139.319 103.791h-2.351l-5.262-7.882v7.882h-2.512V91.315h2.351l5.263 7.88v-7.879h2.512zM148.43 103.791h-2.775V93.639h-3v-2.324h9l-.4 2.324h-2.832zM154.307 103.31l.4-2.458a8.177 8.177 0 003.286.721q1.844 0 1.843-1.362a1.151 1.151 0 00-.427-.922 7.365 7.365 0 00-1.71-.9 8.6 8.6 0 01-2.457-1.358 3.2 3.2 0 01-.989-2.432 3.02 3.02 0 011.443-2.778 5.657 5.657 0 013.072-.72 7.35 7.35 0 013.232.695l-.454 2.4a7.078 7.078 0 00-2.859-.723q-1.709 0-1.71 1.1a.8.8 0 00.361.627 7.8 7.8 0 001.482.762 9.265 9.265 0 012.62 1.47 3.29 3.29 0 011.095 2.512 3.752 3.752 0 01-1.31 3.125 5.007 5.007 0 01-3.178.908 9.29 9.29 0 01-3.74-.668M72.369 96.792a.72.72 0 01-.8.828h-3.02v-3.74h3.02a.725.725 0 01.587.254.985.985 0 01.214.654zm1.5-4.648a3.314 3.314 0 00-2.324-.829h-5.534v12.476h2.751v-3.605h2.723a3.341 3.341 0 002.649-1.1 3.489 3.489 0 00.8-2.351v-2a3.316 3.316 0 00-1.072-2.592" fill="#231f20"/><g><path d="M77.588 19.899h18.833v23.617H77.587v4.727h23.577v-33.07H77.587z" fill="#68bbaf"/></g><g><path d="M86.943 29.346H68.112V5.725h18.83V1H63.366v33.07h23.577z" fill="#007b61"/></g></g></svg>