<svg xmlns="http://www.w3.org/2000/svg" xmlns:xlink="http://www.w3.org/1999/xlink" width="225" height="238" viewBox="0 0 225 238"><defs><clipPath id="b"><rect width="225" height="238"/></clipPath></defs><g id="a" clip-path="url(#b)"><g transform="translate(22.215 25.918)"><g transform="translate(3.837 0.583)" opacity="0.17"><path d="M34.764,167.3c36.9,0,62.243,19.115,80.024,19.115s55.126-10.222,55.126-92.022S119.674.583,100.116.583C8.532.583-30.589,167.3,34.764,167.3Z" transform="translate(-2.29 -0.583)" fill="#50758d"/></g><g transform="translate(1.933 67.094)"><g transform="translate(0 76.943)"><g transform="translate(1.018 0)"><path d="M0,0H5.335V11.571H0Z" transform="translate(0 3.772) rotate(-45)" fill="#a4afc1"/></g><g transform="translate(24.536 23.522)"><path d="M0,0H5.335V11.566H0Z" transform="translate(0 3.772) rotate(-45)" fill="#a4afc1"/></g><g transform="translate(0 23.517)"><path d="M0,0H11.566V5.335H0Z" transform="translate(0 8.177) rotate(-45)" fill="#a4afc1"/></g></g><g transform="translate(161.524)"><path d="M40.212,29.055a8,8,0,1,1,8-8A8.012,8.012,0,0,1,40.212,29.055Zm0-10.67a2.667,2.667,0,1,0,2.667,2.667A2.668,2.668,0,0,0,40.212,18.385Z" transform="translate(-32.21 -13.05)" fill="#a4afc1"/></g></g><g transform="translate(27.63 33.483)"><path d="M121.451,30.757H12.085A5.337,5.337,0,0,1,6.75,25.422V12.085A5.337,5.337,0,0,1,12.085,6.75H121.451a5.337,5.337,0,0,1,5.335,5.335V25.422A5.337,5.337,0,0,1,121.451,30.757Z" transform="translate(-6.75 -6.75)" fill="#f3f3f1"/><g transform="translate(0 42.679)"><path d="M52.1,92.106H12.085A5.337,5.337,0,0,1,6.75,86.772V20.085a5.337,5.337,0,0,1,5.335-5.335H52.1a5.337,5.337,0,0,1,5.335,5.335V86.772A5.337,5.337,0,0,1,52.1,92.106Z" transform="translate(-6.75 -14.75)" fill="#2fdf84"/></g><g transform="translate(69.354 42.679)"><path d="M65.1,44.092H25.085a5.337,5.337,0,0,1-5.335-5.335V20.085a5.337,5.337,0,0,1,5.335-5.335H65.1a5.337,5.337,0,0,1,5.335,5.335V38.757A5.337,5.337,0,0,1,65.1,44.092Z" transform="translate(-19.75 -14.75)" fill="#2fdf84"/></g><g transform="translate(69.354 90.694)"><path d="M65.1,53.092H25.085a5.337,5.337,0,0,1-5.335-5.335V29.085a5.337,5.337,0,0,1,5.335-5.335H65.1a5.337,5.337,0,0,1,5.335,5.335V47.757A5.337,5.337,0,0,1,65.1,53.092Z" transform="translate(-19.75 -23.75)" fill="#2fdf84"/></g><path d="M121.451,30.757H12.085A5.337,5.337,0,0,1,6.75,25.422V12.085A5.337,5.337,0,0,1,12.085,6.75H121.451a5.337,5.337,0,0,1,5.335,5.335V25.422A5.337,5.337,0,0,1,121.451,30.757Z" transform="translate(-6.75 -6.75)" fill="#5ba897"/><g transform="translate(0 42.679)"><path d="M52.1,92.106H12.085A5.337,5.337,0,0,1,6.75,86.772V20.085a5.337,5.337,0,0,1,5.335-5.335H52.1a5.337,5.337,0,0,1,5.335,5.335V86.772A5.337,5.337,0,0,1,52.1,92.106Z" transform="translate(-6.75 -14.75)" fill="#5ba897"/></g><g transform="translate(69.354 42.679)"><path d="M65.1,44.092H25.085a5.337,5.337,0,0,1-5.335-5.335V20.085a5.337,5.337,0,0,1,5.335-5.335H65.1a5.337,5.337,0,0,1,5.335,5.335V38.757A5.337,5.337,0,0,1,65.1,44.092Z" transform="translate(-19.75 -14.75)" fill="#5ba897"/></g><g transform="translate(69.354 90.694)"><path d="M65.1,53.092H25.085a5.337,5.337,0,0,1-5.335-5.335V29.085a5.337,5.337,0,0,1,5.335-5.335H65.1a5.337,5.337,0,0,1,5.335,5.335V47.757A5.337,5.337,0,0,1,65.1,53.092Z" transform="translate(-19.75 -23.75)" fill="#5ba897"/></g><path d="M18.754,25.422V12.085A5.337,5.337,0,0,1,24.089,6.75h-12A5.337,5.337,0,0,0,6.75,12.085V25.422a5.337,5.337,0,0,0,5.335,5.335h12A5.337,5.337,0,0,1,18.754,25.422Z" transform="translate(-6.75 -6.75)" fill="#d5dbe1"/><g transform="translate(0 42.679)"><path d="M18.754,86.772V20.085a5.337,5.337,0,0,1,5.335-5.335h-12A5.337,5.337,0,0,0,6.75,20.085V86.772a5.337,5.337,0,0,0,5.335,5.335h12A5.337,5.337,0,0,1,18.754,86.772Z" transform="translate(-6.75 -14.75)" fill="#00b871"/></g><g transform="translate(69.354 42.679)"><path d="M31.754,38.757V20.085a5.337,5.337,0,0,1,5.335-5.335h-12a5.337,5.337,0,0,0-5.335,5.335V38.757a5.337,5.337,0,0,0,5.335,5.335h12A5.337,5.337,0,0,1,31.754,38.757Z" transform="translate(-19.75 -14.75)" fill="#00b871"/></g><g transform="translate(69.354 90.694)"><path d="M31.754,47.757V29.085a5.337,5.337,0,0,1,5.335-5.335h-12a5.337,5.337,0,0,0-5.335,5.335V47.757a5.337,5.337,0,0,0,5.335,5.335h12A5.337,5.337,0,0,1,31.754,47.757Z" transform="translate(-19.75 -23.75)" fill="#00b871"/></g></g><g transform="translate(27.63 33.483)"><path d="M18.754,25.422V12.085A5.337,5.337,0,0,1,24.089,6.75h-12A5.337,5.337,0,0,0,6.75,12.085V25.422a5.337,5.337,0,0,0,5.335,5.335h12A5.337,5.337,0,0,1,18.754,25.422Z" transform="translate(-6.75 -6.75)" fill="#007b61"/><g transform="translate(0 42.679)"><path d="M18.754,86.772V20.085a5.337,5.337,0,0,1,5.335-5.335h-12A5.337,5.337,0,0,0,6.75,20.085V86.772a5.337,5.337,0,0,0,5.335,5.335h12A5.337,5.337,0,0,1,18.754,86.772Z" transform="translate(-6.75 -14.75)" fill="#007b61"/></g><g transform="translate(69.354 42.679)"><path d="M31.754,38.757V20.085a5.337,5.337,0,0,1,5.335-5.335h-12a5.337,5.337,0,0,0-5.335,5.335V38.757a5.337,5.337,0,0,0,5.335,5.335h12A5.337,5.337,0,0,1,31.754,38.757Z" transform="translate(-19.75 -14.75)" fill="#007b61"/></g><g transform="translate(69.354 90.694)"><path d="M31.754,47.757V29.085a5.337,5.337,0,0,1,5.335-5.335h-12a5.337,5.337,0,0,0-5.335,5.335V47.757a5.337,5.337,0,0,0,5.335,5.335h12A5.337,5.337,0,0,1,31.754,47.757Z" transform="translate(-19.75 -23.75)" fill="#007b61"/></g></g><g transform="translate(23.629 29.482)"><path d="M124.7,38.01H15.336A9.346,9.346,0,0,1,6,28.673V15.336A9.346,9.346,0,0,1,15.336,6H124.7a9.346,9.346,0,0,1,9.336,9.336V28.673A9.346,9.346,0,0,1,124.7,38.01ZM15.336,14A1.334,1.334,0,0,0,14,15.336V28.673a1.334,1.334,0,0,0,1.334,1.334H124.7a1.334,1.334,0,0,0,1.334-1.334V15.336A1.334,1.334,0,0,0,124.7,14Z" transform="translate(-6 -6)"/><g transform="translate(0 42.679)"><path d="M55.348,99.359H15.336A9.346,9.346,0,0,1,6,90.023V23.336A9.346,9.346,0,0,1,15.336,14H55.348a9.346,9.346,0,0,1,9.336,9.336V90.023A9.346,9.346,0,0,1,55.348,99.359ZM15.336,22A1.334,1.334,0,0,0,14,23.336V90.023a1.334,1.334,0,0,0,1.334,1.334H55.348a1.334,1.334,0,0,0,1.334-1.334V23.336A1.334,1.334,0,0,0,55.348,22Z" transform="translate(-6 -14)"/></g><g transform="translate(69.354 42.679)"><path d="M68.348,51.344H28.336A9.346,9.346,0,0,1,19,42.008V23.336A9.346,9.346,0,0,1,28.336,14H68.348a9.346,9.346,0,0,1,9.336,9.336V42.008A9.346,9.346,0,0,1,68.348,51.344ZM28.336,22A1.334,1.334,0,0,0,27,23.336V42.008a1.334,1.334,0,0,0,1.334,1.334H68.348a1.334,1.334,0,0,0,1.334-1.334V23.336A1.334,1.334,0,0,0,68.348,22Z" transform="translate(-19 -14)"/></g><g transform="translate(69.354 90.694)"><path d="M68.348,60.344H28.336A9.346,9.346,0,0,1,19,51.008V32.336A9.346,9.346,0,0,1,28.336,23H68.348a9.346,9.346,0,0,1,9.336,9.336V51.008A9.346,9.346,0,0,1,68.348,60.344ZM28.336,31A1.334,1.334,0,0,0,27,32.336V51.008a1.334,1.334,0,0,0,1.334,1.334H68.348a1.334,1.334,0,0,0,1.334-1.334V32.336A1.334,1.334,0,0,0,68.348,31Z" transform="translate(-19 -23)"/></g></g></g></g></svg>