<svg xmlns="http://www.w3.org/2000/svg" xmlns:xlink="http://www.w3.org/1999/xlink" width="225" height="238" viewBox="0 0 225 238"><defs><style>.a{clip-path:url(#h);}.b{fill:#007b61;}.c{fill:#85b5ae;}.d{fill:#68bbaf;}.e{fill:#29485a;}.f{filter:url(#e);}.g{filter:url(#c);}.h{filter:url(#a);}</style><filter id="a" x="1" y="62" width="148.194" height="170.534" filterUnits="userSpaceOnUse"><feOffset dy="3" input="SourceAlpha"/><feGaussianBlur stdDeviation="3" result="b"/><feFlood flood-opacity="0.161"/><feComposite operator="in" in2="b"/><feComposite in="SourceGraphic"/></filter><filter id="c" x="91.133" y="37.733" width="71.928" height="94.267" filterUnits="userSpaceOnUse"><feOffset dy="3" input="SourceAlpha"/><feGaussianBlur stdDeviation="3" result="d"/><feFlood flood-opacity="0.161"/><feComposite operator="in" in2="d"/><feComposite in="SourceGraphic"/></filter><filter id="e" x="94.6" y="78.941" width="94.267" height="125.858" filterUnits="userSpaceOnUse"><feOffset dy="3" input="SourceAlpha"/><feGaussianBlur stdDeviation="3" result="f"/><feFlood flood-opacity="0.161"/><feComposite operator="in" in2="f"/><feComposite in="SourceGraphic"/></filter><clipPath id="h"><rect width="225" height="238"/></clipPath></defs><g id="g" class="a"><g transform="translate(5.733 16)"><g class="h" transform="matrix(1, 0, 0, 1, -5.73, -16)"><path class="b" d="M80.534,128a76.267,76.267,0,1,0,53.928,130.194L80.534,204.267Z" transform="translate(5.73 -60)"/></g><g class="g" transform="matrix(1, 0, 0, 1, -5.73, -16)"><path class="c" d="M280.061,90.605a76,76,0,0,0-53.928-22.339v76.267Z" transform="translate(-126 -24.53)"/></g><g class="f" transform="matrix(1, 0, 0, 1, -5.73, -16)"><path class="d" d="M288.594,169.7l-53.927,53.931,53.927,53.928A76.265,76.265,0,0,0,288.594,169.7Z" transform="translate(-131.07 -84.76)"/></g><g transform="translate(4.267)"><path class="e" d="M275.943,53.549l-6.205-3.1L294,1.917A3.474,3.474,0,0,1,297.09,0h27.733V6.933H299.233Z" transform="translate(-161.89)"/><path class="e" d="M413.867,460.8H452v6.933H413.867Z" transform="translate(-247.467 -273.6)"/><path class="e" d="M413.867,494.933H452v6.933H413.867Z" transform="translate(-247.467 -293.867)"/><path class="e" d="M392.644,359.423H385.71V327.314L343.091,314.2l2.039-6.628L390.2,321.442a3.466,3.466,0,0,1,2.448,3.314Z" transform="translate(-205.444 -182.623)"/><path class="e" d="M4.267,8.533H49.334v6.933H4.267Z" transform="translate(-4.267 -5.066)"/><path class="e" d="M4.267,42.667H49.334V49.6H4.267Z" transform="translate(-4.267 -25.334)"/><path class="e" d="M4.267,76.8H28.534v6.933H4.267Z" transform="translate(-4.267 -45.6)"/><path class="e" d="M44.784,184.061l-31.2-38.133a3.468,3.468,0,0,1-.784-2.195V119.466h6.933V142.5L50.15,179.671Z" transform="translate(-9.333 -70.933)"/><path class="e" d="M430.933,0h31.2V6.933h-31.2Z" transform="translate(-257.6)"/><path class="e" d="M430.933,34.133h31.2v6.933h-31.2Z" transform="translate(-257.6 -20.266)"/><path class="e" d="M430.933,68.267h17.333V75.2H430.933Z" transform="translate(-257.6 -40.534)"/></g></g></g></svg>