<svg xmlns="http://www.w3.org/2000/svg" xmlns:xlink="http://www.w3.org/1999/xlink" width="119" height="115" viewBox="0 0 119 115"><defs><style>.a{clip-path:url(#b);}.b{fill:#007b61;}.c{fill:#f9f5f3;}.d{fill:#e6e6e6;}.e{fill:#ffce69;}.f{fill:#5aaa9e;}.g{fill:#f9eae0;}.h{fill:#68bbaf;}</style><clipPath id="b"><rect width="119" height="115"/></clipPath></defs><g id="a" class="a"><g transform="translate(-2.049 5.838)"><path class="b" d="M110.677,39.016,70.74,1.745a6.488,6.488,0,0,0-8.854,0L21.95,39.016V79.667h88.727Z" transform="translate(-4.33)"/><path class="c" d="M115.494,94.836l8.676,8.1a6.488,6.488,0,0,0,8.854,0l24.77-23.117V36.377a3.244,3.244,0,0,0-3.244-3.244H102.643A3.244,3.244,0,0,0,99.4,36.377V79.815Z" transform="translate(-66.613 -26.645)"/><path class="d" d="M362.538,33.134h-4.5a3.244,3.244,0,0,1,3.244,3.244V84.02l4.5-4.2V36.378a3.244,3.244,0,0,0-3.244-3.244Z" transform="translate(-274.601 -26.646)"/><path class="e" d="M17.62,199.242l31.261,29.175,8.676,8.1a6.488,6.488,0,0,0,8.854,0l39.937-37.271a3.235,3.235,0,0,1,1.054,2.393v49.425a6.488,6.488,0,0,1-6.488,6.488H23.054a6.488,6.488,0,0,1-6.488-6.488V201.636a3.236,3.236,0,0,1,1.054-2.394Z" transform="translate(0 -160.226)"/><path class="f" d="M17.62,199.242l31.261,29.175,8.676,8.1a6.488,6.488,0,0,0,8.854,0l39.937-37.271a3.235,3.235,0,0,1,1.054,2.393v49.425a6.488,6.488,0,0,1-6.488,6.488H23.054a6.488,6.488,0,0,1-6.488-6.488V201.636a3.236,3.236,0,0,1,1.054-2.394Z" transform="translate(0 -160.226)"/><path class="b" d="M434.239,199.245l-3.45,3.22v48.6a6.488,6.488,0,0,1-6.488,6.488h4.5a6.488,6.488,0,0,0,6.488-6.488V201.638A3.236,3.236,0,0,0,434.239,199.245Z" transform="translate(-327.892 -160.228)"/><path class="c" d="M364.121,437.223a3.244,3.244,0,1,0,0-6.488H351.144a3.244,3.244,0,1,0,0,6.488Z" transform="translate(-266.452 -346.388)"/><path class="g" d="M412.238,430.736h-4.5a3.244,3.244,0,1,1,0,6.488h4.5a3.244,3.244,0,1,0,0-6.488Z" transform="translate(-314.569 -346.388)"/><g transform="translate(52.251 12.5)"><g transform="translate(0)"><circle class="h" cx="3.244" cy="3.244" r="3.244" transform="matrix(0.16, -0.987, 0.987, 0.16, 5.998, 38.363)"/><path class="h" d="M208.533,89.788a3.244,3.244,0,0,1-3.244-3.244V83.3a7.232,7.232,0,0,1,4.475-6.729A3.245,3.245,0,1,0,206.32,71.2a3.212,3.212,0,0,0-1.032,2.373,3.244,3.244,0,1,1-6.488,0,9.732,9.732,0,1,1,13.428,9.005.778.778,0,0,0-.452.727v3.244A3.244,3.244,0,0,1,208.533,89.788Z" transform="translate(-198.8 -63.836)"/></g></g></g></g></svg>