<svg xmlns="http://www.w3.org/2000/svg" xmlns:xlink="http://www.w3.org/1999/xlink" width="119" height="144" viewBox="0 0 119 144"><defs><style>.a{clip-path:url(#b);}.b{fill:#5eaa9a;}.c{fill:#007b61;}.d{fill:#f5f5f5;}.e{fill:#e6e6e6;}.f{fill:#68bbaf;}.g{fill:#50758d;}</style><clipPath id="b"><rect width="119" height="144"/></clipPath></defs><g id="a" class="a"><g transform="translate(-57.353 3.942)"><path class="b" d="M163.7,40.6V154.645a2.6,2.6,0,0,1-2.6,2.6H74.6a2.6,2.6,0,0,1-2.6-2.6V40.6A2.6,2.6,0,0,1,74.6,38h86.509A2.6,2.6,0,0,1,163.7,40.6Z" transform="translate(0 -28.128)"/><path class="c" d="M88,74.38V174.806a1.839,1.839,0,0,0,1.84,1.84h52.419a2.6,2.6,0,0,0,1.837-.761l20.022-20.022V72.991H93.177l-.438-3.162L89.156,72.22A2.6,2.6,0,0,0,88,74.38Z" transform="translate(-11.843 -51.688)"/><path class="d" d="M178.118,70.6v80.274l-15.587,5.715-5.2,15.068H104.6a2.6,2.6,0,0,1-2.6-2.6V70.6a2.6,2.6,0,0,1,2.6-2.6H175.52A2.6,2.6,0,0,1,178.118,70.6Z" transform="translate(-22.206 -50.334)"/><path class="e" d="M335.783,387,315,407.783V389.6a2.6,2.6,0,0,1,2.6-2.6Z" transform="translate(-179.872 -286.462)"/><path class="f" d="M200.15,68v5.048a6.5,6.5,0,0,1-6.495,6.495h-39.3a6.5,6.5,0,0,1-6.495-6.495V68Z" transform="translate(-56.153 -50.334)"/><path class="f" d="M147.86,38h52.29v7.794H147.86Z" transform="translate(-56.153 -28.128)"/><path class="b" d="M207.357,9.867V22.712a2.6,2.6,0,0,1-2.6,2.6h-39.3a2.6,2.6,0,0,1-2.6-2.6V9.867h14.42A8.04,8.04,0,0,1,184.539.02a8.043,8.043,0,0,1,8.4,9.847Z" transform="translate(-67.257 0)"/><path class="c" d="M147.585,156.7a1.948,1.948,0,0,1-1.35-.544l-6.582-6.329a1.948,1.948,0,0,1,2.7-2.809l5.115,4.919,8.021-9.106a1.949,1.949,0,0,1,2.924,2.576l-9.367,10.633a1.948,1.948,0,0,1-1.381.659Z" transform="translate(-49.634 -105.234)"/><path class="g" d="M259.986,166.528H232.448a1.948,1.948,0,0,1,0-3.9h27.537a1.948,1.948,0,1,1,0,3.9Z" transform="translate(-117.324 -120.381)"/><path class="c" d="M147.585,245a1.948,1.948,0,0,1-1.35-.544l-6.582-6.329a1.948,1.948,0,0,1,2.7-2.809l5.118,4.921,8.035-9.085a1.948,1.948,0,1,1,2.919,2.582l-9.381,10.606a1.949,1.949,0,0,1-1.381.656l-.079,0Z" transform="translate(-49.634 -170.618)"/><g transform="translate(113.176 65.077)"><path class="g" d="M259.986,254.4H232.448a1.948,1.948,0,0,1,0-3.9h27.537a1.948,1.948,0,1,1,0,3.9Z" transform="translate(-230.5 -250.5)"/><path class="g" d="M325.495,345.528h-4.546a1.948,1.948,0,0,1,0-3.9h4.546a1.948,1.948,0,1,1,0,3.9Z" transform="translate(-296.009 -317.956)"/><path class="g" d="M246.347,345.528h-13.9a1.948,1.948,0,0,1,0-3.9h13.9a1.948,1.948,0,0,1,0,3.9Z" transform="translate(-230.5 -317.956)"/></g><path class="f" d="M159.4,334.478h-11.95a1.948,1.948,0,0,1-1.948-1.948v-11.95a1.948,1.948,0,0,1,1.948-1.948H159.4a1.948,1.948,0,0,1,1.948,1.948v11.95A1.948,1.948,0,0,1,159.4,334.478Zm-10-3.9h8.053v-8.053H149.4Z" transform="translate(-54.406 -235.855)"/></g></g></svg>