<svg xmlns="http://www.w3.org/2000/svg" xmlns:xlink="http://www.w3.org/1999/xlink" width="67" height="54" viewBox="0 0 67 54"><defs><clipPath id="b"><rect width="67" height="54"/></clipPath></defs><g id="a" clip-path="url(#b)"><g transform="translate(-0.334 -53.875)"><path d="M64.065,84.726H58.6v-2a3.055,3.055,0,0,0-3.052-3.052H54.086v-7.57a2.152,2.152,0,0,0-2.15-2.15H45.911V61.691a2.612,2.612,0,0,0-2.61-2.61H30.948a.977.977,0,0,0,0,1.953H43.3a.657.657,0,0,1,.656.656v8.268c-11.857,0-33.12,0-33.2,0a.975.975,0,0,0-1.042.973v25.1A3.887,3.887,0,0,1,6.1,99.9a4.441,4.441,0,0,1-4.15-4.426V57.234a.976.976,0,0,1,.974-.974h13.12a.971.971,0,0,1,.754.358l2.735,3.344A2.917,2.917,0,0,0,21.8,61.035h5.24a.977.977,0,1,0,0-1.953H21.8a.971.971,0,0,1-.754-.358L18.314,55.38a2.917,2.917,0,0,0-2.266-1.074H2.928A2.931,2.931,0,0,0,0,57.234v38.8a5.843,5.843,0,0,0,5.836,5.836c6.46,0,7.048,0,11.136,0a.977.977,0,0,0,0-1.953H10.188a5.812,5.812,0,0,0,1.484-3.883V71.912H51.936a.2.2,0,0,1,.2.2v7.57H47.958a3.055,3.055,0,0,0-3.052,3.052v2H39.442a2.605,2.605,0,0,0-2.6,2.6V99.914H21.1a.977.977,0,1,0,0,1.953H36.839v2.362a2.605,2.605,0,0,0,2.6,2.6H64.065a2.6,2.6,0,0,0,2.6-2.6v-16.9a2.6,2.6,0,0,0-2.6-2.6Zm-8.516-3.094a1.1,1.1,0,0,1,1.1,1.1v2H54.086V81.632h1.463Zm-8.69,1.1a1.1,1.1,0,0,1,1.1-1.1h4.175v3.094H46.859v-2Zm17.206,22.147H39.441a.65.65,0,0,1-.649-.649V94.719l12.1,4.246a3.253,3.253,0,0,0,2.18-.011l3.873-1.4a.976.976,0,0,0-.665-1.836l-3.873,1.4a1.292,1.292,0,0,1-.868,0L38.792,92.65V87.329a.65.65,0,0,1,.649-.649H64.065a.65.65,0,0,1,.649.649v5.329l-4.729,1.714a.977.977,0,1,0,.666,1.836l4.063-1.473v9.494a.65.65,0,0,1-.649.649Z" transform="translate(0)" fill="#fff"/><path d="M380.545,325.293h-3.66a.977.977,0,0,0,0,1.953h3.66a.977.977,0,1,0,0-1.953Z" transform="translate(-326.962 -235.702)" fill="#fff"/></g></g></svg>