<svg xmlns="http://www.w3.org/2000/svg" xmlns:xlink="http://www.w3.org/1999/xlink" width="67" height="54" viewBox="0 0 67 54"><defs><clipPath id="b"><rect width="67" height="54"/></clipPath></defs><g id="a" clip-path="url(#b)"><g transform="translate(-21.441)"><g transform="translate(31.2)"><g transform="translate(0)"><path d="M168.3,441.569h-8.515v-2.479a1.091,1.091,0,1,0-2.181,0v2.479h-8.515a1.091,1.091,0,0,0,0,2.181h19.223a1.086,1.086,0,0,0,1.091-1.091A1.1,1.1,0,0,0,168.3,441.569Z" transform="translate(-135.133 -389.75)" fill="#fafafa"/><path d="M53.1,125.2a6.957,6.957,0,0,0-5.277,5.706H43.461a3.889,3.889,0,0,1,3.745-2.864,1.091,1.091,0,1,0,0-2.181,6.073,6.073,0,0,0-5.982,5.045h-8.6a1.08,1.08,0,0,0-1.421,1.035v5.949a2.506,2.506,0,0,0,2.5,2.5H75.825a2.506,2.506,0,0,0,2.5-2.5V108.9a2.506,2.506,0,0,0-2.5-2.5H64.038a1.091,1.091,0,1,0,0,2.181H75.825a.32.32,0,0,1,.319.319v29a.32.32,0,0,1-.319.319H33.7a.32.32,0,0,1-.319-.319v-4.8H72.73a1.091,1.091,0,0,0,0-2.181H68.07a6.073,6.073,0,0,0-5.982-5.045,1.091,1.091,0,1,0,0,2.181,3.88,3.88,0,0,1,3.745,2.864h-4.34a6.928,6.928,0,0,0-6.213-5.86A7.872,7.872,0,0,0,53.1,125.2Zm1.564,2a4.736,4.736,0,0,1,4.616,3.7H50.048A4.727,4.727,0,0,1,54.664,127.209Z" transform="translate(-31.2 -94.679)" fill="#fafafa"/><path d="M46.622,107.491a1.086,1.086,0,0,0-1.091-1.091H33.7a2.506,2.506,0,0,0-2.5,2.5v19.024a1.091,1.091,0,1,0,2.181,0V108.9a.32.32,0,0,1,.319-.319H45.532A1.086,1.086,0,0,0,46.622,107.491Z" transform="translate(-31.2 -94.679)" fill="#fafafa"/><path d="M176.276,29.412a1.086,1.086,0,0,0,1.091-1.091v-2.1h2.4a1.086,1.086,0,0,0,1.091-1.091v-2.17a3.923,3.923,0,0,0-.606-2.093l-1.685-2.655a1.549,1.549,0,0,1-.242-.848V8.647a5.489,5.489,0,0,0-1.344-3.6L172.949.375A1.08,1.08,0,0,0,172.123,0h0a1.091,1.091,0,0,0-.826.386l-3.988,4.671a5.548,5.548,0,0,0-1.322,3.58v8.659a1.545,1.545,0,0,1-.286.9l-1.8,2.589a3.875,3.875,0,0,0-.705,2.236v2.1a1.086,1.086,0,0,0,1.091,1.091l1.983.011v2.1a1.091,1.091,0,0,0,2.181,0v-2.1l.011-.011a1.091,1.091,0,1,0,0-2.181h-3.084V23.023a1.786,1.786,0,0,1,.308-.991l1.8-2.589a3.766,3.766,0,0,0,.672-2.159V8.636a3.344,3.344,0,0,1,.793-2.159l3.195-3.712,3.195,3.7a3.346,3.346,0,0,1,.8,2.17V17.35a3.737,3.737,0,0,0,.584,2.016l1.685,2.655a1.707,1.707,0,0,1,.264.925v1.08h-2.93a1.086,1.086,0,0,0-1.091,1.091,1.064,1.064,0,0,0,.529.925v2.28A1.093,1.093,0,0,0,176.276,29.412Z" transform="translate(-148.659)" fill="#fafafa"/></g><path d="M233.3,226.291v4.7a1.121,1.121,0,0,0,1.024,1.135,1.1,1.1,0,0,0,1.157-1.091v-4.748a1.086,1.086,0,0,0-1.091-1.091h0A1.086,1.086,0,0,0,233.3,226.291Z" transform="translate(-211.037 -200.392)" fill="#fafafa"/></g></g></g></svg>