<svg xmlns="http://www.w3.org/2000/svg" xmlns:xlink="http://www.w3.org/1999/xlink" width="18" height="19" viewBox="0 0 18 19"><defs><clipPath id="clip-Download"><path d="M0 0h18v19H0z"/></clipPath></defs><g id="Download" clip-path="url(#clip-Download)"><g id="download_1_" data-name="download (1)" transform="translate(-16 -.231)"><g id="Group_264" data-name="Group 264" transform="translate(20.207)"><g id="Group_263" data-name="Group 263"><path id="Path_255" data-name="Path 255" d="M137.56 8.766a.6.6 0 00-.547-.352h-2.4V.6a.6.6 0 00-.6-.6h-2.4a.6.6 0 00-.6.6v7.814h-2.4a.6.6 0 00-.452 1l4.207 4.808a.6.6 0 00.9 0l4.207-4.808a.6.6 0 00.085-.648z" transform="translate(-127.998)" fill="#0a7cbe"/></g></g><g id="Group_266" data-name="Group 266" transform="translate(16 13.222)"><g id="Group_265" data-name="Group 265"><path id="Path_256" data-name="Path 256" d="M31.626 352v3.606H18.4V352H16v4.808a1.2 1.2 0 001.2 1.2h15.628a1.2 1.2 0 001.2-1.2V352z" transform="translate(-16 -352)" fill="#0a7cbe"/></g></g></g></g></svg>