<svg xmlns="http://www.w3.org/2000/svg" xmlns:xlink="http://www.w3.org/1999/xlink" width="21" height="19" viewBox="0 0 21 19"><defs><clipPath id="b"><path d="M0 0h21v19H0z"/></clipPath></defs><g id="a" clip-path="url(#b)"><path d="M23.475 9.029A2.46 2.46 0 0021.7 8.3a2.5 2.5 0 00-1.777.729L6.412 22.561a.466.466 0 00-.114.205l-.957 3.873a.434.434 0 00.114.433.45.45 0 00.319.137.205.205 0 00.114-.023l3.873-.957a.441.441 0 00.205-.114L23.475 12.56a2.489 2.489 0 000-3.531zM7.368 22.88l10.32-10.32 2.255 2.255L9.624 25.136zm10.958-10.958l.957-.957 2.255 2.255-.957.957zM6.981 23.769l1.754 1.754-2.347.592zm15.856-11.847l-.638.638-2.255-2.26.638-.638a1.6 1.6 0 011.139-.456 1.548 1.548 0 011.116.456 1.609 1.609 0 010 2.26zm2.848 14.922a.457.457 0 01-.456.456H12.472a.456.456 0 110-.911h12.757a.443.443 0 01.456.455z" transform="translate(-5.552 -8.3)" fill="#d9ab2a"/></g></svg>