<svg xmlns="http://www.w3.org/2000/svg" xmlns:xlink="http://www.w3.org/1999/xlink" width="21" height="19" viewBox="0 0 21 19"><defs><clipPath id="b"><rect width="21" height="19"/></clipPath></defs><g id="a" clip-path="url(#b)"><path d="M23.475,9.029A2.46,2.46,0,0,0,21.7,8.3a2.5,2.5,0,0,0-1.777.729L6.412,22.561a.466.466,0,0,0-.114.205l-.957,3.873a.434.434,0,0,0,.114.433.45.45,0,0,0,.319.137.205.205,0,0,0,.114-.023l3.873-.957a.441.441,0,0,0,.205-.114L23.475,12.56a2.489,2.489,0,0,0,0-3.531ZM7.368,22.88l10.32-10.32,2.255,2.255L9.624,25.136ZM18.326,11.922l.957-.957,2.255,2.255-.957.957ZM6.981,23.769l1.754,1.754-2.347.592ZM22.837,11.922l-.638.638L19.944,10.3l.638-.638a1.6,1.6,0,0,1,1.139-.456,1.548,1.548,0,0,1,1.116.456A1.609,1.609,0,0,1,22.837,11.922Zm2.848,14.922a.457.457,0,0,1-.456.456H12.472a.456.456,0,1,1,0-.911H25.229A.443.443,0,0,1,25.685,26.844Z" transform="translate(-5.552 -8.3)" fill="#d9ab2a"/></g></svg>