<svg xmlns="http://www.w3.org/2000/svg" xmlns:xlink="http://www.w3.org/1999/xlink" width="137" height="138" viewBox="0 0 137 138"><defs><clipPath id="b"><rect width="137" height="138"/></clipPath></defs><g id="a" clip-path="url(#b)"><path d="M133.767,113.667H118.133V4.233A2.233,2.233,0,0,0,115.9,2H4.233A2.233,2.233,0,0,0,2,4.233v120.6A11.18,11.18,0,0,0,13.167,136H124.833A11.18,11.18,0,0,0,136,124.833V115.9A2.233,2.233,0,0,0,133.767,113.667ZM19.867,115.9v8.933a6.7,6.7,0,1,1-13.4,0V6.467h107.2v107.2H22.1A2.233,2.233,0,0,0,19.867,115.9Zm111.667,8.933a6.707,6.707,0,0,1-6.7,6.7H22.1a11.113,11.113,0,0,0,2.238-6.7v-6.7h107.2Z" fill="#68bbaf"/><path d="M23,34.167A11.167,11.167,0,1,0,34.167,23,11.18,11.18,0,0,0,23,34.167Zm17.867,0a6.7,6.7,0,1,1-6.7-6.7A6.707,6.707,0,0,1,40.867,34.167Z" transform="translate(25.9 25.9)" fill="#007b61"/><path d="M23.7,22.633H39.333V29.46c-.29.029-.564.05-.879.089a2.231,2.231,0,0,0-1.784,1.369L35.035,34.9a20.4,20.4,0,0,0-2.286.942l-3.967-1.659a2.231,2.231,0,0,0-2.229.3,24.752,24.752,0,0,0-4.4,4.4,2.235,2.235,0,0,0-.3,2.23l1.66,3.966a20.4,20.4,0,0,0-.944,2.288L18.583,49a2.237,2.237,0,0,0-1.367,1.785,22.523,22.523,0,0,0,0,6.222A2.237,2.237,0,0,0,18.583,58.8l3.985,1.635a20.451,20.451,0,0,0,.942,2.287l-1.658,3.966a2.233,2.233,0,0,0,.3,2.229,24.656,24.656,0,0,0,4.4,4.406,2.242,2.242,0,0,0,2.229.3l3.967-1.659a20.4,20.4,0,0,0,2.286.942l1.636,3.985a2.231,2.231,0,0,0,1.784,1.369c.313.04.588.059.879.088v6.828H23.7A2.233,2.233,0,0,0,21.467,87.4V98.567A2.233,2.233,0,0,0,23.7,100.8H59.433a2.233,2.233,0,0,0,2.233-2.233V87.4a2.233,2.233,0,0,0-2.233-2.233H43.8V78.339c.291-.028.566-.048.879-.088a2.231,2.231,0,0,0,1.784-1.369L48.1,72.9a20.068,20.068,0,0,0,2.286-.942l3.967,1.659a2.243,2.243,0,0,0,2.229-.3,24.657,24.657,0,0,0,4.4-4.406,2.234,2.234,0,0,0,.3-2.229l-1.66-3.966a20.292,20.292,0,0,0,.944-2.287L64.55,58.8a2.237,2.237,0,0,0,1.367-1.785,22.522,22.522,0,0,0,0-6.222A2.237,2.237,0,0,0,64.55,49l-3.985-1.635a20.452,20.452,0,0,0-.942-2.287l1.658-3.966a2.233,2.233,0,0,0-.3-2.229,24.656,24.656,0,0,0-4.4-4.406,2.233,2.233,0,0,0-2.229-.3l-3.967,1.659A20.4,20.4,0,0,0,48.1,34.9l-1.636-3.985a2.231,2.231,0,0,0-1.784-1.369c-.314-.04-.589-.06-.879-.089V22.633H59.433A2.233,2.233,0,0,0,61.667,20.4V9.233A2.233,2.233,0,0,0,59.433,7H23.7a2.233,2.233,0,0,0-2.233,2.233V20.4A2.233,2.233,0,0,0,23.7,22.633Zm33.5,73.7H25.933v-6.7H57.2ZM45.822,38.869a15.707,15.707,0,0,1,3.367,1.389,2.245,2.245,0,0,0,1.952.112l3.69-1.543a20.514,20.514,0,0,1,1.808,1.809L55.1,44.325a2.241,2.241,0,0,0,.111,1.952A15.525,15.525,0,0,1,56.6,49.646,2.229,2.229,0,0,0,57.9,51.1l3.719,1.526c.035.447.05.865.05,1.27s-.015.823-.05,1.27L57.9,56.7a2.229,2.229,0,0,0-1.3,1.458,15.6,15.6,0,0,1-1.389,3.365,2.241,2.241,0,0,0-.113,1.955l1.544,3.689a20.364,20.364,0,0,1-1.808,1.809l-3.69-1.543a2.242,2.242,0,0,0-1.954.113,15.568,15.568,0,0,1-3.365,1.388,2.227,2.227,0,0,0-1.457,1.3l-1.527,3.719a16.5,16.5,0,0,1-2.543,0l-1.527-3.719a2.227,2.227,0,0,0-1.457-1.3,15.707,15.707,0,0,1-3.367-1.389,2.241,2.241,0,0,0-1.952-.112L28.3,68.973a20.513,20.513,0,0,1-1.808-1.809l1.542-3.689a2.241,2.241,0,0,0-.111-1.952,15.524,15.524,0,0,1-1.389-3.369,2.229,2.229,0,0,0-1.3-1.458L21.517,55.17c-.035-.447-.05-.865-.05-1.27s.015-.823.05-1.27L25.235,51.1a2.229,2.229,0,0,0,1.3-1.458,15.6,15.6,0,0,1,1.389-3.365,2.241,2.241,0,0,0,.113-1.955l-1.544-3.69A20.5,20.5,0,0,1,28.3,38.827l3.69,1.543a2.245,2.245,0,0,0,1.952-.112,15.707,15.707,0,0,1,3.367-1.389,2.227,2.227,0,0,0,1.457-1.3L40.3,33.849a16.5,16.5,0,0,1,2.543,0l1.527,3.719a2.227,2.227,0,0,0,1.457,1.3Zm-19.888-27.4H57.2v6.7H25.933Z" transform="translate(18.5 6.167)" fill="#68bbaf"/><path d="M42.073,24.829a31.268,31.268,0,0,1-3.812,39.594l3.158,3.158A35.653,35.653,0,0,0,44.683,20.86h4.633V16.394H39.84a2.233,2.233,0,0,0-2.233,2.233V28.1h4.467Z" transform="translate(43.915 17.752)" fill="#007b61"/><path d="M14.569,63.408v4.467h9.476a2.233,2.233,0,0,0,2.233-2.233V56.166H21.812v3.273a31.267,31.267,0,0,1,3.812-39.594l-3.158-3.158A35.653,35.653,0,0,0,19.2,63.408Z" transform="translate(12.333 18.113)" fill="#007b61"/></g></svg>