<svg xmlns="http://www.w3.org/2000/svg" xmlns:xlink="http://www.w3.org/1999/xlink" width="137" height="138" viewBox="0 0 137 138"><defs><clipPath id="b"><path d="M0 0h137v138H0z"/></clipPath></defs><g id="a" clip-path="url(#b)"><path d="M133.767 113.667h-15.634V4.233A2.233 2.233 0 00115.9 2H4.233A2.233 2.233 0 002 4.233v120.6A11.18 11.18 0 0013.167 136h111.666A11.18 11.18 0 00136 124.833V115.9a2.233 2.233 0 00-2.233-2.233zm-113.9 2.233v8.933a6.7 6.7 0 11-13.4 0V6.467h107.2v107.2H22.1a2.233 2.233 0 00-2.233 2.233zm111.667 8.933a6.707 6.707 0 01-6.7 6.7H22.1a11.113 11.113 0 002.238-6.7v-6.7h107.2z" fill="#68bbaf"/><path d="M23 34.167A11.167 11.167 0 1034.167 23 11.18 11.18 0 0023 34.167zm17.867 0a6.7 6.7 0 11-6.7-6.7 6.707 6.707 0 016.7 6.7z" transform="translate(25.9 25.9)" fill="#007b61"/><path d="M23.7 22.633h15.633v6.827c-.29.029-.564.05-.879.089a2.231 2.231 0 00-1.784 1.369L35.035 34.9a20.4 20.4 0 00-2.286.942l-3.967-1.659a2.231 2.231 0 00-2.229.3 24.752 24.752 0 00-4.4 4.4 2.235 2.235 0 00-.3 2.23l1.66 3.966a20.4 20.4 0 00-.944 2.288L18.583 49a2.237 2.237 0 00-1.367 1.785 22.523 22.523 0 000 6.222 2.237 2.237 0 001.367 1.793l3.985 1.635a20.451 20.451 0 00.942 2.287l-1.658 3.966a2.233 2.233 0 00.3 2.229 24.656 24.656 0 004.4 4.406 2.242 2.242 0 002.229.3l3.967-1.659a20.4 20.4 0 002.286.942l1.636 3.985a2.231 2.231 0 001.784 1.369c.313.04.588.059.879.088v6.828H23.7a2.233 2.233 0 00-2.233 2.224v11.167A2.233 2.233 0 0023.7 100.8h35.733a2.233 2.233 0 002.233-2.233V87.4a2.233 2.233 0 00-2.233-2.233H43.8v-6.828c.291-.028.566-.048.879-.088a2.231 2.231 0 001.784-1.369L48.1 72.9a20.068 20.068 0 002.286-.942l3.967 1.659a2.243 2.243 0 002.229-.3 24.657 24.657 0 004.4-4.406 2.234 2.234 0 00.3-2.229l-1.66-3.966a20.292 20.292 0 00.944-2.287L64.55 58.8a2.237 2.237 0 001.367-1.785 22.522 22.522 0 000-6.222A2.237 2.237 0 0064.55 49l-3.985-1.635a20.452 20.452 0 00-.942-2.287l1.658-3.966a2.233 2.233 0 00-.3-2.229 24.656 24.656 0 00-4.4-4.406 2.233 2.233 0 00-2.229-.3l-3.967 1.659A20.4 20.4 0 0048.1 34.9l-1.636-3.985a2.231 2.231 0 00-1.784-1.369c-.314-.04-.589-.06-.879-.089v-6.824h15.632a2.233 2.233 0 002.234-2.233V9.233A2.233 2.233 0 0059.433 7H23.7a2.233 2.233 0 00-2.233 2.233V20.4a2.233 2.233 0 002.233 2.233zm33.5 73.7H25.933v-6.7H57.2zM45.822 38.869a15.707 15.707 0 013.367 1.389 2.245 2.245 0 001.952.112l3.69-1.543a20.514 20.514 0 011.808 1.809L55.1 44.325a2.241 2.241 0 00.111 1.952 15.525 15.525 0 011.389 3.369 2.229 2.229 0 001.3 1.454l3.719 1.526a16.156 16.156 0 010 2.54L57.9 56.7a2.229 2.229 0 00-1.3 1.458 15.6 15.6 0 01-1.389 3.365 2.241 2.241 0 00-.113 1.955l1.544 3.689a20.364 20.364 0 01-1.808 1.809l-3.69-1.543a2.242 2.242 0 00-1.954.113 15.568 15.568 0 01-3.365 1.388 2.227 2.227 0 00-1.457 1.3l-1.527 3.719a16.5 16.5 0 01-2.543 0l-1.527-3.719a2.227 2.227 0 00-1.457-1.3 15.707 15.707 0 01-3.367-1.389 2.241 2.241 0 00-1.952-.112l-3.695 1.54a20.513 20.513 0 01-1.808-1.809l1.542-3.689a2.241 2.241 0 00-.111-1.952 15.524 15.524 0 01-1.389-3.369 2.229 2.229 0 00-1.3-1.458l-3.717-1.526a16.156 16.156 0 010-2.54l3.718-1.53a2.229 2.229 0 001.3-1.458 15.6 15.6 0 011.389-3.365 2.241 2.241 0 00.113-1.955l-1.544-3.69a20.5 20.5 0 011.807-1.805l3.69 1.543a2.245 2.245 0 001.952-.112 15.707 15.707 0 013.367-1.389 2.227 2.227 0 001.457-1.3l1.534-3.72a16.5 16.5 0 012.543 0l1.527 3.719a2.227 2.227 0 001.457 1.3zm-19.888-27.4H57.2v6.7H25.933z" transform="translate(18.5 6.167)" fill="#68bbaf"/><path d="M42.073 24.829a31.268 31.268 0 01-3.812 39.594l3.158 3.158a35.653 35.653 0 003.264-46.721h4.633v-4.466H39.84a2.233 2.233 0 00-2.233 2.233V28.1h4.467z" transform="translate(43.915 17.752)" fill="#007b61"/><path d="M14.569 63.408v4.467h9.476a2.233 2.233 0 002.233-2.233v-9.476h-4.466v3.273a31.267 31.267 0 013.812-39.594l-3.158-3.158A35.653 35.653 0 0019.2 63.408z" transform="translate(12.333 18.113)" fill="#007b61"/></g></svg>