<svg xmlns="http://www.w3.org/2000/svg" xmlns:xlink="http://www.w3.org/1999/xlink" width="50" height="49" viewBox="0 0 50 49"><defs><clipPath id="b"><rect width="50" height="49"/></clipPath></defs><g id="a" clip-path="url(#b)"><g transform="translate(0.443 0.443)"><path d="M43.555,26.48v-14.9a5.317,5.317,0,1,0-6.079-5.259H1v30.4H23.836A12.151,12.151,0,1,0,43.555,26.48ZM42.8,2.52a3.8,3.8,0,1,1-3.8,3.8A3.8,3.8,0,0,1,42.8,2.52ZM2.52,7.839H37.7a5.316,5.316,0,0,0,.841,1.66l-4.648,4.648a2.2,2.2,0,0,0-1.954,0l-1.531-1.531a2.258,2.258,0,0,0,.228-.977,2.28,2.28,0,0,0-4.559,0,2.242,2.242,0,0,0,.229.976l-3.811,3.811a2.258,2.258,0,0,0-.977-.228,2.28,2.28,0,1,0,2.28,2.28,2.242,2.242,0,0,0-.229-.976l3.811-3.811a2.2,2.2,0,0,0,1.954,0l1.531,1.531a2.258,2.258,0,0,0-.228.977,2.28,2.28,0,0,0,4.559,0,2.242,2.242,0,0,0-.229-.976l4.648-4.648a5.287,5.287,0,0,0,2.42,1V25.443a12.085,12.085,0,0,0-15.2,2.5V24.557H22.278v9.119h1.742a12.19,12.19,0,0,0-.183,1.52H2.52Zm30.4,7.6a.76.76,0,1,1-.76.76A.761.761,0,0,1,32.916,15.438Zm-5.319-3.8a.76.76,0,1,1,.76.76A.761.761,0,0,1,27.6,11.639Zm-5.319,6.839a.76.76,0,1,1-.76-.76A.761.761,0,0,1,22.278,18.478ZM35.956,42.035a6.079,6.079,0,1,1,6.079-6.079A6.086,6.086,0,0,1,35.956,42.035ZM25.317,30.083a12.067,12.067,0,0,0-.9,2.074H23.8V26.077h1.52ZM35.2,25.356V28.4a7.583,7.583,0,0,0-6.162,10.679L26.4,40.6a10.6,10.6,0,0,1,8.8-15.241Zm.76,21.239a10.633,10.633,0,0,1-8.806-4.677L29.8,40.389a7.574,7.574,0,0,0,12.318,0l2.647,1.528A10.633,10.633,0,0,1,35.956,46.595Zm9.558-6-2.636-1.522A7.583,7.583,0,0,0,36.716,28.4v-3.04a10.6,10.6,0,0,1,8.8,15.241Z" fill="#51a79b"/><path d="M45.559,41a4.559,4.559,0,1,0,4.559,4.559A4.564,4.564,0,0,0,45.559,41Zm0,7.6a3.04,3.04,0,1,1,3.04-3.04A3.043,3.043,0,0,1,45.559,48.6Z" transform="translate(-9.603 -9.603)" fill="#68bbaf"/><path d="M5,12H6.52v1.52H5Z" transform="translate(-0.96 -2.641)" fill="#51a79b"/><path d="M9,12H19.639v1.52H9Z" transform="translate(-1.921 -2.641)" fill="#007b61"/><path d="M5,16H6.52v1.52H5Z" transform="translate(-0.96 -3.601)" fill="#51a79b"/><path d="M9,16H19.639v1.52H9Z" transform="translate(-1.921 -3.601)" fill="#007b61"/><path d="M5,20H6.52v1.52H5Z" transform="translate(-0.96 -4.562)" fill="#51a79b"/><path d="M9,20H19.639v1.52H9Z" transform="translate(-1.921 -4.562)" fill="#007b61"/><path d="M5,24H6.52v1.52H5Z" transform="translate(-0.96 -5.522)" fill="#51a79b"/><path d="M9,24H19.639v1.52H9Z" transform="translate(-1.921 -5.522)" fill="#007b61"/><path d="M5,41.6H9.559V34H5ZM6.52,35.52H8.04v4.559H6.52Z" transform="translate(-0.96 -7.923)" fill="#007b61"/><path d="M13,42.079h4.559V36H13Zm1.52-4.559h1.52v3.04H14.52Z" transform="translate(-2.881 -8.403)" fill="#51a79b"/><path d="M21,40.159h4.559V28H21ZM22.52,29.52h1.52v9.119H22.52Z" transform="translate(-4.802 -6.482)" fill="#007b61"/></g></g></svg>