<svg xmlns="http://www.w3.org/2000/svg" xmlns:xlink="http://www.w3.org/1999/xlink" width="50" height="49" viewBox="0 0 50 49"><defs><clipPath id="b"><rect width="50" height="49"/></clipPath></defs><g id="a" clip-path="url(#b)"><g transform="translate(-47.367 -0.184)"><path d="M90,36.029a.722.722,0,0,0,.722-.722V2.166A2.168,2.168,0,0,0,88.559,0H56.179a2.168,2.168,0,0,0-2.166,2.166V5.943a3.211,3.211,0,0,0,0,6.3v1.447a3.211,3.211,0,0,0,0,6.3v1.447a3.211,3.211,0,0,0,0,6.3V29.19a3.211,3.211,0,0,0,0,6.3v1.447a3.211,3.211,0,0,0,0,6.3v3.778a2.168,2.168,0,0,0,2.166,2.166H88.559a2.168,2.168,0,0,0,2.166-2.166V38.195a.722.722,0,0,0-1.444,0v8.824a.723.723,0,0,1-.722.722H56.179a.723.723,0,0,1-.722-.722V38.528A1.769,1.769,0,0,1,56.4,40.09a.722.722,0,0,0,1.444,0,3.217,3.217,0,0,0-2.386-3.1V30.779a1.769,1.769,0,0,1,.942,1.562.722.722,0,0,0,1.444,0,3.217,3.217,0,0,0-2.386-3.1V23.03a1.769,1.769,0,0,1,.942,1.562.722.722,0,1,0,1.444,0,3.217,3.217,0,0,0-2.386-3.1V15.281a1.769,1.769,0,0,1,.942,1.562.722.722,0,0,0,1.444,0,3.217,3.217,0,0,0-2.386-3.1V7.533A1.769,1.769,0,0,1,56.4,9.094a.722.722,0,0,0,1.444,0,3.217,3.217,0,0,0-2.386-3.1V2.166a.723.723,0,0,1,.722-.722H88.559a.723.723,0,0,1,.722.722V35.307A.722.722,0,0,0,90,36.029ZM52.864,9.094a1.769,1.769,0,0,1,1.149-1.654v3.308A1.769,1.769,0,0,1,52.864,9.094Zm0,7.749a1.769,1.769,0,0,1,1.149-1.654V18.5A1.769,1.769,0,0,1,52.864,16.843Zm0,7.749a1.769,1.769,0,0,1,1.149-1.654v3.308A1.769,1.769,0,0,1,52.864,24.592Zm0,7.749a1.769,1.769,0,0,1,1.149-1.654v3.308A1.769,1.769,0,0,1,52.864,32.341Zm0,7.749a1.769,1.769,0,0,1,1.149-1.654v3.308A1.769,1.769,0,0,1,52.864,40.09Z" transform="translate(0 0)" fill="#51a79b"/><path d="M292.131,56.523a.722.722,0,0,0-.722.722V60.36a.722.722,0,0,0,1.444,0V58A8.411,8.411,0,0,1,300.5,65.64h-7.643V63.247a.722.722,0,0,0-1.444,0v3.115a.722.722,0,0,0,.722.722h9.117a.722.722,0,0,0,.722-.722A9.85,9.85,0,0,0,292.131,56.523Z" transform="translate(-216.935 -51.093)" fill="#007b61"/><path d="M182.051,93.887a9.131,9.131,0,0,0-9.12,9.12.722.722,0,1,0,1.444,0,7.687,7.687,0,0,1,6.955-7.643v7.643a.771.771,0,0,0,.047.255l2.7,7.147a7.674,7.674,0,0,1-9.254-4.8.722.722,0,1,0-1.358.489,9.123,9.123,0,0,0,11.773,5.456l.039-.013.037-.016a9.135,9.135,0,0,0,5.856-8.516.722.722,0,0,0-.722-.722h-7.676V94.609a.722.722,0,0,0-.722-.722Zm3.378,16.011-2.333-6.169h6.6a7.691,7.691,0,0,1-4.265,6.169Z" transform="translate(-109.838 -84.868)" fill="#51a79b"/><path d="M184.659,329.149H163.152a.722.722,0,1,0,0,1.444h21.508a.722.722,0,0,0,0-1.444Z" transform="translate(-100.346 -297.53)" fill="#007b61"/><path d="M185.38,375.78a.722.722,0,0,0-.722-.722H163.151a.722.722,0,1,0,0,1.444h21.508A.722.722,0,0,0,185.38,375.78Z" transform="translate(-100.345 -339.029)" fill="#51a79b"/><path d="M163.151,420.968a.722.722,0,1,0,0,1.444h15.314a.722.722,0,1,0,0-1.444Z" transform="translate(-100.345 -380.529)" fill="#51a79b"/></g></g></svg>