<svg xmlns="http://www.w3.org/2000/svg" xmlns:xlink="http://www.w3.org/1999/xlink" width="50" height="49" viewBox="0 0 50 49"><defs><clipPath id="b"><rect width="50" height="49"/></clipPath></defs><g id="a" clip-path="url(#b)"><g transform="translate(1)"><path d="M48.184,47.367H44.917V24.5a2.453,2.453,0,0,0-2.45-2.45v-4.9a2.453,2.453,0,0,0-2.45-2.45V9.8a2.453,2.453,0,0,0-2.45-2.45V2.45A2.453,2.453,0,0,0,35.117,0H13.884a2.453,2.453,0,0,0-2.45,2.45v4.9A2.453,2.453,0,0,0,8.983,9.8v4.9a2.453,2.453,0,0,0-2.45,2.45v4.9a2.453,2.453,0,0,0-2.45,2.45V47.367H.817A.817.817,0,0,0,.817,49H48.184a.817.817,0,0,0,0-1.633ZM13.067,2.45a.817.817,0,0,1,.817-.817H35.117a.817.817,0,0,1,.817.817v4.9H23.6a4.083,4.083,0,0,0-8,0H13.067V2.45ZM21.9,7.35H17.3a2.435,2.435,0,0,1,4.6,0ZM10.617,9.8a.817.817,0,0,1,.817-.817H37.567a.817.817,0,0,1,.817.817v4.9H21.151a4.083,4.083,0,0,0-8,0H10.617V9.8Zm8.833,4.9h-4.6a2.435,2.435,0,0,1,4.6,0ZM8.167,17.15a.817.817,0,0,1,.817-.817H40.017a.817.817,0,0,1,.817.817v4.9H18.7a4.083,4.083,0,0,0-8,0H8.167ZM17,22.05H12.4a2.435,2.435,0,0,1,4.6,0ZM43.284,47.367H5.717V24.5a.817.817,0,0,1,.817-.817H42.467a.817.817,0,0,1,.817.817V47.367Z" fill="#51a79b"/><path d="M98.767,291.4a4.9,4.9,0,1,0-4.9-4.9A4.9,4.9,0,0,0,98.767,291.4Zm0-8.167A3.267,3.267,0,1,1,95.5,286.5,3.267,3.267,0,0,1,98.767,283.233Z" transform="translate(-84.884 -254.65)" fill="#007b61"/><path d="M239.834,281.6h-17.15a.817.817,0,0,0,0,1.633h17.15a.817.817,0,0,0,0-1.633Z" transform="translate(-200.633 -254.65)" fill="#007b61"/><path d="M239.834,324.267h-17.15a.817.817,0,0,0,0,1.633h17.15a.817.817,0,0,0,0-1.633Z" transform="translate(-200.633 -293.233)" fill="#51a79b"/><path d="M239.834,366.933h-17.15a.817.817,0,0,0,0,1.633h17.15a.817.817,0,0,0,0-1.633Z" transform="translate(-200.633 -331.816)" fill="#51a79b"/><path d="M124.084,409.6h-29.4a.817.817,0,1,0,0,1.633h29.4a.817.817,0,0,0,0-1.633Z" transform="translate(-84.884 -370.4)" fill="#51a79b"/><path d="M124.084,452.267h-29.4a.817.817,0,0,0,0,1.633h29.4a.817.817,0,0,0,0-1.633Z" transform="translate(-84.884 -408.983)" fill="#51a79b"/></g></g></svg>