<svg xmlns="http://www.w3.org/2000/svg" xmlns:xlink="http://www.w3.org/1999/xlink" width="50" height="49" viewBox="0 0 50 49"><defs><clipPath id="b"><path d="M0 0h50v49H0z"/></clipPath></defs><g id="a" clip-path="url(#b)"><path d="M32.734 0H6.5v48.56h38.039V11.805zm.474 2.763l8.568 8.568h-8.568zM8.119 46.942V1.619h23.47v11.33H42.92v33.993z" fill="#51a79b" transform="translate(.417)"/><path d="M39.259 21h-12.95a.809.809 0 000 1.619h12.95a.809.809 0 000-1.619z" transform="translate(-3.206 -4.004)" fill="#51a79b"/><path d="M21.469 18.177l-3.481 2.785-1.106-1.106A.809.809 0 1015.737 21l1.619 1.619a.809.809 0 001.077.06l4.047-3.237a.809.809 0 00-1.011-1.264z" transform="translate(-1.299 -3.432)" fill="#007b61"/><path d="M39.259 32h-12.95a.809.809 0 100 1.619h12.95a.809.809 0 000-1.619z" transform="translate(-3.206 -6.101)" fill="#51a79b"/><path d="M21.469 29.177l-3.481 2.785-1.106-1.106A.809.809 0 1015.737 32l1.619 1.619a.809.809 0 001.077.06l4.047-3.237a.809.809 0 00-1.011-1.264z" transform="translate(-1.299 -5.529)" fill="#007b61"/><path d="M39.259 43h-12.95a.809.809 0 000 1.619h12.95a.809.809 0 000-1.619z" transform="translate(-3.206 -8.198)" fill="#51a79b"/><path d="M21.469 40.177l-3.481 2.785-1.106-1.106A.809.809 0 1015.737 43l1.619 1.619a.809.809 0 001.077.06l4.047-3.237a.809.809 0 00-1.011-1.264z" transform="translate(-1.299 -7.626)" fill="#007b61"/></g></svg>