<svg xmlns="http://www.w3.org/2000/svg" xmlns:xlink="http://www.w3.org/1999/xlink" width="50" height="49" viewBox="0 0 50 49"><defs><clipPath id="b"><rect width="50" height="49"/></clipPath></defs><g id="a" clip-path="url(#b)"><g transform="translate(0.417)"><path d="M32.734,0H6.5V48.56H44.539V11.805Zm.474,2.763,8.568,8.568H33.208ZM8.119,46.942V1.619H31.589V12.949H42.92V46.942Z" fill="#51a79b"/><path d="M39.259,21H26.309a.809.809,0,0,0,0,1.619H39.259a.809.809,0,0,0,0-1.619Z" transform="translate(-3.623 -4.004)" fill="#51a79b"/><path d="M21.469,18.177l-3.481,2.785-1.106-1.106A.809.809,0,1,0,15.737,21l1.619,1.619a.809.809,0,0,0,1.077.06l4.047-3.237a.809.809,0,0,0-1.011-1.264Z" transform="translate(-1.716 -3.432)" fill="#007b61"/><path d="M39.259,32H26.309a.809.809,0,1,0,0,1.619H39.259a.809.809,0,0,0,0-1.619Z" transform="translate(-3.623 -6.101)" fill="#51a79b"/><path d="M21.469,29.177l-3.481,2.785-1.106-1.106A.809.809,0,1,0,15.737,32l1.619,1.619a.809.809,0,0,0,1.077.06l4.047-3.237a.809.809,0,0,0-1.011-1.264Z" transform="translate(-1.716 -5.529)" fill="#007b61"/><path d="M39.259,43H26.309a.809.809,0,0,0,0,1.619H39.259a.809.809,0,0,0,0-1.619Z" transform="translate(-3.623 -8.198)" fill="#51a79b"/><path d="M21.469,40.177l-3.481,2.785-1.106-1.106A.809.809,0,1,0,15.737,43l1.619,1.619a.809.809,0,0,0,1.077.06l4.047-3.237a.809.809,0,0,0-1.011-1.264Z" transform="translate(-1.716 -7.626)" fill="#007b61"/></g></g></svg>