<svg xmlns="http://www.w3.org/2000/svg" xmlns:xlink="http://www.w3.org/1999/xlink" width="50" height="49" viewBox="0 0 50 49"><defs><clipPath id="b"><rect width="50" height="49"/></clipPath></defs><g id="a" clip-path="url(#b)"><g transform="translate(0.846 1.156)"><g transform="translate(20.452 33.067)"><path d="M220.594,354.254a.933.933,0,1,0,.274.66A.936.936,0,0,0,220.594,354.254Z" transform="translate(-219 -353.98)" fill="#51a79b"/></g><g transform="translate(0 5.051)"><path d="M41.839,73.977a.934.934,0,0,0-.934.934v4.107H24.842V76.713A6.979,6.979,0,0,0,18.734,69.8a4.855,4.855,0,0,0,1.088-3.066v-6.57a.934.934,0,0,0-.934-.934H14a3.942,3.942,0,0,0-3.937,3.937v3.567A4.855,4.855,0,0,0,11.151,69.8a6.979,6.979,0,0,0-6.108,6.915v2.305H1.868V56.582a.727.727,0,0,1,.729-.724H22.009a.934.934,0,0,0,0-1.868H2.6A2.6,2.6,0,0,0,0,56.582V84.271a2.6,2.6,0,0,0,2.6,2.592H16.808v4.314a4.682,4.682,0,0,0-4.2,4.651.934.934,0,0,0,.934.934h15.69a.934.934,0,0,0,.934-.934,4.682,4.682,0,0,0-4.2-4.651V86.863H40.176a2.6,2.6,0,0,0,2.6-2.592v-9.36A.934.934,0,0,0,41.839,73.977ZM11.931,63.166A2.072,2.072,0,0,1,14,61.1h3.952v1.491a1.345,1.345,0,0,1-1.344,1.343H11.931Zm0,2.633H16.61a3.19,3.19,0,0,0,1.344-.3v1.229h0a3.011,3.011,0,0,1-6.022,0Zm4.1,5.812-1.09,1.09-1.09-1.09Zm-9.121,5.1a5.11,5.11,0,0,1,4.355-5.047l3.016,3.016a.934.934,0,0,0,1.321,0l3.016-3.016a5.11,5.11,0,0,1,4.356,5.047v2.305H6.911ZM28.137,94.895h-13.5a2.812,2.812,0,0,1,2.648-1.874H25.49A2.812,2.812,0,0,1,28.137,94.895Zm-9.461-3.741v-4.29H24.1v4.29ZM40.9,84.271a.727.727,0,0,1-.729.724H2.6a.727.727,0,0,1-.729-.724V80.886H40.9Z" transform="translate(0 -53.99)" fill="#51a79b"/></g><g transform="translate(40.905 21.521)"><path d="M439.594,230.614a.933.933,0,1,0,.274.66A.941.941,0,0,0,439.594,230.614Z" transform="translate(-438 -230.34)" fill="#51a79b"/></g><g transform="translate(33.901 4.399)"><path d="M370.938,47.01h-7a.934.934,0,1,0,0,1.868h7a.934.934,0,0,0,0-1.868Z" transform="translate(-363 -47.01)" fill="#007b61"/></g><g transform="translate(30.072 4.399)"><path d="M323.594,47.284a.933.933,0,1,0,.274.66A.941.941,0,0,0,323.594,47.284Z" transform="translate(-322 -47.01)" fill="#007b61"/></g><g transform="translate(30.072 8.508)"><path d="M333.767,91.01H322.934a.934.934,0,1,0,0,1.868h10.833a.934.934,0,0,0,0-1.868Z" transform="translate(-322 -91.01)" fill="#007b61"/></g><g transform="translate(30.072 12.618)"><path d="M333.767,135.01H322.934a.934.934,0,1,0,0,1.868h10.833a.934.934,0,0,0,0-1.868Z" transform="translate(-322 -135.01)" fill="#007b61"/></g><g transform="translate(25.028 0.01)"><path d="M286.118.01H272.669A4.675,4.675,0,0,0,268,4.679v9.993a4.676,4.676,0,0,0,4.14,4.64v2.427a.934.934,0,0,0,1.594.66l3.057-3.057h9.326a4.675,4.675,0,0,0,4.669-4.669V4.679A4.675,4.675,0,0,0,286.118.01Zm2.8,14.662a2.8,2.8,0,0,1-2.8,2.8h-9.713a.934.934,0,0,0-.66.274l-1.737,1.737V18.408a.934.934,0,0,0-.934-.934h-.4a2.8,2.8,0,0,1-2.8-2.8V4.679a2.8,2.8,0,0,1,2.8-2.8h13.448a2.8,2.8,0,0,1,2.8,2.8Z" transform="translate(-268 -0.01)" fill="#51a79b"/></g></g></g></svg>