<svg xmlns="http://www.w3.org/2000/svg" xmlns:xlink="http://www.w3.org/1999/xlink" width="50" height="49" viewBox="0 0 50 49"><defs><clipPath id="b"><path d="M0 0h50v49H0z"/></clipPath></defs><g id="a" clip-path="url(#b)"><path d="M48.184 47.367h-3.267V24.5a2.453 2.453 0 00-2.45-2.45v-4.9a2.453 2.453 0 00-2.45-2.45V9.8a2.453 2.453 0 00-2.45-2.45v-4.9A2.453 2.453 0 0035.117 0H13.884a2.453 2.453 0 00-2.45 2.45v4.9A2.453 2.453 0 008.983 9.8v4.9a2.453 2.453 0 00-2.45 2.45v4.9a2.453 2.453 0 00-2.45 2.45v22.867H.817a.817.817 0 000 1.633h47.367a.817.817 0 000-1.633zM13.067 2.45a.817.817 0 01.817-.817h21.233a.817.817 0 01.817.817v4.9H23.6a4.083 4.083 0 00-8 0h-2.533v-4.9zm8.833 4.9h-4.6a2.435 2.435 0 014.6 0zM10.617 9.8a.817.817 0 01.817-.817h26.133a.817.817 0 01.817.817v4.9H21.151a4.083 4.083 0 00-8 0h-2.534V9.8zm8.833 4.9h-4.6a2.435 2.435 0 014.6 0zM8.167 17.15a.817.817 0 01.817-.817h31.033a.817.817 0 01.817.817v4.9H18.7a4.083 4.083 0 00-8 0H8.167zM17 22.05h-4.6a2.435 2.435 0 014.6 0zm26.284 25.317H5.717V24.5a.817.817 0 01.817-.817h35.933a.817.817 0 01.817.817v22.867z" fill="#51a79b" transform="translate(1)"/><path d="M98.767 291.4a4.9 4.9 0 10-4.9-4.9 4.9 4.9 0 004.9 4.9zm0-8.167A3.267 3.267 0 1195.5 286.5a3.267 3.267 0 013.267-3.267z" transform="translate(-83.884 -254.65)" fill="#007b61"/><path d="M239.834 281.6h-17.15a.817.817 0 000 1.633h17.15a.817.817 0 000-1.633z" transform="translate(-199.633 -254.65)" fill="#007b61"/><path d="M239.834 324.267h-17.15a.817.817 0 000 1.633h17.15a.817.817 0 000-1.633z" transform="translate(-199.633 -293.233)" fill="#51a79b"/><path d="M239.834 366.933h-17.15a.817.817 0 000 1.633h17.15a.817.817 0 000-1.633z" transform="translate(-199.633 -331.816)" fill="#51a79b"/><path d="M124.084 409.6h-29.4a.817.817 0 100 1.633h29.4a.817.817 0 000-1.633z" transform="translate(-83.884 -370.4)" fill="#51a79b"/><path d="M124.084 452.267h-29.4a.817.817 0 000 1.633h29.4a.817.817 0 000-1.633z" transform="translate(-83.884 -408.983)" fill="#51a79b"/></g></svg>