<svg xmlns="http://www.w3.org/2000/svg" xmlns:xlink="http://www.w3.org/1999/xlink" width="50" height="49" viewBox="0 0 50 49"><defs><clipPath id="b"><path d="M0 0h50v49H0z"/></clipPath></defs><g id="a" clip-path="url(#b)"><path d="M220.594 354.254a.933.933 0 10.274.66.936.936 0 00-.274-.66z" transform="translate(-197.702 -319.757)" fill="#51a79b"/><path d="M41.839 73.977a.934.934 0 00-.934.934v4.107H24.842v-2.305a6.979 6.979 0 00-6.108-6.913 4.855 4.855 0 001.088-3.066v-6.57a.934.934 0 00-.934-.934H14a3.942 3.942 0 00-3.937 3.937v3.567a4.855 4.855 0 001.088 3.066 6.979 6.979 0 00-6.108 6.915v2.305H1.868V56.582a.727.727 0 01.729-.724h19.412a.934.934 0 000-1.868H2.6A2.6 2.6 0 000 56.582v27.689a2.6 2.6 0 002.6 2.592h14.208v4.314a4.682 4.682 0 00-4.2 4.651.934.934 0 00.934.934h15.69a.934.934 0 00.934-.934 4.682 4.682 0 00-4.2-4.651v-4.314h14.21a2.6 2.6 0 002.6-2.592v-9.36a.934.934 0 00-.937-.934zM11.931 63.166A2.072 2.072 0 0114 61.1h3.952v1.491a1.345 1.345 0 01-1.344 1.343h-4.677zm0 2.633h4.679a3.19 3.19 0 001.344-.3v1.229a3.011 3.011 0 01-6.022 0zm4.1 5.812l-1.09 1.09-1.09-1.09zm-9.121 5.1a5.11 5.11 0 014.355-5.047l3.016 3.016a.934.934 0 001.321 0l3.016-3.016a5.11 5.11 0 014.356 5.047v2.305H6.911zm21.227 18.184h-13.5a2.812 2.812 0 012.648-1.874h8.205a2.812 2.812 0 012.647 1.874zm-9.461-3.741v-4.29H24.1v4.29zM40.9 84.271a.727.727 0 01-.729.724H2.6a.727.727 0 01-.729-.724v-3.385H40.9z" transform="translate(.846 -47.783)" fill="#51a79b"/><path d="M439.594 230.614a.933.933 0 10.274.66.941.941 0 00-.274-.66z" transform="translate(-396.249 -207.663)" fill="#51a79b"/><path d="M370.938 47.01h-7a.934.934 0 100 1.868h7a.934.934 0 000-1.868z" transform="translate(-328.253 -41.455)" fill="#007b61"/><path d="M323.594 47.284a.933.933 0 10.274.66.941.941 0 00-.274-.66z" transform="translate(-291.082 -41.455)" fill="#007b61"/><path d="M333.767 91.01h-10.833a.934.934 0 100 1.868h10.833a.934.934 0 000-1.868z" transform="translate(-291.082 -81.346)" fill="#007b61"/><path d="M333.767 135.01h-10.833a.934.934 0 100 1.868h10.833a.934.934 0 000-1.868z" transform="translate(-291.082 -121.236)" fill="#007b61"/><path d="M286.118.01h-13.449A4.675 4.675 0 00268 4.679v9.993a4.676 4.676 0 004.14 4.64v2.427a.934.934 0 001.594.66l3.057-3.057h9.326a4.675 4.675 0 004.669-4.669V4.679A4.675 4.675 0 00286.118.01zm2.8 14.662a2.8 2.8 0 01-2.8 2.8h-9.713a.934.934 0 00-.66.274l-1.737 1.737v-1.075a.934.934 0 00-.934-.934h-.4a2.8 2.8 0 01-2.8-2.8V4.679a2.8 2.8 0 012.8-2.8h13.448a2.8 2.8 0 012.8 2.8z" transform="translate(-242.126 1.156)" fill="#51a79b"/></g></svg>