<svg xmlns="http://www.w3.org/2000/svg" xmlns:xlink="http://www.w3.org/1999/xlink" width="50" height="49" viewBox="0 0 50 49"><defs><clipPath id="b"><path d="M0 0h50v49H0z"/></clipPath></defs><g id="a" clip-path="url(#b)"><path d="M90 36.029a.722.722 0 00.722-.722V2.166A2.168 2.168 0 0088.559 0h-32.38a2.168 2.168 0 00-2.166 2.166v3.777a3.211 3.211 0 000 6.3v1.447a3.211 3.211 0 000 6.3v1.447a3.211 3.211 0 000 6.3v1.453a3.211 3.211 0 000 6.3v1.447a3.211 3.211 0 000 6.3v3.778a2.168 2.168 0 002.166 2.166h32.38a2.168 2.168 0 002.166-2.166v-8.82a.722.722 0 00-1.444 0v8.824a.723.723 0 01-.722.722h-32.38a.723.723 0 01-.722-.722v-8.491a1.769 1.769 0 01.943 1.562.722.722 0 001.444 0 3.217 3.217 0 00-2.386-3.1v-6.211a1.769 1.769 0 01.942 1.562.722.722 0 001.444 0 3.217 3.217 0 00-2.386-3.1V23.03a1.769 1.769 0 01.942 1.562.722.722 0 101.444 0 3.217 3.217 0 00-2.386-3.1v-6.211a1.769 1.769 0 01.942 1.562.722.722 0 001.444 0 3.217 3.217 0 00-2.386-3.1v-6.21a1.769 1.769 0 01.942 1.561.722.722 0 001.444 0 3.217 3.217 0 00-2.386-3.1V2.166a.723.723 0 01.722-.722h32.379a.723.723 0 01.722.722v33.141a.722.722 0 00.719.722zM52.864 9.094a1.769 1.769 0 011.149-1.654v3.308a1.769 1.769 0 01-1.149-1.654zm0 7.749a1.769 1.769 0 011.149-1.654V18.5a1.769 1.769 0 01-1.149-1.657zm0 7.749a1.769 1.769 0 011.149-1.654v3.308a1.769 1.769 0 01-1.149-1.654zm0 7.749a1.769 1.769 0 011.149-1.654v3.308a1.769 1.769 0 01-1.149-1.654zm0 7.749a1.769 1.769 0 011.149-1.654v3.308a1.769 1.769 0 01-1.149-1.654z" transform="translate(-47.367 -.184)" fill="#51a79b"/><path d="M292.131 56.523a.722.722 0 00-.722.722v3.115a.722.722 0 001.444 0V58a8.411 8.411 0 017.647 7.64h-7.643v-2.393a.722.722 0 00-1.444 0v3.115a.722.722 0 00.722.722h9.117a.722.722 0 00.722-.722 9.85 9.85 0 00-9.843-9.839z" transform="translate(-264.302 -51.277)" fill="#007b61"/><path d="M182.051 93.887a9.131 9.131 0 00-9.12 9.12.722.722 0 101.444 0 7.687 7.687 0 016.955-7.643v7.643a.771.771 0 00.047.255l2.7 7.147a7.674 7.674 0 01-9.254-4.8.722.722 0 10-1.358.489 9.123 9.123 0 0011.773 5.456l.039-.013.037-.016a9.135 9.135 0 005.856-8.516.722.722 0 00-.722-.722h-7.676v-7.678a.722.722 0 00-.722-.722zm3.378 16.011l-2.333-6.169h6.6a7.691 7.691 0 01-4.265 6.169z" transform="translate(-157.205 -85.052)" fill="#51a79b"/><path d="M184.659 329.149h-21.507a.722.722 0 100 1.444h21.508a.722.722 0 000-1.444z" transform="translate(-147.713 -297.714)" fill="#007b61"/><path d="M185.38 375.78a.722.722 0 00-.722-.722h-21.507a.722.722 0 100 1.444h21.508a.722.722 0 00.721-.722z" transform="translate(-147.712 -339.213)" fill="#51a79b"/><path d="M163.151 420.968a.722.722 0 100 1.444h15.314a.722.722 0 100-1.444z" transform="translate(-147.712 -380.713)" fill="#51a79b"/></g></svg>