<svg xmlns="http://www.w3.org/2000/svg" xmlns:xlink="http://www.w3.org/1999/xlink" width="50" height="49" viewBox="0 0 50 49"><defs><clipPath id="b"><rect width="50" height="49"/></clipPath></defs><g id="a" clip-path="url(#b)"><g transform="translate(-3.027 0.533)"><path d="M113.916,22.28a.717.717,0,0,0-.707-.674h-8.164l1.325-3.021a.719.719,0,0,0,.011-.542L105.7,16.3a7.294,7.294,0,0,0,1.094-.507l1.7,1.052a.712.712,0,0,0,.9-.126l1.644-1.806a.71.71,0,0,0,.035-.914l-1.221-1.568a7.194,7.194,0,0,0,.37-1.03l1.95-.45a.709.709,0,0,0,.549-.727l-.123-2.43a.71.71,0,0,0-.62-.668L110,6.875a7.192,7.192,0,0,0-.472-.988L110.58,4.2a.709.709,0,0,0-.127-.905l-1.818-1.631a.71.71,0,0,0-.906-.035l-1.586,1.218a7.294,7.294,0,0,0-1.045-.37L104.647.549A.708.708,0,0,0,103.92,0l-2.448.124a.71.71,0,0,0-.668.618L100.55,2.71a7.288,7.288,0,0,0-1,.474l-1.7-1.052a.71.71,0,0,0-.9.126L95.305,4.064a.709.709,0,0,0-.035.914l1.221,1.568a7.212,7.212,0,0,0-.3.8L92.868,5.885a.71.71,0,0,0-.935.365l-2.821,6.434V1.662a.71.71,0,0,0-1.419,0V4.77a15.145,15.145,0,0,0-12.041,6.917.71.71,0,0,0,1.19.774A13.728,13.728,0,0,1,87.693,6.19V36.232H83.317a1.087,1.087,0,0,1-1.082-1.089V32.71a.71.71,0,0,0-.373-.625A13.784,13.784,0,0,1,75.24,15.862a.71.71,0,0,0-1.355-.423,15.2,15.2,0,0,0,6.931,17.688v2.016a2.512,2.512,0,0,0,1.792,2.4v3.361a3.941,3.941,0,0,0,3.937,3.937h1.148v2.51a.71.71,0,0,0,1.419,0V30.373l7.23,3.17-.163.927a6,6,0,0,0-.7.287l-1.274-.888a.709.709,0,0,0-.908.081l-1.4,1.4a.71.71,0,0,0-.08.908l.889,1.273a6,6,0,0,0-.286.7L90.9,38.5a.71.71,0,0,0-.586.7l.008,1.99a.71.71,0,0,0,.582.7l1.526.279a6.069,6.069,0,0,0,.295.707l-.876,1.265a.71.71,0,0,0,.082.906l1.413,1.412a.71.71,0,0,0,.906.081l1.264-.878a6.076,6.076,0,0,0,.708.294l.28,1.526a.71.71,0,0,0,.7.581l1.99.006h0a.71.71,0,0,0,.7-.587l.266-1.518a5.987,5.987,0,0,0,.7-.287l1.274.888a.709.709,0,0,0,.908-.081l1.4-1.4a.71.71,0,0,0,.08-.908L103.63,42.9a5.994,5.994,0,0,0,.286-.7l1.517-.268a.71.71,0,0,0,.586-.7l-.008-1.99a.71.71,0,0,0-.582-.7l-1.435-.262c2.031-.009,4.093-.009,6.1-.009a.724.724,0,0,0,.651-.211l2.982-3.171a.71.71,0,0,0,.193-.486V22.316c0-.012,0-.023,0-.035Zm-2.348.745-1.617,1.719H99.771l1.617-1.719ZM103.561,10.8a.723.723,0,0,0-.376-.392l-2.693-1.181a2.693,2.693,0,1,1,3.544,2.79Zm-.7,2.107.766,1.967.811,2.081-2.816-1.244ZM97.883,6.022,96.757,4.577l.845-.928,1.57.971a.71.71,0,0,0,.762-.01,5.873,5.873,0,0,1,1.474-.7.71.71,0,0,0,.493-.587l.234-1.815,1.264-.064.416,1.782a.71.71,0,0,0,.55.534,5.871,5.871,0,0,1,1.537.544.71.71,0,0,0,.759-.067l1.464-1.124.934.838-.974,1.551a.71.71,0,0,0,.01.77,5.781,5.781,0,0,1,.7,1.46.71.71,0,0,0,.588.491l1.831.232.063,1.243-1.8.415a.709.709,0,0,0-.535.547,5.773,5.773,0,0,1-.548,1.523.71.71,0,0,0,.068.767l1.125,1.445-.845.928-1.57-.971a.71.71,0,0,0-.762.01,5.876,5.876,0,0,1-1.223.611l-.638-1.637a4.093,4.093,0,1,0-5.4-4.7L97.5,7.916a5.8,5.8,0,0,1,.451-1.127.709.709,0,0,0-.068-.767Zm-11.338,37.4a2.52,2.52,0,0,1-2.517-2.517V37.651h3.666v5.776Zm2.567-27.208L92.948,7.47l9.015,3.953-1.928,4.366a.71.71,0,0,0,.362.936l4.389,1.939-1.29,2.943h-2.415a.709.709,0,0,0-.517.223L97.582,25a1.3,1.3,0,0,0-.2.794v6.571h-.186l-8.079-3.542ZM104.6,40.638l-1.36.24a.71.71,0,0,0-.564.524,4.573,4.573,0,0,1-.486,1.186.71.71,0,0,0,.03.765l.8,1.143-.561.562-1.143-.8a.71.71,0,0,0-.765-.03,4.574,4.574,0,0,1-1.186.488.709.709,0,0,0-.523.565L98.6,46.645l-.8,0-.252-1.372a.71.71,0,0,0-.519-.558,4.66,4.66,0,0,1-1.193-.5.71.71,0,0,0-.766.028l-1.135.788-.574-.574.787-1.135a.71.71,0,0,0,.027-.766,4.664,4.664,0,0,1-.5-1.192.71.71,0,0,0-.559-.518L91.742,40.6l0-.8,1.36-.24a.71.71,0,0,0,.564-.524,4.573,4.573,0,0,1,.486-1.186.71.71,0,0,0-.03-.765l-.8-1.143.561-.562,1.143.8a.709.709,0,0,0,.765.03,4.579,4.579,0,0,1,1.186-.488.709.709,0,0,0,.523-.565l.239-1.361.8,0,.252,1.372a.71.71,0,0,0,.519.558,4.657,4.657,0,0,1,1.193.5.709.709,0,0,0,.766-.028l1.135-.788.574.574-.787,1.135a.71.71,0,0,0-.027.766,4.664,4.664,0,0,1,.5,1.192.71.71,0,0,0,.559.518l1.372.251Zm6.34-4.854c0-.7,0-2.425,0-2.425a.71.71,0,0,0-1.419,0v3.495c-1.791,0-3.62,0-5.427.009l.395-.569a.71.71,0,0,0-.082-.906l-1.413-1.412a.71.71,0,0,0-.906-.081l-1.264.878a6.076,6.076,0,0,0-.708-.294l-.28-1.526a.844.844,0,0,0-1.027-.583c-.012-.788.074-4.909,0-6.174h10.712v3.458a.71.71,0,0,0,1.419,0s0-2.668,0-3.889l1.561-1.66V34.125Z" transform="translate(-62.246 0)" fill="#51a79b"/><path d="M306.368,390.994h-.01a3.2,3.2,0,0,0-3.2,3.213,3.24,3.24,0,0,0,3.226,3.223h.01a3.2,3.2,0,0,0,3.2-3.213,3.24,3.24,0,0,0-3.226-3.223Zm1.287,4.5a1.755,1.755,0,0,1-1.266.521,1.821,1.821,0,0,1-1.811-1.81,1.777,1.777,0,0,1,1.786-1.788,1.821,1.821,0,0,1,1.811,1.81A1.769,1.769,0,0,1,307.654,395.49Z" transform="translate(-270.448 -354.002)" fill="#51a79b"/><path d="M71.731,49.569a.727.727,0,0,0,.5-1.211l-2.42-2.42a.71.71,0,0,0-1,1l2.419,2.42A.707.707,0,0,0,71.731,49.569Z" transform="translate(-58.081 -41.401)" fill="#007b61"/><path d="M8.559,204.487H5.137a.71.71,0,0,0,0,1.419H8.559A.71.71,0,0,0,8.559,204.487Z" transform="translate(0 -185.14)" fill="#007b61"/><path d="M73.517,336.888l-2.419,2.42a.71.71,0,0,0,1,1l2.419-2.42A.71.71,0,0,0,73.517,336.888Z" transform="translate(-60.153 -304.825)" fill="#007b61"/></g></g></svg>