<svg xmlns="http://www.w3.org/2000/svg" xmlns:xlink="http://www.w3.org/1999/xlink" width="50" height="49" viewBox="0 0 50 49"><defs><clipPath id="b"><path d="M0 0h50v49H0z"/></clipPath></defs><g id="a" clip-path="url(#b)"><path d="M43.555 26.48v-14.9a5.317 5.317 0 10-6.079-5.259H1v30.4h22.836A12.151 12.151 0 1043.555 26.48zM42.8 2.52a3.8 3.8 0 11-3.8 3.8 3.8 3.8 0 013.8-3.8zM2.52 7.839H37.7a5.316 5.316 0 00.841 1.66l-4.648 4.648a2.2 2.2 0 00-1.954 0l-1.531-1.531a2.258 2.258 0 00.228-.977 2.28 2.28 0 00-4.559 0 2.242 2.242 0 00.229.976l-3.811 3.811a2.258 2.258 0 00-.977-.228 2.28 2.28 0 102.28 2.28 2.242 2.242 0 00-.229-.976l3.811-3.811a2.2 2.2 0 001.954 0l1.531 1.531a2.258 2.258 0 00-.228.977 2.28 2.28 0 004.559 0 2.242 2.242 0 00-.229-.976l4.648-4.648a5.287 5.287 0 002.42 1v13.868a12.085 12.085 0 00-15.2 2.5v-3.386h-4.557v9.119h1.742a12.19 12.19 0 00-.183 1.52H2.52zm30.4 7.6a.76.76 0 11-.76.76.761.761 0 01.756-.761zm-5.319-3.8a.76.76 0 11.76.76.761.761 0 01-.761-.76zm-5.319 6.839a.76.76 0 11-.76-.76.761.761 0 01.756.76zm13.674 23.557a6.079 6.079 0 116.079-6.079 6.086 6.086 0 01-6.079 6.079zM25.317 30.083a12.067 12.067 0 00-.9 2.074H23.8v-6.08h1.52zm9.883-4.727V28.4a7.583 7.583 0 00-6.162 10.679L26.4 40.6a10.6 10.6 0 018.8-15.241zm.76 21.239a10.633 10.633 0 01-8.806-4.677l2.646-1.529a7.574 7.574 0 0012.318 0l2.647 1.528a10.633 10.633 0 01-8.809 4.678zm9.558-6l-2.636-1.522A7.583 7.583 0 0036.716 28.4v-3.04a10.6 10.6 0 018.8 15.241z" fill="#51a79b" transform="translate(.443 .443)"/><path d="M45.559 41a4.559 4.559 0 104.559 4.559A4.564 4.564 0 0045.559 41zm0 7.6a3.04 3.04 0 113.04-3.04 3.043 3.043 0 01-3.04 3.04z" transform="translate(-9.16 -9.16)" fill="#68bbaf"/><path d="M5 12h1.52v1.52H5z" transform="translate(-.517 -2.198)" fill="#51a79b"/><path d="M9 12h10.639v1.52H9z" transform="translate(-1.478 -2.198)" fill="#007b61"/><path d="M5 16h1.52v1.52H5z" transform="translate(-.517 -3.158)" fill="#51a79b"/><path d="M9 16h10.639v1.52H9z" transform="translate(-1.478 -3.158)" fill="#007b61"/><path d="M5 20h1.52v1.52H5z" transform="translate(-.517 -4.119)" fill="#51a79b"/><path d="M9 20h10.639v1.52H9z" transform="translate(-1.478 -4.119)" fill="#007b61"/><path d="M5 24h1.52v1.52H5z" transform="translate(-.517 -5.079)" fill="#51a79b"/><path d="M9 24h10.639v1.52H9z" transform="translate(-1.478 -5.079)" fill="#007b61"/><path d="M5 41.6h4.559V34H5zm1.52-6.08h1.52v4.559H6.52z" transform="translate(-.517 -7.48)" fill="#007b61"/><path d="M13 42.079h4.559V36H13zm1.52-4.559h1.52v3.04h-1.52z" transform="translate(-2.438 -7.96)" fill="#51a79b"/><path d="M21 40.159h4.559V28H21zm1.52-10.639h1.52v9.119h-1.52z" transform="translate(-4.359 -6.039)" fill="#007b61"/></g></svg>